<?xml version="1.0" encoding="UTF-8"?>
<!DOCTYPE svg PUBLIC "-//W3C//DTD SVG 1.1//EN" "http://www.w3.org/Graphics/SVG/1.1/DTD/svg11.dtd">
<svg xmlns="http://www.w3.org/2000/svg" version="1.1" width="318px" height="55px" style="shape-rendering:geometricPrecision; text-rendering:geometricPrecision; image-rendering:optimizeQuality; fill-rule:evenodd; clip-rule:evenodd" xmlns:xlink="http://www.w3.org/1999/xlink">
<g><path style="opacity:1" fill="#070707" d="M -0.5,-0.5 C 18.8333,-0.5 38.1667,-0.5 57.5,-0.5C 57.5,17.8333 57.5,36.1667 57.5,54.5C 38.1667,54.5 18.8333,54.5 -0.5,54.5C -0.5,36.1667 -0.5,17.8333 -0.5,-0.5 Z"/></g>
<g><path style="opacity:0.68" fill="#fefffe" d="M 75.5,-0.5 C 77.5,-0.5 79.5,-0.5 81.5,-0.5C 81.7846,4.89683 81.4512,10.2302 80.5,15.5C 77.792,17.4357 74.792,17.9357 71.5,17C 69.8078,15.5993 69.1412,13.7659 69.5,11.5C 71.4672,11.7394 73.3005,11.4061 75,10.5C 75.4986,6.84841 75.6653,3.18174 75.5,-0.5 Z"/></g>
<g><path style="opacity:0.701" fill="#fefffe" d="M 85.5,-0.5 C 89.8333,-0.5 94.1667,-0.5 98.5,-0.5C 100.394,4.46346 101.394,4.46346 101.5,-0.5C 104.167,-0.5 106.833,-0.5 109.5,-0.5C 111.451,5.83092 112.451,5.83092 112.5,-0.5C 114.833,-0.5 117.167,-0.5 119.5,-0.5C 119.34,1.19919 119.506,2.86586 120,4.5C 120.785,2.75099 121.618,1.08432 122.5,-0.5C 127.167,-0.5 131.833,-0.5 136.5,-0.5C 136.643,1.26241 136.309,2.92908 135.5,4.5C 135.808,5.30806 136.308,5.97473 137,6.5C 137.497,4.19018 137.663,1.85684 137.5,-0.5C 142.167,-0.5 146.833,-0.5 151.5,-0.5C 151.5,1.16667 151.5,2.83333 151.5,4.5C 149.143,4.33669 146.81,4.50335 144.5,5C 146.473,5.49546 148.473,5.66212 150.5,5.5C 150.5,7.16667 150.5,8.83333 150.5,10.5C 148.473,10.3379 146.473,10.5045 144.5,11C 146.81,11.4966 149.143,11.6633 151.5,11.5C 151.5,13.1667 151.5,14.8333 151.5,16.5C 146.57,16.8025 141.737,16.4692 137,15.5C 132.304,17.9857 127.47,18.1524 122.5,16C 121.107,14.8289 120.273,13.3289 120,11.5C 120.296,17.0467 117.796,18.8801 112.5,17C 110.877,14.9205 109.377,12.7538 108,10.5C 107.505,12.4727 107.338,14.4727 107.5,16.5C 105.5,16.5 103.5,16.5 101.5,16.5C 101.668,11.4676 100.668,11.3009 98.5,16C 85.8304,19.9939 80.6637,15.4939 83,2.5C 84.045,1.62656 84.8783,0.626561 85.5,-0.5 Z M 90.5,3.5 C 92.0174,3.51056 93.1841,4.17723 94,5.5C 94.4955,7.4727 94.6621,9.4727 94.5,11.5C 88.4249,11.2879 87.0915,8.62121 90.5,3.5 Z M 129.5,3.5 C 134.663,6.08621 133.996,7.08621 127.5,6.5C 127.657,7.87344 127.49,9.20677 127,10.5C 125.916,7.34115 126.75,5.00782 129.5,3.5 Z"/></g>
<g><path style="opacity:0.731" fill="#fefffe" d="M 152.5,-0.5 C 157.167,-0.5 161.833,-0.5 166.5,-0.5C 167.695,3.28608 168.362,3.28608 168.5,-0.5C 176.167,-0.5 183.833,-0.5 191.5,-0.5C 192.64,1.78022 193.807,4.11355 195,6.5C 195.497,4.19018 195.663,1.85684 195.5,-0.5C 197.5,-0.5 199.5,-0.5 201.5,-0.5C 201.5,5.5 201.5,11.5 201.5,17.5C 199.143,17.6633 196.81,17.4966 194.5,17C 193,14.8333 191.5,12.6667 190,10.5C 189.505,12.4727 189.338,14.4727 189.5,16.5C 180.161,16.6665 170.827,16.4998 161.5,16C 160.107,14.8289 159.273,13.3289 159,11.5C 158.506,13.1341 158.34,14.8008 158.5,16.5C 156.5,16.5 154.5,16.5 152.5,16.5C 152.5,10.8333 152.5,5.16667 152.5,-0.5 Z M 182.5,3.5 C 183.473,5.9479 183.806,8.61456 183.5,11.5C 180.813,11.6641 178.146,11.4974 175.5,11C 177.473,10.5045 179.473,10.3379 181.5,10.5C 181.5,8.83333 181.5,7.16667 181.5,5.5C 179.473,5.66212 177.473,5.49546 175.5,5C 178.036,4.81382 180.369,4.31382 182.5,3.5 Z M 158.5,4.5 C 160.983,4.72998 161.483,5.39665 160,6.5C 158.97,6.16389 158.47,5.49722 158.5,4.5 Z M 167.5,6.5 C 168.629,8.62816 168.796,10.9615 168,13.5C 167.5,12.3333 166.667,11.5 165.5,11C 167.037,9.89037 167.703,8.39037 167.5,6.5 Z"/></g>
<g><path style="opacity:1" fill="#f9f6f6" d="M 22.5,7.5 C 40.556,6.25983 48.7227,14.5932 47,32.5C 40.4247,46.369 30.258,49.869 16.5,43C 5.59165,31.6588 5.92498,20.6588 17.5,10C 19.3146,9.24316 20.9812,8.40982 22.5,7.5 Z"/></g>
<g><path style="opacity:1" fill="#ff261a" d="M 24.5,12.5 C 30.9314,11.9579 35.2647,14.6245 37.5,20.5C 36.3902,25.2197 33.3902,27.8863 28.5,28.5C 29.9989,29.9038 29.6656,30.5704 27.5,30.5C 23.8529,29.5139 22.6862,27.1806 24,23.5C 26.456,22.4258 28.956,21.4258 31.5,20.5C 31.2907,19.914 30.9574,19.414 30.5,19C 28.1902,18.5034 25.8568,18.3367 23.5,18.5C 23.3253,16.3792 23.6586,14.3792 24.5,12.5 Z"/></g>
<g><path style="opacity:0.786" fill="#fefffe" d="M 198.5,54.5 C 194.833,54.5 191.167,54.5 187.5,54.5C 186.921,49.941 185.588,45.6076 183.5,41.5C 181.703,45.6858 180.37,50.0191 179.5,54.5C 175.833,54.5 172.167,54.5 168.5,54.5C 166.845,45.7032 164.679,37.0365 162,28.5C 160.681,30.2495 160.181,32.2495 160.5,34.5C 156.168,33.9035 151.835,33.7368 147.5,34C 150.588,35.8747 153.921,37.2081 157.5,38C 163.699,43.2454 164.032,48.7454 158.5,54.5C 151.5,54.5 144.5,54.5 137.5,54.5C 137.508,51.4552 137.841,48.4552 138.5,45.5C 141.834,46.8063 145.334,47.8063 149,48.5C 150.225,48.1377 151.391,47.6377 152.5,47C 147.974,45.2791 143.64,43.1125 139.5,40.5C 135.714,30.7405 139.048,25.4072 149.5,24.5C 153.586,24.6817 157.419,25.6817 161,27.5C 164.149,25.6375 167.649,24.9709 171.5,25.5C 172.591,29.7967 173.591,34.13 174.5,38.5C 176.022,34.3906 177.355,30.2239 178.5,26C 181.833,25.3333 185.167,25.3333 188.5,26C 189.654,30.1349 190.821,34.3016 192,38.5C 193.852,34.7432 195.019,30.7432 195.5,26.5C 198.428,25.5159 201.428,25.1826 204.5,25.5C 202.66,35.1957 200.66,44.8623 198.5,54.5 Z"/></g>
<g><path style="opacity:0.778" fill="#fefffe" d="M 98.5,54.5 C 94.5,54.5 90.5,54.5 86.5,54.5C 84.9128,51.7318 83.0795,49.0652 81,46.5C 80.5026,49.146 80.3359,51.8127 80.5,54.5C 77.5,54.5 74.5,54.5 71.5,54.5C 71.5,44.8333 71.5,35.1667 71.5,25.5C 74.5,25.5 77.5,25.5 80.5,25.5C 80.335,28.8499 80.5017,32.1832 81,35.5C 82.6768,32.1466 84.8434,29.1466 87.5,26.5C 91.1073,25.5108 94.774,25.1774 98.5,25.5C 98.6495,26.552 98.4828,27.552 98,28.5C 94.643,32.3562 91.4763,36.3562 88.5,40.5C 92.3309,44.8354 95.6643,49.502 98.5,54.5 Z"/></g>
<g><path style="opacity:0.852" fill="#fefffe" d="M 109.5,54.5 C 106.5,54.5 103.5,54.5 100.5,54.5C 100.5,44.8333 100.5,35.1667 100.5,25.5C 103.5,25.5 106.5,25.5 109.5,25.5C 109.5,35.1667 109.5,44.8333 109.5,54.5 Z"/></g>
<g><path style="opacity:0.794" fill="#fefffe" d="M 136.5,54.5 C 128.833,54.5 121.167,54.5 113.5,54.5C 113.5,44.8333 113.5,35.1667 113.5,25.5C 121.167,25.5 128.833,25.5 136.5,25.5C 136.5,28.1667 136.5,30.8333 136.5,33.5C 131.833,33.5 127.167,33.5 122.5,33.5C 122.5,34.5 122.5,35.5 122.5,36.5C 126.5,36.5 130.5,36.5 134.5,36.5C 134.768,39.1194 134.435,41.6194 133.5,44C 129.848,44.4986 126.182,44.6653 122.5,44.5C 122.5,45.5 122.5,46.5 122.5,47.5C 127.167,47.5 131.833,47.5 136.5,47.5C 136.5,49.8333 136.5,52.1667 136.5,54.5 Z"/></g>
<g><path style="opacity:0.786" fill="#fefffe" d="M 215.5,54.5 C 212.5,54.5 209.5,54.5 206.5,54.5C 206.5,44.8333 206.5,35.1667 206.5,25.5C 209.5,25.5 212.5,25.5 215.5,25.5C 215.5,35.1667 215.5,44.8333 215.5,54.5 Z"/></g>
<g><path style="opacity:0.826" fill="#fefffe" d="M 235.5,54.5 C 229.5,54.5 223.5,54.5 217.5,54.5C 217.833,51.8333 218.167,49.1667 218.5,46.5C 220.937,46.7563 223.271,47.4229 225.5,48.5C 226.799,47.91 227.632,46.91 228,45.5C 228.5,38.8417 228.666,32.175 228.5,25.5C 231.5,25.5 234.5,25.5 237.5,25.5C 237.666,34.1731 237.5,42.8397 237,51.5C 235.961,52.2438 235.461,53.2438 235.5,54.5 Z"/></g>
<g><path style="opacity:0.812" fill="#fefffe" d="M 264.5,54.5 C 256.167,54.5 247.833,54.5 239.5,54.5C 239.338,52.4727 239.505,50.4727 240,48.5C 243.713,43.5756 247.546,38.7423 251.5,34C 247.848,33.5014 244.182,33.3347 240.5,33.5C 240.5,30.8333 240.5,28.1667 240.5,25.5C 248.5,25.5 256.5,25.5 264.5,25.5C 264.664,28.1873 264.497,30.854 264,33.5C 260.489,37.8727 256.989,42.206 253.5,46.5C 257.107,47.4892 260.774,47.8226 264.5,47.5C 264.5,49.8333 264.5,52.1667 264.5,54.5 Z"/></g>
<g><path style="opacity:0.828" fill="#fefffe" d="M 289.5,54.5 C 282.167,54.5 274.833,54.5 267.5,54.5C 267.5,44.8333 267.5,35.1667 267.5,25.5C 274.833,25.5 282.167,25.5 289.5,25.5C 289.5,28.1667 289.5,30.8333 289.5,33.5C 285.167,33.5 280.833,33.5 276.5,33.5C 276.5,34.5 276.5,35.5 276.5,36.5C 280.167,36.5 283.833,36.5 287.5,36.5C 287.5,39.1667 287.5,41.8333 287.5,44.5C 283.833,44.5 280.167,44.5 276.5,44.5C 276.5,45.5 276.5,46.5 276.5,47.5C 280.833,47.5 285.167,47.5 289.5,47.5C 289.5,49.8333 289.5,52.1667 289.5,54.5 Z"/></g>
<g><path style="opacity:0.834" fill="#fefffe" d="M 317.5,33.5 C 317.5,34.8333 317.5,36.1667 317.5,37.5C 316.591,40.297 314.924,42.6303 312.5,44.5C 313.943,47.0765 315.61,49.4099 317.5,51.5C 317.5,52.5 317.5,53.5 317.5,54.5C 314.167,54.5 310.833,54.5 307.5,54.5C 305.936,51.6259 304.103,48.9592 302,46.5C 301.503,49.146 301.336,51.8127 301.5,54.5C 298.5,54.5 295.5,54.5 292.5,54.5C 292.5,44.8333 292.5,35.1667 292.5,25.5C 298.509,25.3338 304.509,25.5005 310.5,26C 314.117,27.4452 316.45,29.9452 317.5,33.5 Z M 301.5,33.5 C 304.056,33.1322 306.056,33.9655 307.5,36C 306.056,38.0345 304.056,38.8678 301.5,38.5C 301.5,36.8333 301.5,35.1667 301.5,33.5 Z"/></g>
<g><path style="opacity:1" fill="#ff1e16" d="M 23.5,32.5 C 28.0057,31.5272 30.1724,33.1939 30,37.5C 26.5067,40.5018 24.0067,39.8351 22.5,35.5C 22.685,34.4163 23.0183,33.4163 23.5,32.5 Z"/></g>
</svg>
