<?xml version="1.0" encoding="utf-8"?>
<!-- Generator: Adobe Illustrator 25.2.3, SVG Export Plug-In . SVG Version: 6.00 Build 0)  -->
<svg version="1.1" id="Laag_1" xmlns="http://www.w3.org/2000/svg" xmlns:xlink="http://www.w3.org/1999/xlink" x="0px" y="0px"
	 width="100px" height="59px" viewBox="0 0 264.37 150" style="enable-background:new 0 0 264.37 150;" xml:space="preserve">
<style type="text/css">
	.st0{fill:#191714;}
	.st1{fill:#00DB62;}
</style>
<g>
	<g id="FNV" transform="matrix(1,0,0,1,-1,0)">
		<path class="st0" d="M1,5.7v62.87l11.67-0.67V41.5l11.67-0.67V30.37l-11.67,0.67V16.06l13.39-0.77V4.25L1,5.7z M30.28,4.01v62.87
			l10.14-0.58V34.24l0.19-0.01l12.44,31.34l7.75-0.45V2.25L50.65,2.84v30.33l-0.19,0.01L38.7,3.52L30.28,4.01z M99.83,0L87.58,0.71
			l-5.74,45.45l-0.19,0.01L76.01,1.37L63.67,2.09l11.67,62.2l12.82-0.74L99.83,0z"/>
	</g>
	<g id="YOUNG---UNITED" transform="matrix(1,0,0,1,-1,0)">
		<path class="st1" d="M64.7,97.27c5.18,1.07,9.09,4.64,9.32,10.06l-8.32,1.51c-0.16-3.11-2.65-3.96-4.61-3.85
			c-1.96,0.11-3.7,1.63-3.7,4.38c0,3.07,1.99,3.52,3.95,3.4l2.5-0.14v7.75l-2.5,0.14c-2.99,0.34-5.01,1.78-5.01,5.44
			c0,3.95,1.86,6.23,5.01,6.04c2.86-0.16,5.02-1.45,5.02-6.04v-3.91l11.74-0.68v7.71l-3.22,0.19c-0.92,6.18-4.27,9.94-10.18,11.39
			v8.84L56.26,150v-8.82c-6.71-0.9-10.92-5.45-10.92-14.16c0-4.74,2.63-7.9,5.96-9.95v-0.17c-2.54-1.67-4.47-4.31-4.47-8.4
			c0-6.46,3.97-9.77,9.44-11V87.1l8.44-0.49V97.27z M102.91,84.41V130c0,5.38-1.34,6.89-3.92,7.04c-2.58,0.15-3.92-1.31-3.92-6.59
			v-45.6l-11.67,0.67v45.6c0,12.38,5.64,17.82,15.6,17.24c9.85-0.57,15.5-6.85,15.5-19.42V83.74L102.91,84.41z M120.13,83.42v62.87
			l10.14-0.58v-32.06l0.19-0.01l12.44,31.34l7.75-0.45V81.66l-10.14,0.58v30.33l-0.19,0.01l-11.77-29.65L120.13,83.42z
			 M157.25,81.27v62.87l11.67-0.67V80.6L157.25,81.27z M173.04,80.37V91.4l8.32-0.48v51.84l11.67-0.67V90.25l8.23-0.47V78.74
			L173.04,80.37z M204.9,78.53v62.87l25.16-1.45V129.1l-13.49,0.78v-16.99l9.76-0.56v-9.7l-9.76,0.56v-14.3l13.01-0.75V77.1
			L204.9,78.53z M234.27,76.83v62.87l15.5-0.89c9.95-0.57,15.59-7.62,15.59-19.71V93.86c0-12.19-5.64-18.49-15.59-17.92
			L234.27,76.83z M253.69,94.91v24.57c0,7.1-1.15,8.61-3.92,8.77l-3.83,0.22V87.01l3.83-0.22C252.54,86.63,253.69,88,253.69,94.91z
			 M126.93,9.29l-12.53,0.72l-4.88,29.27l-0.19,0.01l-5.07-28.7l-12.53,0.72l11.77,44.53v17.66l11.58-0.67V55.57L126.93,9.29z
			 M142.53,7.53c-10.43,0.6-15.5,7.42-15.5,19.61V54.4c0,12.19,5.07,18.33,15.5,17.73c10.33-0.6,15.5-7.33,15.5-19.52V25.35
			C158.03,13.16,152.86,6.93,142.53,7.53z M182.14,6.11v45.6c0,5.38-1.34,6.89-3.92,7.04c-2.58,0.15-3.92-1.31-3.92-6.59V6.56
			l-11.67,0.67v45.6c0,12.38,5.64,17.82,15.6,17.24c9.85-0.57,15.5-6.85,15.5-19.42V5.44L182.14,6.11z M199.36,5.11v62.87
			l10.14-0.59V35.34l0.19-0.01l12.44,31.34l7.75-0.45V3.35l-10.14,0.59v30.33l-0.19,0.01L207.78,4.63L199.36,5.11z M250.73,1.19
			c-10.71,0.62-15.59,8.77-15.59,20.29v26.49c0,13.34,5.36,18.51,12.82,18.08c3.25-0.19,5.84-1.58,7.75-3.81l0.19-0.01v2.5
			l9.47-0.55V32.22L251.79,33v8.74l3.44-0.2v11.04c-1.15,1.6-2.2,2.14-3.64,2.23c-3.16,0.18-4.98-1.92-4.98-7.58v-26.4
			c0-6.53,1.53-8.73,4.88-8.92c2.3-0.13,3.83,1.22,4.88,6.82l8.99-2.92C264.32,5.4,258.58,0.74,250.73,1.19z M146.35,53.29
			c0,6.53-1.05,8.32-3.83,8.48c-2.87,0.17-4.02-1.5-4.02-8.02V26.48c0-6.53,1.24-8.14,4.02-8.29c2.77-0.16,3.83,1.31,3.83,7.84
			V53.29z"/>
	</g>
</g>
</svg>
