<?xml version="1.0" standalone="no"?>
<!DOCTYPE svg PUBLIC "-//W3C//DTD SVG 20010904//EN"
 "http://www.w3.org/TR/2001/REC-SVG-20010904/DTD/svg10.dtd">
<svg version="1.0" xmlns="http://www.w3.org/2000/svg"
 width="684.000000pt" height="124.000000pt" viewBox="0 0 684.000000 124.000000"
 preserveAspectRatio="xMidYMid meet">

<g transform="translate(0.000000,124.000000) scale(0.100000,-0.100000)"
fill="#000000" stroke="none">
<path d="M0 630 l0 -600 605 0 605 0 0 600 0 600 -605 0 -605 0 0 -600z m730
404 c114 -34 209 -118 264 -233 29 -61 31 -74 31 -171 0 -97 -2 -110 -31 -171
-80 -169 -228 -257 -415 -247 -70 4 -98 11 -151 37 -125 62 -214 181 -238 319
-35 202 112 425 313 472 56 14 172 11 227 -6z"/>
<path d="M522 923 c-5 -10 -12 -36 -16 -59 l-6 -41 58 1 c72 1 109 -9 122 -34
8 -15 6 -24 -10 -40 -11 -11 -30 -20 -43 -20 -42 -1 -106 -37 -113 -64 -9 -36
3 -73 31 -102 19 -19 35 -24 71 -24 l47 0 -21 23 c-12 13 -22 28 -22 34 0 6
33 22 72 35 59 19 77 30 95 57 56 84 -3 206 -116 240 -60 18 -139 14 -149 -6z"/>
<path d="M543 480 c-46 -19 -57 -83 -20 -118 31 -29 99 -30 127 -2 38 38 22
100 -31 119 -37 13 -46 13 -76 1z"/>
<path d="M1640 1111 c0 -66 -4 -131 -9 -144 -12 -31 -40 -41 -77 -27 -24 9
-31 8 -41 -6 -7 -10 -13 -28 -13 -40 0 -17 9 -24 44 -33 60 -15 82 -14 122 5
56 27 64 54 64 219 l0 145 -45 0 -45 0 0 -119z"/>
<path d="M1875 1206 c-103 -62 -119 -227 -30 -305 113 -99 295 -37 320 109 15
87 -29 176 -101 206 -54 23 -142 18 -189 -10z m139 -60 c88 -37 64 -216 -29
-216 -65 0 -100 44 -99 122 1 52 28 93 68 101 11 2 22 5 24 6 1 0 18 -5 36
-13z"/>
<path d="M2224 1217 c-2 -7 -3 -89 -2 -182 l3 -170 40 0 40 0 3 110 3 109 72
-109 72 -110 50 0 50 0 0 180 0 180 -40 0 -40 0 -3 -115 -3 -115 -75 118 -76
117 -44 0 c-27 0 -47 -5 -50 -13z"/>
<path d="M2715 1213 c-72 -37 -98 -86 -97 -178 0 -61 19 -102 62 -139 58 -49
158 -58 244 -22 l37 15 -3 88 -3 88 -85 0 -85 0 0 -35 c0 -34 1 -35 43 -38 37
-3 42 -6 42 -27 0 -30 -45 -42 -96 -25 -38 13 -64 55 -64 105 0 34 25 82 49
95 28 14 86 12 127 -5 38 -16 34 -19 59 53 13 37 -169 57 -230 25z"/>
<path d="M3025 1217 c-3 -7 -4 -89 -3 -182 l3 -170 130 0 130 0 0 35 0 35 -82
3 c-90 3 -83 -2 -83 58 0 4 30 7 68 8 l67 1 0 35 0 35 -70 5 c-69 5 -69 5 -69
35 l0 30 84 5 85 5 0 35 0 35 -128 3 c-98 2 -129 0 -132 -11z"/>
<path d="M3354 1217 c-2 -7 -3 -89 -2 -182 l3 -170 43 -3 42 -3 0 60 c0 57 2
61 23 61 16 0 28 -11 42 -37 38 -71 53 -83 99 -83 23 0 45 3 49 6 3 3 -13 35
-37 70 l-43 65 33 33 c28 28 34 42 34 75 0 53 -39 98 -95 111 -62 15 -185 12
-191 -3z m167 -77 c12 -7 19 -21 19 -41 0 -32 -27 -49 -76 -49 -22 0 -24 4
-24 50 0 49 1 50 31 50 17 0 39 -5 50 -10z"/>
<path d="M3705 1217 c-3 -7 -4 -89 -3 -182 l3 -170 130 0 130 0 0 35 0 35 -82
3 -83 3 0 29 c0 29 0 29 68 32 l67 3 0 35 0 35 -67 3 -68 3 0 34 0 34 83 3 82
3 0 35 0 35 -128 3 c-98 2 -129 0 -132 -11z"/>
<path d="M4034 1217 c-2 -7 -3 -89 -2 -182 l3 -170 40 0 40 0 5 109 5 110 72
-113 73 -112 47 3 48 3 0 180 0 180 -40 0 -40 0 -5 -110 -5 -110 -72 113 -72
112 -46 0 c-28 0 -48 -5 -51 -13z"/>
<path d="M3139 640 c-83 -14 -152 -67 -165 -128 -3 -15 -7 -32 -9 -38 -2 -6 1
-32 7 -57 14 -69 62 -107 184 -147 116 -38 124 -43 124 -80 0 -21 -7 -30 -30
-40 -41 -17 -147 -7 -206 20 -26 11 -50 18 -54 15 -12 -7 -33 -103 -27 -120
10 -24 131 -55 219 -55 98 0 145 13 194 53 44 37 64 81 64 142 0 91 -47 138
-182 184 -47 16 -95 34 -107 40 -23 13 -28 50 -9 69 19 19 117 13 191 -12 l67
-23 10 36 c25 97 26 89 -22 111 -25 11 -76 24 -114 30 -76 11 -71 11 -135 0z"/>
<path d="M1550 325 l0 -306 78 3 77 3 5 125 5 124 95 -127 94 -127 87 0 c47 0
88 3 92 6 3 3 -49 73 -115 155 -80 101 -117 154 -111 162 5 7 57 71 116 144
59 73 107 135 107 138 0 3 -40 5 -88 5 l-88 0 -94 -127 -95 -127 -5 124 -5
125 -77 3 -78 3 0 -306z"/>
<path d="M2155 618 c-3 -7 -4 -144 -3 -303 l3 -290 80 0 80 0 0 300 0 300 -78
3 c-56 2 -79 -1 -82 -10z"/>
<path d="M2445 618 c-3 -7 -4 -144 -3 -303 l3 -290 220 0 220 0 0 60 0 60
-142 3 -143 3 0 54 0 54 113 3 112 3 3 63 3 62 -116 0 -115 0 0 55 0 54 143 3
142 3 0 60 0 60 -218 3 c-170 2 -219 0 -222 -10z"/>
<path d="M3480 614 c0 -17 136 -532 151 -571 8 -21 14 -23 88 -23 l80 0 15 53
c9 28 35 124 59 212 28 101 46 152 50 140 3 -11 27 -96 52 -190 63 -235 50
-215 139 -215 47 0 77 5 83 13 14 17 163 579 157 589 -3 4 -38 8 -79 8 -62 0
-74 -3 -79 -17 -2 -10 -19 -97 -37 -193 -18 -96 -35 -178 -39 -182 -3 -4 -28
81 -56 190 l-51 197 -93 0 -94 0 -51 -205 c-36 -145 -53 -198 -57 -180 -4 14
-21 102 -38 195 -17 94 -33 176 -36 183 -2 8 -28 12 -84 12 -67 0 -80 -3 -80
-16z"/>
<path d="M4452 328 l3 -303 75 0 75 0 0 300 0 300 -78 3 -77 3 2 -303z"/>
<path d="M4917 624 c-4 -4 -7 -105 -7 -224 0 -204 -1 -217 -20 -238 -25 -26
-69 -29 -131 -7 -23 9 -46 12 -49 8 -4 -5 -13 -30 -19 -58 -11 -44 -10 -51 5
-62 51 -37 202 -45 271 -14 92 42 115 129 111 416 l-3 180 -75 3 c-42 1 -79 0
-83 -4z"/>
<path d="M5164 616 c-3 -7 -4 -35 -2 -62 l3 -49 147 -5 146 -5 -149 -185 -150
-184 3 -51 3 -50 245 0 245 0 0 65 0 65 -142 5 -142 5 144 179 145 179 0 54 0
53 -245 0 c-199 0 -247 -3 -251 -14z"/>
<path d="M5760 325 l0 -305 223 2 222 3 0 60 0 60 -147 3 -148 3 0 54 0 54
118 3 117 3 0 60 0 60 -117 3 -118 3 0 54 0 54 148 3 147 3 0 60 0 60 -222 3
-223 2 0 -305z"/>
<path d="M6310 325 l0 -306 78 3 77 3 3 98 3 97 33 0 c31 0 36 -6 92 -97 l59
-98 79 -3 c44 -2 82 1 87 5 4 4 -26 58 -66 119 l-73 112 42 29 c52 37 76 85
76 153 0 58 -10 81 -53 128 -47 49 -105 62 -284 62 l-153 0 0 -305z m300 156
c35 -25 38 -71 7 -107 -21 -24 -33 -28 -91 -32 l-66 -4 0 79 c0 44 3 83 8 87
12 13 116 -3 142 -23z"/>
</g>
</svg>
