<?xml version="1.0" standalone="no"?>
<!DOCTYPE svg PUBLIC "-//W3C//DTD SVG 20010904//EN"
 "http://www.w3.org/TR/2001/REC-SVG-20010904/DTD/svg10.dtd">
<svg version="1.0" xmlns="http://www.w3.org/2000/svg"
 width="4822.000000pt" height="3613.000000pt" viewBox="0 0 4822.000000 3613.000000"
 preserveAspectRatio="xMidYMid meet">

<g transform="translate(0.000000,3613.000000) scale(0.100000,-0.100000)"
fill="#000000" stroke="none">
<path d="M0 33958 l0 -2171 55 -103 c108 -203 232 -396 376 -584 428 -560
1079 -999 1789 -1205 167 -48 431 -100 615 -121 182 -20 548 -23 720 -5 791
82 1490 394 2082 928 108 99 109 93 -7 143 -105 45 -462 223 -600 300 -664
367 -1248 803 -1799 1345 -556 547 -991 1109 -1363 1760 -78 137 -137 247
-126 235 3 -3 47 -52 98 -110 412 -464 865 -868 1385 -1235 903 -638 1947
-1092 3022 -1315 141 -29 185 -35 193 -26 17 21 77 160 129 298 91 243 157
520 198 826 21 161 24 635 5 792 -81 652 -284 1186 -645 1694 -173 243 -397
487 -598 649 l-96 77 -2716 0 -2717 0 0 -2172z"/>
<path d="M27139 36104 l-26 -25 -843 -45 c-464 -24 -845 -46 -848 -49 -2 -2
33 -44 80 -92 46 -48 310 -325 586 -615 l502 -527 0 -43 c0 -24 16 -398 35
-832 19 -435 35 -798 35 -808 0 -13 4 -17 14 -11 8 4 283 269 611 588 329 319
603 583 609 586 6 4 388 26 849 50 633 33 837 46 835 56 -2 6 -262 284 -579
616 l-576 604 -6 79 c-4 43 -9 162 -12 264 -3 102 -8 195 -11 208 l-4 22 -613
0 -612 0 -26 -26z"/>
<path d="M30118 36033 c49 -54 102 -109 117 -123 15 -14 53 -54 85 -90 l58
-65 17 -415 c10 -228 20 -418 24 -422 3 -4 143 125 311 287 l304 294 56 5 c30
3 213 13 405 22 193 8 358 19 368 23 15 5 -31 58 -255 294 l-273 287 -654 0
-653 0 90 -97z"/>
<path d="M47650 33774 c-90 -7 -322 -34 -370 -43 -25 -5 -74 -15 -110 -21
-106 -20 -327 -78 -440 -117 -565 -192 -1041 -490 -1450 -909 -315 -324 -545
-665 -730 -1084 -116 -262 -221 -643 -269 -975 -44 -301 -36 -761 19 -1055 42
-227 82 -388 137 -550 191 -565 490 -1041 909 -1450 322 -314 666 -546 1084
-730 148 -65 291 -114 496 -169 274 -73 442 -102 709 -122 144 -11 513 -6 563
7 l22 6 0 515 0 516 -42 -7 c-24 -4 -133 -9 -243 -12 -154 -5 -233 -3 -344 10
-779 91 -1451 502 -1884 1152 -115 174 -288 533 -286 596 1 74 95 209 205 298
179 143 438 233 829 286 132 18 618 25 780 11 345 -29 666 -106 914 -218 35
-16 65 -29 67 -29 2 0 4 180 4 400 l0 400 -34 0 c-50 0 -188 28 -276 55 -374
119 -657 444 -724 834 -79 464 156 936 569 1144 86 43 240 92 320 103 33 4 63
9 68 10 4 1 23 2 42 3 l35 1 0 564 0 564 -22 6 c-27 8 -470 15 -548 10z"/>
<path d="M29473 33035 c-272 -266 -306 -295 -335 -295 -70 0 -803 -42 -807
-46 -3 -3 24 -35 60 -72 101 -104 471 -494 497 -524 23 -25 24 -34 42 -443 10
-229 21 -420 25 -423 3 -3 47 35 98 84 415 407 520 504 546 504 14 0 188 9
386 20 198 11 375 20 393 20 17 0 32 4 32 9 0 8 -294 322 -516 551 l-63 65
-17 423 c-12 276 -22 422 -29 422 -5 -1 -146 -133 -312 -295z"/>
<path d="M4131 17639 c-9 -26 -85 -239 -183 -512 -50 -141 -66 -176 -78 -171
-142 63 -372 117 -580 135 -368 32 -871 -31 -1274 -161 -275 -88 -457 -161
-711 -286 -477 -234 -916 -563 -1233 -923 l-72 -81 0 -775 c0 -426 3 -775 6
-775 3 0 18 7 32 15 15 8 70 34 122 59 559 260 675 318 674 331 -1 6 -177 73
-390 149 -214 76 -390 140 -392 141 -7 6 50 159 83 227 86 173 272 416 442
579 152 144 256 227 472 380 142 100 512 301 696 378 527 222 1073 327 1510
290 179 -15 447 -81 468 -116 3 -5 -17 -72 -45 -148 -27 -77 -72 -201 -98
-275 -27 -74 -66 -186 -89 -248 -32 -89 -38 -114 -27 -118 8 -3 52 12 98 34
171 81 275 130 343 162 39 18 139 66 224 106 84 41 155 74 157 74 1 0 54 24
116 54 62 30 170 81 241 115 77 37 127 66 127 75 0 8 -26 70 -59 138 -78 163
-130 275 -179 378 -22 47 -72 152 -111 233 -39 81 -71 150 -71 151 0 2 -31 68
-69 147 -37 79 -78 165 -89 190 -12 25 -28 51 -36 58 -13 11 -17 9 -25 -10z"/>
<path d="M1809 15604 c-197 -67 -323 -263 -300 -464 5 -41 12 -84 16 -95 16
-40 82 -185 189 -409 36 -76 66 -140 66 -141 0 -1 36 -78 81 -171 45 -93 94
-196 109 -229 15 -33 49 -104 74 -157 99 -209 139 -296 171 -363 18 -38 61
-128 95 -200 34 -71 90 -191 125 -265 60 -128 127 -271 215 -454 168 -355 210
-445 210 -455 0 -5 -15 -12 -32 -16 -18 -3 -97 -22 -175 -41 -79 -19 -207 -49
-286 -68 -78 -19 -182 -44 -232 -56 -49 -12 -130 -31 -180 -42 -149 -33 -220
-77 -267 -165 -34 -61 -140 -363 -134 -379 2 -6 24 -18 48 -27 165 -58 337
-120 418 -150 52 -19 167 -61 255 -92 184 -66 251 -90 810 -290 232 -83 437
-151 472 -156 86 -12 192 9 301 62 78 38 147 70 337 159 33 15 114 54 180 85
66 32 153 73 194 92 40 19 126 59 190 90 64 30 145 68 179 84 35 16 110 51
165 78 56 27 127 60 157 74 30 13 111 52 180 85 69 32 143 68 165 78 22 10 66
44 98 76 79 79 115 159 123 276 7 102 14 72 -114 492 -11 36 -46 146 -77 245
-63 202 -90 289 -110 355 -7 25 -22 74 -33 110 -11 36 -35 112 -52 170 -17 58
-35 114 -40 125 -4 11 -22 66 -40 122 -50 163 -142 263 -285 311 -67 23 -142
26 -745 37 -184 4 -389 8 -455 10 -260 8 -474 6 -516 -5 -46 -12 -55 -15 -179
-74 -41 -19 -78 -32 -83 -29 -4 2 -23 37 -41 76 -19 40 -57 122 -86 182 -29
61 -67 142 -85 180 -36 77 -105 221 -185 390 -29 61 -65 137 -80 170 -15 33
-49 105 -75 160 -26 55 -67 141 -90 190 -141 302 -175 348 -310 412 -67 31
-88 36 -168 40 -79 3 -102 0 -168 -23z"/>
<path d="M38064 12869 c-3 -6 -52 -299 -109 -652 -57 -353 -152 -939 -211
-1302 -119 -733 -124 -789 -85 -910 12 -38 35 -92 50 -120 47 -83 1379 -1926
1435 -1984 62 -65 159 -129 246 -164 185 -73 418 -57 583 39 31 18 493 347
1025 730 646 466 989 719 1033 763 134 134 194 332 155 506 -14 62 -57 255
-120 545 -20 91 -50 226 -66 300 -17 74 -46 207 -65 295 -19 88 -51 232 -70
320 -19 88 -48 221 -65 295 -47 219 -51 227 -211 451 -169 235 -231 290 -394
344 -156 53 -352 29 -489 -59 -29 -19 -337 -239 -685 -490 -348 -251 -635
-456 -637 -456 -5 0 -26 44 -191 405 -58 127 -143 311 -188 410 -45 99 -95
207 -110 240 -128 282 -137 293 -270 356 -116 54 -214 85 -366 114 -186 35
-187 36 -195 24z m513 -1229 c39 -85 87 -189 106 -230 19 -41 45 -97 57 -125
109 -238 161 -333 210 -383 113 -116 234 -171 398 -179 126 -7 198 7 295 57
40 20 365 248 723 507 l652 470 90 -126 89 -126 52 -240 c29 -132 59 -267 66
-300 14 -58 55 -244 150 -682 25 -115 49 -226 55 -248 13 -52 72 -326 73 -344
2 -15 -1900 -1395 -1933 -1404 -9 -2 -31 1 -50 7 -28 10 -123 135 -706 945
-371 514 -674 939 -674 946 0 6 16 106 35 221 19 115 72 448 119 739 47 292
90 557 96 590 5 33 10 64 10 70 0 20 20 -16 87 -165z"/>
<path d="M37009 9571 c-56 -12 -94 -35 -345 -216 -175 -126 -234 -174 -231
-186 3 -13 1541 -2153 1829 -2547 35 -47 41 -51 60 -41 60 32 483 347 513 382
75 87 88 239 29 333 -29 47 -1508 2101 -1566 2176 -55 71 -195 119 -289 99z"/>
</g>
</svg>
