<?xml version="1.0" encoding="UTF-8"?>
<!DOCTYPE svg PUBLIC "-//W3C//DTD SVG 1.1//EN" "http://www.w3.org/Graphics/SVG/1.1/DTD/svg11.dtd">
<svg xmlns="http://www.w3.org/2000/svg" version="1.1" width="4822px" height="3613px" style="shape-rendering:geometricPrecision; text-rendering:geometricPrecision; image-rendering:optimizeQuality; fill-rule:evenodd; clip-rule:evenodd" xmlns:xlink="http://www.w3.org/1999/xlink">
<g><path style="opacity:0.192" fill="#ededed" d="M -0.5,-0.5 C 126.167,-0.5 252.833,-0.5 379.5,-0.5C 382.5,2.83333 385.5,6.16667 388.5,9.5C 389.353,13.0204 391.353,15.6871 394.5,17.5C 395.833,18.1667 396.833,19.1667 397.5,20.5C 398.41,24.0651 400.41,26.7317 403.5,28.5C 408.898,34.947 413.564,41.947 417.5,49.5C 417.031,52.3933 418.031,54.3933 420.5,55.5C 421.674,56.5137 422.34,57.847 422.5,59.5C 422.584,62.6817 423.917,65.015 426.5,66.5C 426.5,66.8333 426.5,67.1667 426.5,67.5C 426.031,70.3933 427.031,72.3933 429.5,73.5C 431.229,77.0205 432.562,80.6872 433.5,84.5C 433.179,87.5769 434.179,89.9103 436.5,91.5C 436.5,91.8333 436.5,92.1667 436.5,92.5C 436.149,96.1587 437.149,99.1587 439.5,101.5C 440.774,103.993 441.44,106.659 441.5,109.5C 441.337,111.857 441.503,114.19 442,116.5C 442.383,117.056 442.883,117.389 443.5,117.5C 446.611,129.256 448.277,141.256 448.5,153.5C 447.505,165.655 447.171,177.989 447.5,190.5C 446.892,202.761 444.892,214.761 441.5,226.5C 439.692,227.918 439.025,229.918 439.5,232.5C 439.5,232.833 439.5,233.167 439.5,233.5C 436.827,236.849 435.494,240.849 435.5,245.5C 434.354,250.438 432.687,255.105 430.5,259.5C 428.824,260.183 428.157,261.517 428.5,263.5C 428.107,265.284 427.441,266.95 426.5,268.5C 423.5,268.5 420.5,268.5 417.5,268.5C 411.721,267.97 406.054,266.97 400.5,265.5C 399.082,263.692 397.082,263.025 394.5,263.5C 392.708,263.634 391.042,263.301 389.5,262.5C 384.384,259.466 378.718,257.8 372.5,257.5C 368.653,257.106 364.986,256.106 361.5,254.5C 359.159,252.149 356.159,251.149 352.5,251.5C 350.214,251.405 348.214,250.738 346.5,249.5C 343.509,246.611 339.842,245.278 335.5,245.5C 328.339,243.225 321.339,240.558 314.5,237.5C 313.393,235.031 311.393,234.031 308.5,234.5C 304.937,233.718 301.603,232.384 298.5,230.5C 297.817,228.824 296.483,228.157 294.5,228.5C 286.182,225.008 278.182,221.008 270.5,216.5C 269.7,214.259 268.034,213.259 265.5,213.5C 263.181,213.008 261.181,212.008 259.5,210.5C 259.179,208.952 258.179,208.285 256.5,208.5C 254.847,208.34 253.514,207.674 252.5,206.5C 251.952,203.916 250.285,202.916 247.5,203.5C 245.632,202.737 243.965,201.737 242.5,200.5C 241.337,198.018 239.337,196.684 236.5,196.5C 233.489,195.331 230.822,193.664 228.5,191.5C 228.179,189.952 227.179,189.285 225.5,189.5C 224.29,189.068 223.29,188.401 222.5,187.5C 222.179,185.952 221.179,185.285 219.5,185.5C 217.77,184.974 216.436,183.974 215.5,182.5C 214.008,179.677 211.674,178.01 208.5,177.5C 206.973,177.573 205.973,176.906 205.5,175.5C 203.732,172.41 201.065,170.41 197.5,169.5C 196.461,167.469 194.795,166.136 192.5,165.5C 188.873,163.206 185.539,160.54 182.5,157.5C 182.179,155.952 181.179,155.285 179.5,155.5C 177.833,154.5 176.5,153.167 175.5,151.5C 172.71,147.372 169.043,144.372 164.5,142.5C 148.833,128.833 134.167,114.167 120.5,98.5C 120.912,96.0274 119.912,94.6941 117.5,94.5C 117.167,94.5 116.833,94.5 116.5,94.5C 116.5,94.8333 116.5,95.1667 116.5,95.5C 116.5,96.1667 116.833,96.5 117.5,96.5C 117.5,97.1667 117.833,97.5 118.5,97.5C 118.5,98.1667 118.5,98.8333 118.5,99.5C 119.65,103.343 121.317,107.01 123.5,110.5C 123.957,111.298 124.624,111.631 125.5,111.5C 125.679,115.209 127.346,117.876 130.5,119.5C 132.89,122.566 134.89,125.9 136.5,129.5C 136.285,131.179 136.952,132.179 138.5,132.5C 146.488,143.796 154.488,155.129 162.5,166.5C 162.427,168.027 163.094,169.027 164.5,169.5C 176.138,182.808 187.804,196.141 199.5,209.5C 199.731,212.063 201.065,213.73 203.5,214.5C 207.88,221.214 213.547,226.548 220.5,230.5C 225.526,235.195 230.526,239.861 235.5,244.5C 236.268,247.562 238.268,249.228 241.5,249.5C 249.149,255.152 256.482,261.152 263.5,267.5C 263.967,270.297 265.633,271.631 268.5,271.5C 268.821,273.048 269.821,273.715 271.5,273.5C 279.167,278.833 286.833,284.167 294.5,289.5C 294.414,290.496 294.748,291.329 295.5,292C 297.217,293.559 299.217,294.392 301.5,294.5C 303.434,295.11 305.101,296.11 306.5,297.5C 307.3,299.741 308.966,300.741 311.5,300.5C 312.71,300.932 313.71,301.599 314.5,302.5C 315.3,304.741 316.966,305.741 319.5,305.5C 320.985,308.083 323.318,309.416 326.5,309.5C 326.833,309.5 327.167,309.5 327.5,309.5C 328.392,312.292 330.392,313.625 333.5,313.5C 333.833,313.5 334.167,313.5 334.5,313.5C 334.414,314.496 334.748,315.329 335.5,316C 338.022,317.341 340.689,318.174 343.5,318.5C 346.866,321.7 350.866,324.2 355.5,326C 356.793,326.49 358.127,326.657 359.5,326.5C 361.249,329.375 363.915,330.708 367.5,330.5C 369.764,333.126 372.764,334.459 376.5,334.5C 376.5,335.833 376.5,337.167 376.5,338.5C 365.074,349.373 352.74,359.04 339.5,367.5C 336.966,367.259 335.3,368.259 334.5,370.5C 331.318,370.584 328.985,371.917 327.5,374.5C 320.082,377.373 312.749,380.54 305.5,384C 304.244,384.417 303.577,385.25 303.5,386.5C 300.993,387.892 298.327,388.892 295.5,389.5C 292.083,389.023 289.416,390.023 287.5,392.5C 287.167,392.5 286.833,392.5 286.5,392.5C 282.841,392.149 279.841,393.149 277.5,395.5C 277.167,395.5 276.833,395.5 276.5,395.5C 272.396,395.534 268.396,396.201 264.5,397.5C 262.97,397.64 261.97,398.307 261.5,399.5C 257.317,400.907 252.984,401.574 248.5,401.5C 244.818,401.335 241.152,401.501 237.5,402C 236.584,402.278 235.918,402.778 235.5,403.5C 214.735,406.057 194.068,405.39 173.5,401.5C 173.389,400.883 173.056,400.383 172.5,400C 169.854,399.503 167.187,399.336 164.5,399.5C 161.012,399.46 157.679,398.793 154.5,397.5C 154.209,396.351 153.376,395.684 152,395.5C 149.538,394.841 147.038,394.507 144.5,394.5C 144.167,394.5 143.833,394.5 143.5,394.5C 141.584,392.023 138.917,391.023 135.5,391.5C 135.167,391.5 134.833,391.5 134.5,391.5C 133.448,389.744 131.781,389.077 129.5,389.5C 116.018,385.091 103.351,379.091 91.5,371.5C 90.3373,369.018 88.3373,367.684 85.5,367.5C 80.2185,364.855 75.2185,361.688 70.5,358C 69.2899,356.961 68.2899,355.794 67.5,354.5C 67.0269,353.094 66.0269,352.427 64.5,352.5C 63.8333,352.5 63.5,352.167 63.5,351.5C 63.3059,349.088 61.9726,348.088 59.5,348.5C 51.8681,342.536 44.8681,335.869 38.5,328.5C 38.3304,325.796 36.9971,324.129 34.5,323.5C 33.5,323.167 32.8333,322.5 32.5,321.5C 32.7148,319.821 32.0481,318.821 30.5,318.5C 25.0932,312.753 20.4265,306.42 16.5,299.5C 16.321,295.791 14.6543,293.124 11.5,291.5C 11.7409,288.966 10.7409,287.3 8.5,286.5C 5.24845,281.666 2.24845,276.666 -0.5,271.5C -0.5,180.833 -0.5,90.1667 -0.5,-0.5 Z"/></g>
<g><path style="opacity:0.188" fill="#fefffe" d="M 2783.5,3.5 C 2866.66,2.50067 2950,2.16734 3033.5,2.5C 3033.08,9.2837 3033.58,15.9504 3035,22.5C 3069.34,57.8374 3103.34,93.5041 3137,129.5C 3137.48,130.448 3137.65,131.448 3137.5,132.5C 3088.31,134.835 3039.14,137.501 2990,140.5C 2989.13,140.265 2988.29,139.931 2987.5,139.5C 2951.19,175.142 2914.52,210.475 2877.5,245.5C 2876.75,244.624 2876.25,243.624 2876,242.5C 2873.65,192.91 2871.82,143.41 2870.5,94C 2841.61,63.608 2812.61,33.4413 2783.5,3.5 Z"/></g>
<g><path style="opacity:0.18" fill="#fefffe" d="M 3205.5,3.5 C 3244.66,2.33546 3284,2.16879 3323.5,3C 3330.05,9.04945 3336.05,15.5494 3341.5,22.5C 3340.27,23.2811 3338.94,23.7811 3337.5,24C 3313.48,25.0167 3289.48,26.3501 3265.5,28C 3247.6,45.5729 3229.43,62.7396 3211,79.5C 3210.23,79.3552 3209.56,79.0219 3209,78.5C 3208.11,53.328 3206.94,28.328 3205.5,3.5 Z"/></g>
<g><path style="opacity:0.132" fill="#f4f4f4" d="M 388.5,9.5 C 390.878,11.8785 392.878,14.5451 394.5,17.5C 391.353,15.6871 389.353,13.0204 388.5,9.5 Z"/></g>
<g><path style="opacity:0.121" fill="#f2f2f2" d="M 397.5,20.5 C 399.853,22.8599 401.853,25.5265 403.5,28.5C 400.41,26.7317 398.41,24.0651 397.5,20.5 Z"/></g>
<g><path style="opacity:0.139" fill="#f4f4f4" d="M 417.5,49.5 C 419.008,51.1815 420.008,53.1815 420.5,55.5C 418.031,54.3933 417.031,52.3933 417.5,49.5 Z"/></g>
<g><path style="opacity:0.127" fill="#f3f3f3" d="M 422.5,59.5 C 424.071,61.6351 425.404,63.9684 426.5,66.5C 423.917,65.015 422.584,62.6817 422.5,59.5 Z"/></g>
<g><path style="opacity:0.138" fill="#f3f3f3" d="M 426.5,67.5 C 428.008,69.1815 429.008,71.1815 429.5,73.5C 427.031,72.3933 426.031,70.3933 426.5,67.5 Z"/></g>
<g><path style="opacity:0.127" fill="#f3f3f3" d="M 433.5,84.5 C 435.065,86.5093 436.065,88.8427 436.5,91.5C 434.179,89.9103 433.179,87.5769 433.5,84.5 Z"/></g>
<g><path style="opacity:0.049" fill="#f8f8f8" d="M 116.5,94.5 C 114.915,93.9976 114.415,92.9976 115,91.5C 116.039,92.2438 116.539,93.2438 116.5,94.5 Z"/></g>
<g><path style="opacity:0.144" fill="#f5f5f5" d="M 117.5,94.5 C 119.912,94.6941 120.912,96.0274 120.5,98.5C 119.833,98.1667 119.167,97.8333 118.5,97.5C 117.833,97.5 117.5,97.1667 117.5,96.5C 116.833,96.5 116.5,96.1667 116.5,95.5C 117.167,95.5 117.5,95.1667 117.5,94.5 Z"/></g>
<g><path style="opacity:0.115" fill="#f3f3f3" d="M 436.5,92.5 C 438.072,95.2154 439.072,98.2154 439.5,101.5C 437.149,99.1587 436.149,96.1587 436.5,92.5 Z"/></g>
<g><path style="opacity:0.125" fill="#f3f3f3" d="M 118.5,99.5 C 121.335,103.164 123.668,107.164 125.5,111.5C 124.624,111.631 123.957,111.298 123.5,110.5C 121.317,107.01 119.65,103.343 118.5,99.5 Z"/></g>
<g><path style="opacity:0.115" fill="#f4f4f4" d="M 441.5,109.5 C 442.768,111.905 443.435,114.572 443.5,117.5C 442.883,117.389 442.383,117.056 442,116.5C 441.503,114.19 441.337,111.857 441.5,109.5 Z"/></g>
<g><path style="opacity:0.125" fill="#f3f3f3" d="M 125.5,111.5 C 127.653,113.794 129.32,116.46 130.5,119.5C 127.346,117.876 125.679,115.209 125.5,111.5 Z"/></g>
<g><path style="opacity:0.047" fill="#f5f5f5" d="M 136.5,129.5 C 137.906,129.973 138.573,130.973 138.5,132.5C 136.952,132.179 136.285,131.179 136.5,129.5 Z"/></g>
<g><path style="opacity:0.132" fill="#f3f3f3" d="M 164.5,142.5 C 169.043,144.372 172.71,147.372 175.5,151.5C 171.537,148.871 167.871,145.871 164.5,142.5 Z"/></g>
<g><path style="opacity:0.123" fill="#f4f4f4" d="M 448.5,153.5 C 449.378,162.188 449.711,171.021 449.5,180C 448.865,183.603 448.198,187.103 447.5,190.5C 447.171,177.989 447.505,165.655 448.5,153.5 Z"/></g>
<g><path style="opacity:0.086" fill="#f6f6f6" d="M 179.5,155.5 C 181.179,155.285 182.179,155.952 182.5,157.5C 180.973,157.573 179.973,156.906 179.5,155.5 Z"/></g>
<g><path style="opacity:0.149" fill="#f4f4f4" d="M 192.5,165.5 C 194.795,166.136 196.461,167.469 197.5,169.5C 195.246,168.876 193.579,167.543 192.5,165.5 Z"/></g>
<g><path style="opacity:0.106" fill="#f6f6f6" d="M 162.5,166.5 C 163.906,166.973 164.573,167.973 164.5,169.5C 163.094,169.027 162.427,168.027 162.5,166.5 Z"/></g>
<g><path style="opacity:0.123" fill="#f2f2f2" d="M 197.5,169.5 C 201.065,170.41 203.732,172.41 205.5,175.5C 202.527,173.853 199.86,171.853 197.5,169.5 Z"/></g>
<g><path style="opacity:0.139" fill="#f3f3f3" d="M 208.5,177.5 C 211.674,178.01 214.008,179.677 215.5,182.5C 212.883,181.214 210.55,179.547 208.5,177.5 Z"/></g>
<g><path style="opacity:0.055" fill="#f6f6f6" d="M 219.5,185.5 C 221.179,185.285 222.179,185.952 222.5,187.5C 220.973,187.573 219.973,186.906 219.5,185.5 Z"/></g>
<g><path style="opacity:0.055" fill="#f6f6f6" d="M 225.5,189.5 C 227.179,189.285 228.179,189.952 228.5,191.5C 226.973,191.573 225.973,190.906 225.5,189.5 Z"/></g>
<g><path style="opacity:0.141" fill="#f4f4f4" d="M 236.5,196.5 C 239.337,196.684 241.337,198.018 242.5,200.5C 240.205,199.525 238.205,198.192 236.5,196.5 Z"/></g>
<g><path style="opacity:0.148" fill="#f5f5f5" d="M 247.5,203.5 C 250.285,202.916 251.952,203.916 252.5,206.5C 250.566,205.89 248.899,204.89 247.5,203.5 Z"/></g>
<g><path style="opacity:0.131" fill="#f5f5f5" d="M 256.5,208.5 C 258.179,208.285 259.179,208.952 259.5,210.5C 258.29,210.068 257.29,209.401 256.5,208.5 Z"/></g>
<g><path style="opacity:0.078" fill="#f7f7f7" d="M 199.5,209.5 C 201.587,210.585 202.92,212.251 203.5,214.5C 201.065,213.73 199.731,212.063 199.5,209.5 Z"/></g>
<g><path style="opacity:0.125" fill="#f5f5f5" d="M 265.5,213.5 C 268.034,213.259 269.7,214.259 270.5,216.5C 268.566,215.89 266.899,214.89 265.5,213.5 Z"/></g>
<g><path style="opacity:0.115" fill="#f2f2f2" d="M 203.5,214.5 C 209.193,219.861 214.86,225.195 220.5,230.5C 213.547,226.548 207.88,221.214 203.5,214.5 Z"/></g>
<g><path style="opacity:0.182" fill="#fefffe" d="M 3153.5,218.5 C 3154.5,218.414 3155.33,218.748 3156,219.5C 3157.8,244.806 3159.13,270.139 3160,295.5C 3177.56,313.391 3194.73,331.557 3211.5,350C 3185.97,352.521 3160.31,354.521 3134.5,356C 3116.86,372.638 3099.53,389.638 3082.5,407C 3081.21,407.49 3079.87,407.657 3078.5,407.5C 3078.14,382.153 3077.31,356.82 3076,331.5C 3059.31,313.145 3042.31,295.145 3025,277.5C 3024.52,276.552 3024.35,275.552 3024.5,274.5C 3050.01,273.516 3075.35,272.349 3100.5,271C 3118.09,253.244 3135.76,235.744 3153.5,218.5 Z"/></g>
<g><path style="opacity:0.144" fill="#f4f4f4" d="M 441.5,226.5 C 441.405,228.786 440.738,230.786 439.5,232.5C 439.025,229.918 439.692,227.918 441.5,226.5 Z"/></g>
<g><path style="opacity:0.131" fill="#f6f6f6" d="M 294.5,228.5 C 296.483,228.157 297.817,228.824 298.5,230.5C 296.847,230.34 295.514,229.674 294.5,228.5 Z"/></g>
<g><path style="opacity:0.151" fill="#f4f4f4" d="M 308.5,234.5 C 311.393,234.031 313.393,235.031 314.5,237.5C 312.181,237.008 310.181,236.008 308.5,234.5 Z"/></g>
<g><path style="opacity:0.142" fill="#f4f4f4" d="M 439.5,233.5 C 438.765,237.805 437.432,241.805 435.5,245.5C 435.494,240.849 436.827,236.849 439.5,233.5 Z"/></g>
<g><path style="opacity:0.127" fill="#f3f3f3" d="M 235.5,244.5 C 237.54,246.177 239.54,247.844 241.5,249.5C 238.268,249.228 236.268,247.562 235.5,244.5 Z"/></g>
<g><path style="opacity:0.135" fill="#f4f4f4" d="M 335.5,245.5 C 339.842,245.278 343.509,246.611 346.5,249.5C 342.468,248.918 338.801,247.584 335.5,245.5 Z"/></g>
<g><path style="opacity:0.135" fill="#f3f3f3" d="M 352.5,251.5 C 356.159,251.149 359.159,252.149 361.5,254.5C 358.215,254.072 355.215,253.072 352.5,251.5 Z"/></g>
<g><path style="opacity:0.128" fill="#f3f3f3" d="M 372.5,257.5 C 378.718,257.8 384.384,259.466 389.5,262.5C 383.507,261.589 377.84,259.923 372.5,257.5 Z"/></g>
<g><path style="opacity:0.149" fill="#f5f5f5" d="M 430.5,259.5 C 430.34,261.153 429.674,262.486 428.5,263.5C 428.157,261.517 428.824,260.183 430.5,259.5 Z"/></g>
<g><path style="opacity:0.136" fill="#f4f4f4" d="M 394.5,263.5 C 397.082,263.025 399.082,263.692 400.5,265.5C 398.302,265.125 396.302,264.458 394.5,263.5 Z"/></g>
<g><path style="opacity:0.133" fill="#f3f3f3" d="M 417.5,268.5 C 420.5,268.5 423.5,268.5 426.5,268.5C 426.209,269.649 425.376,270.316 424,270.5C 421.6,270.198 419.434,269.532 417.5,268.5 Z"/></g>
<g><path style="opacity:0.146" fill="#f3f3f3" d="M 263.5,267.5 C 265.389,268.604 267.055,269.937 268.5,271.5C 265.633,271.631 263.967,270.297 263.5,267.5 Z"/></g>
<g><path style="opacity:0.133" fill="#f6f6f6" d="M 268.5,271.5 C 270.027,271.427 271.027,272.094 271.5,273.5C 269.821,273.715 268.821,273.048 268.5,271.5 Z"/></g>
<g><path style="opacity:0.151" fill="#f4f4f4" d="M 8.5,286.5 C 10.7409,287.3 11.7409,288.966 11.5,291.5C 10.1103,290.101 9.11028,288.434 8.5,286.5 Z"/></g>
<g><path style="opacity:0.131" fill="#f3f3f3" d="M 294.5,289.5 C 297.135,290.811 299.469,292.478 301.5,294.5C 299.217,294.392 297.217,293.559 295.5,292C 294.748,291.329 294.414,290.496 294.5,289.5 Z"/></g>
<g><path style="opacity:0.139" fill="#f3f3f3" d="M 11.5,291.5 C 14.6543,293.124 16.321,295.791 16.5,299.5C 14.336,297.178 12.6693,294.511 11.5,291.5 Z"/></g>
<g><path style="opacity:0.141" fill="#f4f4f4" d="M 306.5,297.5 C 308.434,298.11 310.101,299.11 311.5,300.5C 308.966,300.741 307.3,299.741 306.5,297.5 Z"/></g>
<g><path style="opacity:0.153" fill="#f3f3f3" d="M 314.5,302.5 C 316.434,303.11 318.101,304.11 319.5,305.5C 316.966,305.741 315.3,304.741 314.5,302.5 Z"/></g>
<g><path style="opacity:0.12" fill="#f3f3f3" d="M 319.5,305.5 C 322.331,306.079 324.664,307.412 326.5,309.5C 323.318,309.416 320.985,308.083 319.5,305.5 Z"/></g>
<g><path style="opacity:0.131" fill="#f3f3f3" d="M 327.5,309.5 C 329.537,310.846 331.537,312.18 333.5,313.5C 330.392,313.625 328.392,312.292 327.5,309.5 Z"/></g>
<g><path style="opacity:0.157" fill="#f5f5f5" d="M 334.5,313.5 C 337.696,314.929 340.696,316.595 343.5,318.5C 340.689,318.174 338.022,317.341 335.5,316C 334.748,315.329 334.414,314.496 334.5,313.5 Z"/></g>
<g><path style="opacity:0.143" fill="#f5f5f5" d="M 30.5,318.5 C 32.0481,318.821 32.7148,319.821 32.5,321.5C 31.0937,321.027 30.427,320.027 30.5,318.5 Z"/></g>
<g><path style="opacity:0.128" fill="#f3f3f3" d="M 34.5,323.5 C 36.9971,324.129 38.3304,325.796 38.5,328.5C 36.9373,327.055 35.604,325.389 34.5,323.5 Z"/></g>
<g><path style="opacity:0.122" fill="#f3f3f3" d="M 343.5,318.5 C 348.872,321.186 354.205,323.853 359.5,326.5C 358.127,326.657 356.793,326.49 355.5,326C 350.866,324.2 346.866,321.7 343.5,318.5 Z"/></g>
<g><path style="opacity:0.141" fill="#f4f4f4" d="M 359.5,326.5 C 362.485,327.326 365.151,328.659 367.5,330.5C 363.915,330.708 361.249,329.375 359.5,326.5 Z"/></g>
<g><path style="opacity:0.12" fill="#f4f4f4" d="M 367.5,330.5 C 370.686,331.597 373.686,332.93 376.5,334.5C 372.764,334.459 369.764,333.126 367.5,330.5 Z"/></g>
<g><path style="opacity:0.047" fill="#f6f6f6" d="M 376.5,334.5 C 379.022,335.665 379.022,336.998 376.5,338.5C 376.5,337.167 376.5,335.833 376.5,334.5 Z"/></g>
<g><path style="opacity:0.149" fill="#f4f4f4" d="M 59.5,348.5 C 61.9726,348.088 63.3059,349.088 63.5,351.5C 61.5956,351.262 60.2623,350.262 59.5,348.5 Z"/></g>
<g><path style="opacity:0.137" fill="#f5f5f5" d="M 64.5,352.5 C 66.0269,352.427 67.0269,353.094 67.5,354.5C 65.9731,354.573 64.9731,353.906 64.5,352.5 Z"/></g>
<g><path style="opacity:0.143" fill="#f4f4f4" d="M 85.5,367.5 C 88.3373,367.684 90.3373,369.018 91.5,371.5C 89.2228,370.551 87.2228,369.218 85.5,367.5 Z"/></g>
<g><path style="opacity:0.151" fill="#f4f4f4" d="M 339.5,367.5 C 338.101,368.89 336.434,369.89 334.5,370.5C 335.3,368.259 336.966,367.259 339.5,367.5 Z"/></g>
<g><path style="opacity:0.149" fill="#f3f3f3" d="M 334.5,370.5 C 332.664,372.588 330.331,373.921 327.5,374.5C 328.985,371.917 331.318,370.584 334.5,370.5 Z"/></g>
<g><path style="opacity:0.131" fill="#f2f2f2" d="M 327.5,374.5 C 319.818,379.008 311.818,383.008 303.5,386.5C 303.577,385.25 304.244,384.417 305.5,384C 312.749,380.54 320.082,377.373 327.5,374.5 Z"/></g>
<g><path style="opacity:0.145" fill="#f5f5f5" d="M 129.5,389.5 C 131.781,389.077 133.448,389.744 134.5,391.5C 132.447,391.598 130.78,390.931 129.5,389.5 Z"/></g>
<g><path style="opacity:0.14" fill="#f3f3f3" d="M 295.5,389.5 C 293.064,390.871 290.397,391.871 287.5,392.5C 289.416,390.023 292.083,389.023 295.5,389.5 Z"/></g>
<g><path style="opacity:0.149" fill="#f3f3f3" d="M 135.5,391.5 C 138.917,391.023 141.584,392.023 143.5,394.5C 140.514,394.097 137.848,393.097 135.5,391.5 Z"/></g>
<g><path style="opacity:0.118" fill="#f3f3f3" d="M 286.5,392.5 C 283.785,394.072 280.785,395.072 277.5,395.5C 279.841,393.149 282.841,392.149 286.5,392.5 Z"/></g>
<g><path style="opacity:0.146" fill="#f3f3f3" d="M 144.5,394.5 C 147.038,394.507 149.538,394.841 152,395.5C 153.376,395.684 154.209,396.351 154.5,397.5C 150.884,397.101 147.55,396.101 144.5,394.5 Z"/></g>
<g><path style="opacity:0.141" fill="#f3f3f3" d="M 276.5,395.5 C 271.739,397.326 266.739,398.659 261.5,399.5C 261.97,398.307 262.97,397.64 264.5,397.5C 268.396,396.201 272.396,395.534 276.5,395.5 Z"/></g>
<g><path style="opacity:0.11" fill="#f4f4f4" d="M 164.5,399.5 C 167.187,399.336 169.854,399.503 172.5,400C 173.056,400.383 173.389,400.883 173.5,401.5C 170.273,401.324 167.273,400.657 164.5,399.5 Z"/></g>
<g><path style="opacity:0.107" fill="#f4f4f4" d="M 248.5,401.5 C 244.433,403.054 240.1,403.72 235.5,403.5C 235.918,402.778 236.584,402.278 237.5,402C 241.152,401.501 244.818,401.335 248.5,401.5 Z"/></g>
<g><path style="opacity:0.183" fill="#fefffe" d="M 356.5,3062.5 C 357.675,3062.28 358.675,3062.61 359.5,3063.5C 376.075,3098.02 392.575,3132.69 409,3167.5C 410.904,3170.92 411.737,3174.59 411.5,3178.5C 373.71,3195.56 336.044,3212.89 298.5,3230.5C 297.833,3230.17 297.167,3229.83 296.5,3229.5C 304.795,3207.45 312.795,3185.28 320.5,3163C 320.355,3162.23 320.022,3161.56 319.5,3161C 308.373,3155.98 296.706,3152.98 284.5,3152C 249.591,3149.74 215.258,3154.08 181.5,3165C 133.85,3180.96 91.1837,3205.29 53.5,3238C 33.3217,3256.17 17.8217,3277.67 7,3302.5C 6.33333,3277.83 6.33333,3253.17 7,3228.5C 22.9544,3210.88 40.4544,3195.04 59.5,3181C 112.76,3143.89 171.76,3120.89 236.5,3112C 263.803,3108.9 290.803,3110.57 317.5,3117C 323.096,3118.98 328.596,3121.14 334,3123.5C 341.957,3103.34 349.457,3083.01 356.5,3062.5 Z"/></g>
<g><path style="opacity:0.187" fill="#fefffe" d="M 3127.5,3612.5 C 3088.17,3612.5 3048.83,3612.5 3009.5,3612.5C 2965.59,3551.02 2921.42,3489.69 2877,3428.5C 2867.06,3414.76 2863.06,3399.42 2865,3382.5C 2879,3295.83 2893,3209.17 2907,3122.5C 2908.01,3121.34 2909.34,3120.68 2911,3120.5C 2927.27,3122.53 2943.1,3126.36 2958.5,3132C 2968.54,3135.08 2976.38,3140.91 2982,3149.5C 3001.06,3191.95 3020.39,3234.29 3040,3276.5C 3085.22,3242.81 3131.05,3209.97 3177.5,3178C 3207.71,3166.68 3232.88,3173.51 3253,3198.5C 3258.61,3207.11 3264.61,3215.45 3271,3223.5C 3273,3227.5 3275,3231.5 3277,3235.5C 3291.98,3301.42 3306.65,3367.42 3321,3433.5C 3323.42,3455.48 3316.26,3473.65 3299.5,3488C 3241.92,3529.28 3184.59,3570.78 3127.5,3612.5 Z M 2950.5,3227.5 C 2962.47,3252.22 2973.97,3277.22 2985,3302.5C 3000.62,3331.05 3024.45,3341.89 3056.5,3335C 3061.4,3333.55 3066.07,3331.55 3070.5,3329C 3114.75,3297.29 3158.92,3265.46 3203,3233.5C 3209.25,3241.66 3215.25,3249.99 3221,3258.5C 3234,3317.83 3247,3377.16 3260,3436.5C 3260.8,3438.26 3260.63,3439.93 3259.5,3441.5C 3197.32,3486.09 3135.32,3530.92 3073.5,3576C 3069.59,3579.6 3065.26,3580.26 3060.5,3578C 3014.8,3515.43 2969.47,3452.6 2924.5,3389.5C 2933.82,3335.61 2942.48,3281.61 2950.5,3227.5 Z"/></g>
<g><path style="opacity:0.189" fill="#fefffe" d="M 429.5,3612.5 C 339.833,3612.5 250.167,3612.5 160.5,3612.5C 153.136,3609.21 145.469,3606.37 137.5,3604C 135.187,3603.36 133.52,3602.03 132.5,3600C 135.972,3588.56 140.138,3577.39 145,3566.5C 149.061,3561.1 154.228,3557.26 160.5,3555C 189.336,3548.61 218.003,3541.61 246.5,3534C 207.041,3452.24 168.208,3370.08 130,3287.5C 126.232,3266.87 133.399,3251.37 151.5,3241C 172.395,3233.38 189.228,3238.55 202,3256.5C 221.913,3297.24 241.246,3338.24 260,3379.5C 262.299,3384.42 264.966,3389.09 268,3393.5C 275.299,3389.87 282.799,3386.7 290.5,3384C 335.344,3383.76 379.844,3384.59 424,3386.5C 440.813,3386.08 453.146,3393.41 461,3408.5C 474.998,3453.83 488.998,3499.16 503,3544.5C 505.642,3559.91 501.142,3572.74 489.5,3583C 469.593,3593.12 449.593,3602.95 429.5,3612.5 Z"/></g>
<g><path style="opacity:0.179" fill="#fefffe" d="M 6.5,3311.5 C 28.2062,3319.96 50.2062,3327.62 72.5,3334.5C 72.7035,3336.39 72.0368,3337.89 70.5,3339C 49.3609,3348.67 28.3609,3358.5 7.5,3368.5C 6.50041,3349.51 6.16708,3330.51 6.5,3311.5 Z"/></g>
<g><path style="opacity:0.187" fill="#fefffe" d="M 2940.5,3612.5 C 2903.83,3612.5 2867.17,3612.5 2830.5,3612.5C 2801.14,3572.28 2772.14,3531.78 2743.5,3491C 2759.72,3478.21 2776.38,3465.87 2793.5,3454C 2809.44,3447.19 2822.94,3450.36 2834,3463.5C 2869.74,3513.06 2905.24,3562.73 2940.5,3612.5 Z"/></g>
</svg>
