<?xml version="1.0" encoding="UTF-8"?>
<!DOCTYPE svg PUBLIC "-//W3C//DTD SVG 1.1//EN" "http://www.w3.org/Graphics/SVG/1.1/DTD/svg11.dtd">
<svg xmlns="http://www.w3.org/2000/svg" version="1.1" width="4822px" height="3613px" style="shape-rendering:geometricPrecision; text-rendering:geometricPrecision; image-rendering:optimizeQuality; fill-rule:evenodd; clip-rule:evenodd" xmlns:xlink="http://www.w3.org/1999/xlink">
<g><path style="opacity:0.192" fill="#ededed" d="M -0.5,-0.5 C 126.167,-0.5 252.833,-0.5 379.5,-0.5C 421.464,42.1121 444.464,93.4455 448.5,153.5C 447.734,166.005 447.067,178.671 446.5,191.5C 446.507,193.369 446.84,195.036 447.5,196.5C 443.915,222.181 436.915,246.847 426.5,270.5C 304.299,247.167 201.799,189.5 119,97.5C 132.77,124.345 149.104,149.678 168,173.5C 224.952,243.955 294.785,297.622 377.5,334.5C 378.583,335.365 378.749,336.365 378,337.5C 311.815,398.08 234.982,417.58 147.5,396C 80.2808,375.603 30.9474,334.103 -0.5,271.5C -0.5,180.833 -0.5,90.1667 -0.5,-0.5 Z"/></g>
<g><path style="opacity:0.188" fill="#fefffe" d="M 2665.5,1.5 C 2748.66,0.500673 2832,0.167339 2915.5,0.5C 2915.08,7.2837 2915.58,13.9504 2917,20.5C 2951.34,55.8374 2985.34,91.5041 3019,127.5C 3019.48,128.448 3019.65,129.448 3019.5,130.5C 2970.31,132.835 2921.14,135.501 2872,138.5C 2871.13,138.265 2870.29,137.931 2869.5,137.5C 2833.19,173.142 2796.52,208.475 2759.5,243.5C 2758.75,242.624 2758.25,241.624 2758,240.5C 2755.65,190.91 2753.82,141.41 2752.5,92C 2723.61,61.608 2694.61,31.4413 2665.5,1.5 Z"/></g>
<g><path style="opacity:0.181" fill="#fefffe" d="M 3087.5,1.5 C 3126.66,0.335457 3166,0.16879 3205.5,1C 3206.33,1.83333 3207.17,2.66667 3208,3.5C 3208.5,9.82458 3208.67,16.1579 3208.5,22.5C 3188.15,23.3733 3167.82,24.5399 3147.5,26C 3129.6,43.5729 3111.43,60.7396 3093,77.5C 3092.23,77.3552 3091.56,77.0219 3091,76.5C 3090.11,51.328 3088.94,26.328 3087.5,1.5 Z"/></g>
<g><path style="opacity:0.189" fill="#ebebeb" d="M 4821.5,107.5 C 4821.5,137.167 4821.5,166.833 4821.5,196.5C 4790.68,199.903 4768.18,215.903 4754,244.5C 4742.1,276.24 4746.77,305.573 4768,332.5C 4782.81,347.849 4800.64,356.515 4821.5,358.5C 4821.5,378.167 4821.5,397.833 4821.5,417.5C 4799.17,409.836 4776.17,404.836 4752.5,402.5C 4751.56,402.608 4750.72,402.941 4750,403.5C 4746.67,402.833 4743.33,402.167 4740,401.5C 4731.95,402.547 4723.95,402.547 4716,401.5C 4709.32,402.787 4702.65,403.787 4696,404.5C 4674.93,405.617 4654.76,411.451 4635.5,422C 4624.98,428.561 4617.98,437.727 4614.5,449.5C 4646.06,528.381 4703.72,572.714 4787.5,582.5C 4795.65,581.688 4803.65,581.688 4811.5,582.5C 4814.86,581.832 4818.2,581.165 4821.5,580.5C 4821.5,607.167 4821.5,633.833 4821.5,660.5C 4731.85,665.248 4656.02,634.582 4594,568.5C 4537.4,501.433 4515.57,425.6 4528.5,341C 4543.65,254.08 4589.32,188.08 4665.5,143C 4715.12,116.135 4767.12,104.301 4821.5,107.5 Z"/></g>
<g><path style="opacity:0.123" fill="#f4f4f4" d="M 448.5,153.5 C 449.378,162.188 449.711,171.021 449.5,180C 448.474,185.414 447.808,190.914 447.5,196.5C 446.84,195.036 446.507,193.369 446.5,191.5C 447.067,178.671 447.734,166.005 448.5,153.5 Z"/></g>
<g><path style="opacity:0.182" fill="#fefffe" d="M 3035.5,216.5 C 3036.5,216.414 3037.33,216.748 3038,217.5C 3039.8,242.806 3041.13,268.139 3042,293.5C 3059.56,311.391 3076.73,329.557 3093.5,348C 3067.97,350.521 3042.31,352.521 3016.5,354C 2998.86,370.638 2981.53,387.638 2964.5,405C 2963.21,405.49 2961.87,405.657 2960.5,405.5C 2960.14,380.153 2959.31,354.82 2958,329.5C 2941.31,311.145 2924.31,293.145 2907,275.5C 2906.52,274.552 2906.35,273.552 2906.5,272.5C 2932.01,271.516 2957.35,270.349 2982.5,269C 3000.09,251.244 3017.76,233.744 3035.5,216.5 Z"/></g>
<g><path style="opacity:0.183" fill="#fefffe" d="M 356.5,3062.5 C 357.675,3062.28 358.675,3062.61 359.5,3063.5C 376.075,3098.02 392.575,3132.69 409,3167.5C 410.904,3170.92 411.737,3174.59 411.5,3178.5C 373.71,3195.56 336.044,3212.89 298.5,3230.5C 297.833,3230.17 297.167,3229.83 296.5,3229.5C 304.795,3207.45 312.795,3185.28 320.5,3163C 320.355,3162.23 320.022,3161.56 319.5,3161C 308.373,3155.98 296.706,3152.98 284.5,3152C 249.591,3149.74 215.258,3154.08 181.5,3165C 133.85,3180.96 91.1837,3205.29 53.5,3238C 33.3217,3256.17 17.8217,3277.67 7,3302.5C 6.33333,3277.83 6.33333,3253.17 7,3228.5C 22.9544,3210.88 40.4544,3195.04 59.5,3181C 112.76,3143.89 171.76,3120.89 236.5,3112C 263.803,3108.9 290.803,3110.57 317.5,3117C 323.096,3118.98 328.596,3121.14 334,3123.5C 341.957,3103.34 349.457,3083.01 356.5,3062.5 Z"/></g>
<g><path style="opacity:0.187" fill="#fefffe" d="M 4402.5,3118.5 C 4420.02,3119.96 4437.02,3123.8 4453.5,3130C 4463.54,3133.08 4471.38,3138.91 4477,3147.5C 4496.06,3189.95 4515.39,3232.29 4535,3274.5C 4580.22,3240.81 4626.05,3207.97 4672.5,3176C 4700.46,3165.2 4724.63,3170.7 4745,3192.5C 4751.76,3202.34 4758.76,3212.01 4766,3221.5C 4770.4,3228.63 4773.4,3236.3 4775,3244.5C 4788.67,3306.83 4802.33,3369.17 4816,3431.5C 4818.42,3453.48 4811.26,3471.65 4794.5,3486C 4738.22,3525.95 4682.22,3566.28 4626.5,3607C 4585.17,3607.67 4543.83,3607.67 4502.5,3607C 4459,3546.83 4415.5,3486.67 4372,3426.5C 4362.06,3412.76 4358.06,3397.42 4360,3380.5C 4374.03,3293.12 4388.2,3205.79 4402.5,3118.5 Z M 4445.5,3225.5 C 4457.47,3250.22 4468.97,3275.22 4480,3300.5C 4495.62,3329.05 4519.45,3339.89 4551.5,3333C 4556.4,3331.55 4561.07,3329.55 4565.5,3327C 4609.75,3295.29 4653.92,3263.46 4698,3231.5C 4704.25,3239.66 4710.25,3247.99 4716,3256.5C 4729,3315.83 4742,3375.16 4755,3434.5C 4755.8,3436.26 4755.63,3437.93 4754.5,3439.5C 4692.32,3484.09 4630.32,3528.92 4568.5,3574C 4564.59,3577.6 4560.26,3578.26 4555.5,3576C 4509.8,3513.43 4464.47,3450.6 4419.5,3387.5C 4428.82,3333.61 4437.48,3279.61 4445.5,3225.5 Z"/></g>
<g><path style="opacity:0.189" fill="#fefffe" d="M 429.5,3612.5 C 339.833,3612.5 250.167,3612.5 160.5,3612.5C 153.136,3609.21 145.469,3606.37 137.5,3604C 135.187,3603.36 133.52,3602.03 132.5,3600C 135.972,3588.56 140.138,3577.39 145,3566.5C 149.061,3561.1 154.228,3557.26 160.5,3555C 189.336,3548.61 218.003,3541.61 246.5,3534C 207.041,3452.24 168.208,3370.08 130,3287.5C 126.232,3266.87 133.399,3251.37 151.5,3241C 172.395,3233.38 189.228,3238.55 202,3256.5C 221.913,3297.24 241.246,3338.24 260,3379.5C 262.299,3384.42 264.966,3389.09 268,3393.5C 275.299,3389.87 282.799,3386.7 290.5,3384C 335.344,3383.76 379.844,3384.59 424,3386.5C 440.813,3386.08 453.146,3393.41 461,3408.5C 474.998,3453.83 488.998,3499.16 503,3544.5C 505.642,3559.91 501.142,3572.74 489.5,3583C 469.593,3593.12 449.593,3602.95 429.5,3612.5 Z"/></g>
<g><path style="opacity:0.179" fill="#fefffe" d="M 6.5,3311.5 C 28.2062,3319.96 50.2062,3327.62 72.5,3334.5C 72.7035,3336.39 72.0368,3337.89 70.5,3339C 49.3609,3348.67 28.3609,3358.5 7.5,3368.5C 6.50041,3349.51 6.16708,3330.51 6.5,3311.5 Z"/></g>
<g><path style="opacity:0.187" fill="#fefffe" d="M 4297.5,3448.5 C 4310.55,3446.9 4321.05,3451.23 4329,3461.5C 4363.47,3510.26 4398.3,3558.76 4433.5,3607C 4396.5,3607.83 4359.5,3607.67 4322.5,3606.5C 4294.29,3567.46 4266.29,3528.3 4238.5,3489C 4254.72,3476.21 4271.38,3463.87 4288.5,3452C 4291.57,3450.7 4294.57,3449.54 4297.5,3448.5 Z"/></g>
</svg>
