<?xml version="1.0" encoding="UTF-8"?>
<!DOCTYPE svg PUBLIC "-//W3C//DTD SVG 1.1//EN" "http://www.w3.org/Graphics/SVG/1.1/DTD/svg11.dtd">
<svg xmlns="http://www.w3.org/2000/svg" version="1.1" width="4822px" height="3613px" style="shape-rendering:geometricPrecision; text-rendering:geometricPrecision; image-rendering:optimizeQuality; fill-rule:evenodd; clip-rule:evenodd" xmlns:xlink="http://www.w3.org/1999/xlink">
<g><path style="opacity:0.192" fill="#ededed" d="M -0.5,-0.5 C 126.167,-0.5 252.833,-0.5 379.5,-0.5C 433.506,56.0182 456.006,123.018 447,200.5C 443.261,224.797 436.428,248.13 426.5,270.5C 304.299,247.167 201.799,189.5 119,97.5C 132.77,124.345 149.104,149.678 168,173.5C 224.952,243.955 294.785,297.622 377.5,334.5C 378.583,335.365 378.749,336.365 378,337.5C 311.815,398.08 234.982,417.58 147.5,396C 80.2808,375.603 30.9474,334.103 -0.5,271.5C -0.5,180.833 -0.5,90.1667 -0.5,-0.5 Z"/></g>
<g><path style="opacity:0.189" fill="#fefffe" d="M 2522.5,-0.5 C 2595.83,-0.5 2669.17,-0.5 2742.5,-0.5C 2742.38,6.87419 2742.88,14.2075 2744,21.5C 2774.33,52.3264 2804.16,83.6597 2833.5,115.5C 2789.5,118.489 2745.5,121.322 2701.5,124C 2670.36,154.397 2639.03,184.564 2607.5,214.5C 2604.48,170.092 2601.98,125.759 2600,81.5C 2573.57,54.5732 2547.74,27.2399 2522.5,-0.5 Z"/></g>
<g><path style="opacity:0.182" fill="#fefffe" d="M 2888.5,-0.5 C 2922.5,-0.5 2956.5,-0.5 2990.5,-0.5C 2996.15,6.64937 3002.32,13.316 3009,19.5C 3009.62,20.4491 3009.45,21.2825 3008.5,22C 2986.83,23.2284 2965.16,24.5618 2943.5,26C 2928.83,41.0019 2913.83,55.6685 2898.5,70C 2897.55,70.4828 2896.55,70.6495 2895.5,70.5C 2894.97,48.4574 2893.8,26.4574 2892,4.5C 2890.2,3.21075 2889.03,1.54408 2888.5,-0.5 Z"/></g>
<g><path style="opacity:0.183" fill="#fefffe" d="M 2846.5,191.5 C 2847.5,191.5 2848.5,191.5 2849.5,191.5C 2849.94,213.885 2851.11,236.218 2853,258.5C 2867.33,273.5 2881.67,288.5 2896,303.5C 2896.48,304.448 2896.65,305.448 2896.5,306.5C 2874.81,307.29 2853.15,308.457 2831.5,310C 2815.65,325.349 2799.65,340.516 2783.5,355.5C 2781.7,333.08 2780.2,310.747 2779,288.5C 2764.85,272.687 2750.35,257.187 2735.5,242C 2735.91,241.055 2736.57,240.388 2737.5,240C 2758.9,239.426 2780.23,238.093 2801.5,236C 2816.4,220.938 2831.4,206.104 2846.5,191.5 Z"/></g>
<g><path style="opacity:0.19" fill="#f5f5f5" d="M 4821.5,207.5 C 4821.5,241.5 4821.5,275.5 4821.5,309.5C 4797.83,326.054 4785.49,348.888 4784.5,378C 4785.07,407.663 4797.41,430.83 4821.5,447.5C 4821.5,467.833 4821.5,488.167 4821.5,508.5C 4810.24,506.823 4798.74,505.156 4787,503.5C 4770.02,503.501 4753.02,503.501 4736,503.5C 4714.16,505.67 4693.32,511.503 4673.5,521C 4661.68,527.32 4653.68,536.82 4649.5,549.5C 4677.37,622.701 4729.7,667.034 4806.5,682.5C 4807.09,682.291 4807.59,681.957 4808,681.5C 4812.36,682.861 4816.86,683.528 4821.5,683.5C 4821.5,710.5 4821.5,737.5 4821.5,764.5C 4713.42,754.227 4634.58,700.894 4585,604.5C 4548.82,522.99 4549.82,441.657 4588,360.5C 4636.08,272.119 4710.08,221.119 4810,207.5C 4813.68,207.719 4817.52,207.719 4821.5,207.5 Z"/></g>
<g><path style="opacity:0.183" fill="#fefffe" d="M -0.5,2400.5 C -0.5,2375.83 -0.5,2351.17 -0.5,2326.5C 52.8944,2270.38 117.561,2233.54 193.5,2216C 232.455,2206.55 271.455,2206.22 310.5,2215C 316.096,2216.98 321.596,2219.14 327,2221.5C 334.939,2201.76 342.272,2181.76 349,2161.5C 349.561,2160.98 350.228,2160.64 351,2160.5C 352.991,2163.76 354.991,2167.1 357,2170.5C 371.695,2202.23 386.695,2233.89 402,2265.5C 403.904,2268.92 404.737,2272.59 404.5,2276.5C 366.71,2293.56 329.044,2310.89 291.5,2328.5C 290.833,2328.17 290.167,2327.83 289.5,2327.5C 297.795,2305.45 305.795,2283.28 313.5,2261C 313.355,2260.23 313.022,2259.56 312.5,2259C 301.373,2253.98 289.706,2250.98 277.5,2250C 242.591,2247.74 208.258,2252.08 174.5,2263C 126.85,2278.96 84.1837,2303.29 46.5,2336C 26.3001,2354.34 10.6334,2375.84 -0.5,2400.5 Z"/></g>
<g><path style="opacity:0.186" fill="#fefffe" d="M 3805.5,2324.5 C 3823.02,2325.96 3840.02,2329.8 3856.5,2336C 3866.54,2339.08 3874.38,2344.91 3880,2353.5C 3899.06,2395.95 3918.39,2438.29 3938,2480.5C 3983.22,2446.81 4029.05,2413.97 4075.5,2382C 4105.71,2370.68 4130.88,2377.51 4151,2402.5C 4156.61,2411.11 4162.61,2419.45 4169,2427.5C 4171,2431.5 4173,2435.5 4175,2439.5C 4189.98,2505.42 4204.65,2571.42 4219,2637.5C 4221.42,2659.48 4214.26,2677.65 4197.5,2692C 4133.89,2737.28 4070.55,2782.95 4007.5,2829C 3984.85,2844.86 3960.52,2847.86 3934.5,2838C 3925.54,2833.71 3917.7,2827.87 3911,2820.5C 3865.67,2757.83 3820.33,2695.17 3775,2632.5C 3765.06,2618.76 3761.06,2603.42 3763,2586.5C 3777.03,2499.12 3791.2,2411.79 3805.5,2324.5 Z M 3848.5,2431.5 C 3860.47,2456.22 3871.97,2481.22 3883,2506.5C 3898.62,2535.05 3922.45,2545.89 3954.5,2539C 3959.4,2537.55 3964.07,2535.55 3968.5,2533C 4012.75,2501.29 4056.92,2469.46 4101,2437.5C 4107.25,2445.66 4113.25,2453.99 4119,2462.5C 4132,2521.83 4145,2581.16 4158,2640.5C 4158.8,2642.26 4158.63,2643.93 4157.5,2645.5C 4095.32,2690.09 4033.32,2734.92 3971.5,2780C 3967.59,2783.6 3963.26,2784.26 3958.5,2782C 3912.8,2719.43 3867.47,2656.6 3822.5,2593.5C 3831.82,2539.61 3840.48,2485.61 3848.5,2431.5 Z"/></g>
<g><path style="opacity:0.189" fill="#fefffe" d="M 155.5,2335.5 C 170.877,2334.34 183.377,2339.67 193,2351.5C 213.917,2393.08 233.917,2435.08 253,2477.5C 255.299,2482.42 257.966,2487.09 261,2491.5C 268.299,2487.87 275.799,2484.7 283.5,2482C 328.344,2481.76 372.844,2482.59 417,2484.5C 433.813,2484.08 446.146,2491.41 454,2506.5C 467.998,2551.83 481.998,2597.16 496,2642.5C 498.79,2663.09 490.957,2677.92 472.5,2687C 421.195,2710.82 370.195,2734.82 319.5,2759C 308.386,2762.54 297.386,2762.2 286.5,2758C 232.851,2738.67 179.351,2719.17 126,2699.5C 128.579,2687.43 132.579,2675.77 138,2664.5C 141.201,2660.96 144.701,2657.8 148.5,2655C 178.833,2647.33 209.167,2639.67 239.5,2632C 200.041,2550.24 161.208,2468.08 123,2385.5C 119.562,2359.34 130.395,2342.68 155.5,2335.5 Z"/></g>
<g><path style="opacity:0.179" fill="#fefffe" d="M -0.5,2409.5 C 21.2062,2417.96 43.2062,2425.62 65.5,2432.5C 65.7035,2434.39 65.0368,2435.89 63.5,2437C 42.2326,2447.13 20.8993,2456.97 -0.5,2466.5C -0.5,2447.5 -0.5,2428.5 -0.5,2409.5 Z"/></g>
<g><path style="opacity:0.187" fill="#fefffe" d="M 3700.5,2654.5 C 3713.55,2652.9 3724.05,2657.23 3732,2667.5C 3784,2740.17 3836,2812.83 3888,2885.5C 3893.27,2902.02 3888.77,2915.19 3874.5,2925C 3860.5,2935 3846.5,2945 3832.5,2955C 3830.3,2955.82 3828.47,2955.32 3827,2953.5C 3765.33,2867.83 3703.67,2782.17 3642,2696.5C 3641.32,2695.22 3641.48,2694.05 3642.5,2693C 3658.83,2681.33 3675.17,2669.67 3691.5,2658C 3694.57,2656.7 3697.57,2655.54 3700.5,2654.5 Z"/></g>
</svg>
