<?xml version="1.0" encoding="UTF-8"?>
<!DOCTYPE svg PUBLIC "-//W3C//DTD SVG 1.1//EN" "http://www.w3.org/Graphics/SVG/1.1/DTD/svg11.dtd">
<svg xmlns="http://www.w3.org/2000/svg" version="1.1" width="1314px" height="1181px" style="shape-rendering:geometricPrecision; text-rendering:geometricPrecision; image-rendering:optimizeQuality; fill-rule:evenodd; clip-rule:evenodd" xmlns:xlink="http://www.w3.org/1999/xlink">
<g><path style="opacity:1" fill="#9a9a9a" d="M 511.5,134.5 C 517.776,129.893 523.443,124.559 528.5,118.5C 580.526,68.9729 641.859,35.8062 712.5,19C 827.568,-5.31817 933.902,15.0152 1031.5,80C 1131.96,152.693 1188.8,251.193 1202,375.5C 1209.58,497.29 1171.75,602.29 1088.5,690.5C 1148.12,758.746 1163.62,836.079 1135,922.5C 1109.71,985.793 1065.21,1029.63 1001.5,1054C 933.263,1076.71 868.263,1069.71 806.5,1033C 776.219,1012.89 751.553,987.387 732.5,956.5C 677.814,1069.32 588.814,1138.15 465.5,1163C 343.363,1180.62 237.863,1147.12 149,1062.5C 59.8196,967.154 28.1529,855.154 54,726.5C 79.5452,624.816 137.379,547.649 227.5,495C 282.577,464.647 341.577,449.147 404.5,448.5C 394.803,327.917 430.469,223.25 511.5,134.5 Z"/></g>
<g><path style="opacity:1" fill="#d8d8d8" d="M 777.5,12.5 C 916.53,8.07029 1029.7,59.4036 1117,166.5C 1190.53,265.308 1214.86,375.308 1190,496.5C 1172.83,570.2 1138,633.866 1085.5,687.5C 1033.95,637.679 972.288,615.846 900.5,622C 838.461,630.427 787.961,658.927 749,707.5C 713.192,594.691 640.359,516.191 530.5,472C 491.164,457.277 450.498,449.777 408.5,449.5C 397.937,309.279 445.604,193.445 551.5,102C 617.558,49.1392 692.891,19.3059 777.5,12.5 Z"/></g>
<g><path style="opacity:1" fill="#aeaeae" d="M 528.5,118.5 C 523.443,124.559 517.776,129.893 511.5,134.5C 516.557,128.441 522.224,123.107 528.5,118.5 Z"/></g>
<g><path style="opacity:1" fill="#d8d8d8" d="M 379.5,452.5 C 484.898,448.23 575.898,481.73 652.5,553C 697.1,597.169 728.433,649.502 746.5,710C 693.806,787.156 688.473,867.49 730.5,951C 684.629,1050.63 609.296,1116.96 504.5,1150C 384.665,1181.77 275.998,1159.77 178.5,1084C 86.5124,1004.48 43.3458,903.647 49,781.5C 60.2608,670.771 110.427,582.604 199.5,517C 253.795,479.513 313.795,458.013 379.5,452.5 Z"/></g>
<g><path style="opacity:1" fill="#d8d8d8" d="M 908.5,624.5 C 1002.26,621.549 1072.76,660.215 1120,740.5C 1154.49,810.792 1153.83,880.792 1118,950.5C 1078.24,1017.33 1019.4,1054.83 941.5,1063C 858.341,1066.33 792.508,1034.5 744,967.5C 701.366,900.661 694.699,830.328 724,756.5C 761.36,678.738 822.86,634.738 908.5,624.5 Z"/></g>
</svg>
