<?xml version="1.0" encoding="UTF-8"?>
<!DOCTYPE svg PUBLIC "-//W3C//DTD SVG 1.1//EN" "http://www.w3.org/Graphics/SVG/1.1/DTD/svg11.dtd">
<svg xmlns="http://www.w3.org/2000/svg" version="1.1" width="4822px" height="3613px" style="shape-rendering:geometricPrecision; text-rendering:geometricPrecision; image-rendering:optimizeQuality; fill-rule:evenodd; clip-rule:evenodd" xmlns:xlink="http://www.w3.org/1999/xlink">
<g><path style="opacity:0.192" fill="#eeeeee" d="M -0.5,-0.5 C 126.5,-0.5 253.5,-0.5 380.5,-0.5C 443.087,67.5193 462.587,146.519 439,236.5C 435.615,247.993 431.448,259.16 426.5,270C 306.332,247.848 205.165,192.015 123,102.5C 122.833,102.833 122.667,103.167 122.5,103.5C 157.439,166.29 203.439,219.79 260.5,264C 296.964,291.664 336.131,315.164 378,334.5C 378.63,336.903 377.797,338.737 375.5,340C 301.066,404.751 217.066,420.751 123.5,388C 68.2482,365.243 26.9149,327.41 -0.5,274.5C -0.5,182.833 -0.5,91.1667 -0.5,-0.5 Z"/></g>
<g><path style="opacity:0.186" fill="#fefffe" d="M 2522.5,-0.5 C 2595.83,-0.5 2669.17,-0.5 2742.5,-0.5C 2742.41,6.54016 2742.91,13.5402 2744,20.5C 2774.2,51.6976 2804.03,83.1976 2833.5,115C 2789.54,118.474 2745.54,121.474 2701.5,124C 2670,154.167 2638.5,184.333 2607,214.5C 2603.56,170.218 2600.89,125.885 2599,81.5C 2582,63.8333 2565,46.1667 2548,28.5C 2539.02,19.1769 2530.52,9.51022 2522.5,-0.5 Z"/></g>
<g><path style="opacity:0.175" fill="#fefffe" d="M 2887.5,-0.5 C 2922.17,-0.5 2956.83,-0.5 2991.5,-0.5C 2996.76,6.26343 3002.59,12.5968 3009,18.5C 3009.68,19.7839 3009.52,20.9505 3008.5,22C 2986.83,23.2088 2965.16,24.5421 2943.5,26C 2928.8,41.0292 2913.8,55.6959 2898.5,70C 2897.21,70.49 2895.87,70.6567 2894.5,70.5C 2893.93,48.4708 2892.77,26.4708 2891,4.5C 2889.33,3.15366 2888.16,1.487 2887.5,-0.5 Z"/></g>
<g><path style="opacity:0.175" fill="#fefffe" d="M 2845.5,190.5 C 2846.83,190.5 2848.17,190.5 2849.5,190.5C 2849.99,212.867 2851.15,235.2 2853,257.5C 2867.33,272.5 2881.67,287.5 2896,302.5C 2896.49,303.793 2896.66,305.127 2896.5,306.5C 2874.82,307.302 2853.15,308.469 2831.5,310C 2815.63,325.533 2799.47,340.7 2783,355.5C 2780.81,333.21 2779.15,310.877 2778,288.5C 2763.68,272.683 2749.18,257.016 2734.5,241.5C 2735.09,240.201 2736.09,239.368 2737.5,239C 2758.55,238.372 2779.55,237.039 2800.5,235C 2815.4,219.938 2830.4,205.104 2845.5,190.5 Z"/></g>
<g><path style="opacity:0.188" fill="#f4f4f4" d="M 4821.5,206.5 C 4821.5,240.833 4821.5,275.167 4821.5,309.5C 4790.09,332.561 4778.92,363.228 4788,401.5C 4793.84,420.545 4805.01,435.545 4821.5,446.5C 4821.5,467.167 4821.5,487.833 4821.5,508.5C 4791.7,503.704 4761.7,502.204 4731.5,504C 4709.68,506.621 4689.01,512.954 4669.5,523C 4660.03,529.3 4653.37,537.8 4649.5,548.5C 4680.01,627.738 4737.34,672.405 4821.5,682.5C 4821.5,709.833 4821.5,737.167 4821.5,764.5C 4709.54,753.96 4629.37,698.294 4581,597.5C 4545.04,508.992 4550.71,423.325 4598,340.5C 4649.98,258.903 4724.48,214.237 4821.5,206.5 Z"/></g>
<g><path style="opacity:0.176" fill="#fefffe" d="M -0.5,2399.5 C -0.5,2374.5 -0.5,2349.5 -0.5,2324.5C 61.7811,2259.86 137.781,2221.36 227.5,2209C 256.516,2206.1 285.182,2208.1 313.5,2215C 317.741,2216.7 321.907,2218.54 326,2220.5C 334.12,2200.81 341.454,2180.81 348,2160.5C 348.561,2159.98 349.228,2159.64 350,2159.5C 353.488,2163.8 356.488,2168.46 359,2173.5C 373.394,2204.62 388.06,2235.62 403,2266.5C 404.368,2269.74 404.701,2273.07 404,2276.5C 366.349,2293.83 328.682,2311.16 291,2328.5C 289.72,2328.39 288.887,2327.72 288.5,2326.5C 296.697,2304.58 304.697,2282.58 312.5,2260.5C 304.272,2255.48 295.272,2252.31 285.5,2251C 237.606,2246.43 191.606,2253.76 147.5,2273C 102.44,2291.77 62.94,2318.6 29,2353.5C 17.3837,2367.74 7.55034,2383.08 -0.5,2399.5 Z"/></g>
<g><path style="opacity:0.181" fill="#fefffe" d="M 4821.5,2372.5 C 4821.5,2400.5 4821.5,2428.5 4821.5,2456.5C 4816.02,2448.9 4810.52,2441.23 4805,2433.5C 4803.95,2432.48 4802.78,2432.32 4801.5,2433C 4758.17,2464.33 4714.83,2495.67 4671.5,2527C 4657.66,2534.08 4642.99,2536.42 4627.5,2534C 4607.61,2528.77 4593.11,2516.94 4584,2498.5C 4573.97,2474.78 4563.14,2451.44 4551.5,2428.5C 4543.32,2481.08 4534.65,2533.58 4525.5,2586C 4569.93,2648.77 4614.76,2711.27 4660,2773.5C 4662.43,2775.75 4665.26,2776.59 4668.5,2776C 4719.53,2739.49 4770.53,2702.99 4821.5,2666.5C 4821.5,2691.83 4821.5,2717.17 4821.5,2742.5C 4782.38,2770.45 4743.38,2798.61 4704.5,2827C 4682.62,2838.98 4659.95,2840.64 4636.5,2832C 4624.2,2826.37 4614.37,2817.87 4607,2806.5C 4564.72,2747.22 4522.05,2688.22 4479,2629.5C 4466.49,2612.79 4462.16,2594.13 4466,2573.5C 4479.73,2488.14 4493.56,2402.8 4507.5,2317.5C 4530.86,2319.01 4552.86,2325.17 4573.5,2336C 4576,2338.5 4578.5,2341 4581,2343.5C 4599.66,2384.13 4618.33,2424.8 4637,2465.5C 4638.02,2468.21 4639.52,2470.54 4641.5,2472.5C 4686.3,2439.26 4731.64,2406.76 4777.5,2375C 4791.96,2369.07 4806.63,2368.24 4821.5,2372.5 Z"/></g>
<g><path style="opacity:0.187" fill="#fefffe" d="M 153.5,2334.5 C 169.474,2333.08 182.641,2338.41 193,2350.5C 213.092,2390.02 232.092,2430.02 250,2470.5C 253.159,2477.49 256.826,2484.15 261,2490.5C 267.152,2486.89 273.652,2484.06 280.5,2482C 321.176,2481.23 361.843,2481.56 402.5,2483C 411.56,2483.12 420.56,2483.78 429.5,2485C 441.84,2488.67 450.34,2496.51 455,2508.5C 468.667,2552.83 482.333,2597.17 496,2641.5C 498.619,2664.2 489.453,2680.04 468.5,2689C 418.713,2712.06 369.046,2735.39 319.5,2759C 308.053,2762.55 296.719,2762.21 285.5,2758C 232.163,2738.89 178.996,2719.39 126,2699.5C 127.286,2687.63 130.619,2676.3 136,2665.5C 139.167,2661 143,2657.17 147.5,2654C 177.876,2646.49 208.209,2638.82 238.5,2631C 198.72,2549.61 159.886,2467.77 122,2385.5C 118.304,2359.53 128.804,2342.53 153.5,2334.5 Z"/></g>
<g><path style="opacity:0.17" fill="#fefffe" d="M -0.5,2408.5 C 20.541,2416.68 41.8743,2424.18 63.5,2431C 66.033,2432.92 66.033,2434.92 63.5,2437C 42.2602,2447.12 20.9269,2456.95 -0.5,2466.5C -0.5,2447.17 -0.5,2427.83 -0.5,2408.5 Z"/></g>
<g><path style="opacity:0.181" fill="#fefffe" d="M 4401.5,2647.5 C 4415.14,2645.57 4426.31,2649.91 4435,2660.5C 4487,2733.17 4539,2805.83 4591,2878.5C 4596.05,2893.71 4592.55,2906.55 4580.5,2917C 4565.32,2927.42 4550.32,2938.09 4535.5,2949C 4533.36,2949.63 4531.36,2949.3 4529.5,2948C 4467.67,2862.17 4405.83,2776.33 4344,2690.5C 4343.33,2689.17 4343.33,2687.83 4344,2686.5C 4359.76,2675.7 4375.26,2664.53 4390.5,2653C 4394.19,2651.06 4397.86,2649.22 4401.5,2647.5 Z"/></g>
</svg>
