<?xml version="1.0" encoding="UTF-8"?>
<!DOCTYPE svg PUBLIC "-//W3C//DTD SVG 1.1//EN" "http://www.w3.org/Graphics/SVG/1.1/DTD/svg11.dtd">
<svg xmlns="http://www.w3.org/2000/svg" version="1.1" width="4822px" height="3613px" style="shape-rendering:geometricPrecision; text-rendering:geometricPrecision; image-rendering:optimizeQuality; fill-rule:evenodd; clip-rule:evenodd" xmlns:xlink="http://www.w3.org/1999/xlink">
<g><path style="opacity:1" fill="#c1c1c1" d="M -0.5,-0.5 C 181.167,-0.5 362.833,-0.5 544.5,-0.5C 625.01,65.5034 669.51,150.837 678,255.5C 681.924,317.714 670.757,377.047 644.5,433.5C 643.667,433.833 642.833,434.167 642,434.5C 457.532,398.472 303.199,310.805 179,171.5C 178.833,171.833 178.667,172.167 178.5,172.5C 269.991,335.822 401.157,455.822 572,532.5C 572.667,533.5 572.667,534.5 572,535.5C 489.952,612.852 392.452,646.019 279.5,635C 168.36,620.227 82.1933,566.393 21,473.5C 13.8066,461.104 6.63997,448.77 -0.5,436.5C -0.5,290.833 -0.5,145.167 -0.5,-0.5 Z"/></g>
<g><path style="opacity:0.999" fill="#c1c1c1" d="M 2714.5,-0.5 C 2756.17,-0.5 2797.83,-0.5 2839.5,-0.5C 2840.13,18.5881 2841.3,37.5881 2843,56.5C 2881.33,96.8333 2919.67,137.167 2958,177.5C 2958.48,178.448 2958.65,179.448 2958.5,180.5C 2902.15,183.369 2845.82,186.536 2789.5,190C 2749.17,229 2708.83,268 2668.5,307C 2667.21,307.49 2665.87,307.657 2664.5,307.5C 2662.64,250.805 2660.14,194.138 2657,137.5C 2618.67,97.1667 2580.33,56.8333 2542,16.5C 2541.51,15.2068 2541.34,13.8734 2541.5,12.5C 2597.51,9.93283 2653.51,7.0995 2709.5,4C 2711.06,2.26401 2712.73,0.764005 2714.5,-0.5 Z"/></g>
<g><path style="opacity:0.998" fill="#c1c1c1" d="M 3002.5,-0.5 C 3046.5,-0.5 3090.5,-0.5 3134.5,-0.5C 3151.8,17.9643 3169.3,36.2976 3187,54.5C 3187.49,55.7932 3187.66,57.1266 3187.5,58.5C 3159.51,59.9998 3131.51,61.4998 3103.5,63C 3083.5,82.3333 3063.5,101.667 3043.5,121C 3042.55,121.483 3041.55,121.649 3040.5,121.5C 3039.22,93.1594 3037.72,64.826 3036,36.5C 3026.36,25.8627 3016.36,15.5294 3006,5.5C 3004.58,3.5952 3003.41,1.5952 3002.5,-0.5 Z"/></g>
<g><path style="opacity:1" fill="#c1c1c1" d="M 4769.5,234.5 C 4781.17,235.833 4792.83,235.833 4804.5,234.5C 4810.17,235.148 4815.84,235.481 4821.5,235.5C 4821.5,273.833 4821.5,312.167 4821.5,350.5C 4776.77,353.028 4744.6,375.028 4725,416.5C 4723.72,420.169 4722.55,423.836 4721.5,427.5C 4720.41,427.62 4719.75,428.287 4719.5,429.5C 4718.73,432.115 4718.4,434.781 4718.5,437.5C 4713.89,469.164 4721.06,497.831 4740,523.5C 4741.04,524.71 4742.21,525.71 4743.5,526.5C 4764.33,550.252 4790.33,562.585 4821.5,563.5C 4821.5,590.5 4821.5,617.5 4821.5,644.5C 4809.83,640.494 4798.17,636.328 4786.5,632C 4767.93,626.513 4749.26,622.68 4730.5,620.5C 4723.96,619.289 4717.46,619.289 4711,620.5C 4707.06,619.862 4703.23,619.196 4699.5,618.5C 4696.18,617.835 4692.68,617.501 4689,617.5C 4685.1,617.512 4681.6,618.179 4678.5,619.5C 4651.81,619.57 4625.48,623.403 4599.5,631C 4593.44,632.844 4587.77,635.344 4582.5,638.5C 4562.52,645.815 4548.85,659.482 4541.5,679.5C 4546.2,693.22 4552.2,706.22 4559.5,718.5C 4561.33,722.836 4563.67,726.836 4566.5,730.5C 4566.33,731.492 4566.66,732.158 4567.5,732.5C 4575.3,745.973 4584.64,758.307 4595.5,769.5C 4628.67,806.632 4669.34,831.965 4717.5,845.5C 4717.62,846.586 4718.29,847.253 4719.5,847.5C 4723.76,848.686 4728.09,849.353 4732.5,849.5C 4740.52,850.669 4748.52,852.003 4756.5,853.5C 4760.4,853.785 4764.4,853.785 4768.5,853.5C 4770.66,854.05 4772.66,854.717 4774.5,855.5C 4781.32,856.655 4788.32,856.821 4795.5,856C 4796.06,855.617 4796.39,855.117 4796.5,854.5C 4804.79,854.764 4813.13,854.097 4821.5,852.5C 4821.5,887.5 4821.5,922.5 4821.5,957.5C 4817.92,957.621 4814.26,957.621 4810.5,957.5C 4808.29,958.106 4806.12,958.773 4804,959.5C 4803.6,959.272 4803.43,958.938 4803.5,958.5C 4791.83,957.167 4780.17,957.167 4768.5,958.5C 4646.49,949.92 4550.82,894.92 4481.5,793.5C 4446.44,737.068 4427.44,677.402 4424.5,614.5C 4425.83,602.5 4425.83,590.5 4424.5,578.5C 4433.08,456.489 4488.08,360.822 4589.5,291.5C 4646.54,256.117 4706.54,237.117 4769.5,234.5 Z"/></g>
<g><path style="opacity:0.778" fill="#d2d2d2" d="M 4804.5,234.5 C 4792.83,235.833 4781.17,235.833 4769.5,234.5C 4781.11,233.202 4792.78,233.202 4804.5,234.5 Z"/></g>
<g><path style="opacity:0.004" fill="#ecedec" d="M 4659.5,254.5 C 4660.83,255.167 4660.83,255.167 4659.5,254.5 Z"/></g>
<g><path style="opacity:0.004" fill="#ebeceb" d="M 4646.5,259.5 C 4647.83,260.167 4647.83,260.167 4646.5,259.5 Z"/></g>
<g><path style="opacity:0.004" fill="#ecedec" d="M 4644.5,260.5 C 4645.83,261.167 4645.83,261.167 4644.5,260.5 Z"/></g>
<g><path style="opacity:0.998" fill="#c1c1c1" d="M 2976.5,278.5 C 2977.5,278.5 2978.5,278.5 2979.5,278.5C 2980.64,307.188 2982.14,335.855 2984,364.5C 3003.54,384.376 3022.71,404.543 3041.5,425C 3041.09,425.945 3040.43,426.612 3039.5,427C 3011.8,428.247 2984.13,429.914 2956.5,432C 2936.5,451.333 2916.5,470.667 2896.5,490C 2895.55,490.483 2894.55,490.649 2893.5,490.5C 2892.52,462.162 2891.35,433.828 2890,405.5C 2870.63,385.803 2851.63,365.803 2833,345.5C 2832.51,344.207 2832.34,342.873 2832.5,341.5C 2860.54,340.647 2888.54,339.147 2916.5,337C 2936.7,317.633 2956.7,298.133 2976.5,278.5 Z"/></g>
<g><path style="opacity:0.004" fill="#ecedec" d="M 4589.5,291.5 C 4588.83,290.167 4588.83,290.167 4589.5,291.5 Z"/></g>
<g><path style="opacity:0.004" fill="#ecedec" d="M 4586.5,291.5 C 4587.83,292.167 4587.83,292.167 4586.5,291.5 Z"/></g>
<g><path style="opacity:0.004" fill="#ecedec" d="M 4584.5,292.5 C 4585.83,293.167 4585.83,293.167 4584.5,292.5 Z"/></g>
<g><path style="opacity:0.004" fill="#ecedec" d="M 4574.5,299.5 C 4575.83,300.167 4575.83,300.167 4574.5,299.5 Z"/></g>
<g><path style="opacity:0.004" fill="#eaebea" d="M 4529.5,337.5 C 4530.83,338.167 4530.83,338.167 4529.5,337.5 Z"/></g>
<g><path style="opacity:0.004" fill="#e9eae9" d="M 4506.5,362.5 C 4507.83,363.167 4507.83,363.167 4506.5,362.5 Z"/></g>
<g><path style="opacity:0.715" fill="#d7d7d7" d="M 4721.5,427.5 C 4721.1,431.116 4720.1,434.45 4718.5,437.5C 4718.4,434.781 4718.73,432.115 4719.5,429.5C 4719.75,428.287 4720.41,427.62 4721.5,427.5 Z"/></g>
<g><path style="opacity:0.004" fill="#eaebea" d="M 4722.5,486.5 C 4723.83,487.167 4723.83,487.167 4722.5,486.5 Z"/></g>
<g><path style="opacity:0.004" fill="#eaebea" d="M 4727.5,499.5 C 4728.83,500.167 4728.83,500.167 4727.5,499.5 Z"/></g>
<g><path style="opacity:0.004" fill="#ecedec" d="M 4743.5,525.5 C 4744.83,526.167 4744.83,526.167 4743.5,525.5 Z"/></g>
<g><path style="opacity:0.779" fill="#d3d3d3" d="M 4424.5,578.5 C 4425.83,590.5 4425.83,602.5 4424.5,614.5C 4423.62,602.841 4423.62,590.841 4424.5,578.5 Z"/></g>
<g><path style="opacity:0.82" fill="#d3d3d3" d="M 4699.5,618.5 C 4692.45,619.015 4685.45,619.349 4678.5,619.5C 4681.6,618.179 4685.1,617.512 4689,617.5C 4692.68,617.501 4696.18,617.835 4699.5,618.5 Z"/></g>
<g><path style="opacity:0.004" fill="#eaebea" d="M 4582.5,638.5 C 4583.83,639.167 4583.83,639.167 4582.5,638.5 Z"/></g>
<g><path style="opacity:0.004" fill="#eaebea" d="M 4545.5,685.5 C 4546.83,686.167 4546.83,686.167 4545.5,685.5 Z"/></g>
<g><path style="opacity:0.004" fill="#ebeceb" d="M 4557.5,713.5 C 4558.83,714.167 4558.83,714.167 4557.5,713.5 Z"/></g>
<g><path style="opacity:0.004" fill="#ecedec" d="M 4558.5,715.5 C 4559.83,716.167 4559.83,716.167 4558.5,715.5 Z"/></g>
<g><path style="opacity:0.004" fill="#ecedec" d="M 4559.5,717.5 C 4560.83,718.167 4560.83,718.167 4559.5,717.5 Z"/></g>
<g><path style="opacity:0.004" fill="#eaebea" d="M 4444.5,722.5 C 4445.83,723.167 4445.83,723.167 4444.5,722.5 Z"/></g>
<g><path style="opacity:0.004" fill="#ecedec" d="M 4564.5,725.5 C 4565.83,726.167 4565.83,726.167 4564.5,725.5 Z"/></g>
<g><path style="opacity:0.004" fill="#ecedec" d="M 4565.5,727.5 C 4566.83,728.167 4566.83,728.167 4565.5,727.5 Z"/></g>
<g><path style="opacity:0.004" fill="#ecedec" d="M 4566.5,729.5 C 4567.83,730.167 4567.83,730.167 4566.5,729.5 Z"/></g>
<g><path style="opacity:0.004" fill="#ecedec" d="M 4567.5,731.5 C 4568.83,732.167 4568.83,732.167 4567.5,731.5 Z"/></g>
<g><path style="opacity:0.004" fill="#ebeceb" d="M 4449.5,735.5 C 4450.83,736.167 4450.83,736.167 4449.5,735.5 Z"/></g>
<g><path style="opacity:0.004" fill="#ebeceb" d="M 4450.5,737.5 C 4451.83,738.167 4451.83,738.167 4450.5,737.5 Z"/></g>
<g><path style="opacity:0.004" fill="#ebeceb" d="M 4454.5,746.5 C 4455.83,747.167 4455.83,747.167 4454.5,746.5 Z"/></g>
<g><path style="opacity:0.004" fill="#ecedec" d="M 4595.5,768.5 C 4596.83,769.167 4596.83,769.167 4595.5,768.5 Z"/></g>
<g><path style="opacity:0.004" fill="#ebeceb" d="M 4481.5,793.5 C 4480.83,794.167 4480.83,794.167 4481.5,793.5 Z"/></g>
<g><path style="opacity:0.004" fill="#eaebea" d="M 4481.5,795.5 C 4482.83,796.167 4482.83,796.167 4481.5,795.5 Z"/></g>
<g><path style="opacity:0.004" fill="#eaebea" d="M 4482.5,797.5 C 4483.83,798.167 4483.83,798.167 4482.5,797.5 Z"/></g>
<g><path style="opacity:0.004" fill="#eaebea" d="M 4489.5,807.5 C 4490.83,808.167 4490.83,808.167 4489.5,807.5 Z"/></g>
<g><path style="opacity:0.753" fill="#d4d4d4" d="M 4717.5,845.5 C 4722.73,846.389 4727.73,847.722 4732.5,849.5C 4728.09,849.353 4723.76,848.686 4719.5,847.5C 4718.29,847.253 4717.62,846.586 4717.5,845.5 Z"/></g>
<g><path style="opacity:0.004" fill="#ecedec" d="M 4527.5,852.5 C 4528.83,853.167 4528.83,853.167 4527.5,852.5 Z"/></g>
<g><path style="opacity:0.837" fill="#d3d3d3" d="M 4796.5,854.5 C 4796.39,855.117 4796.06,855.617 4795.5,856C 4788.32,856.821 4781.32,856.655 4774.5,855.5C 4781.82,855.155 4789.15,854.822 4796.5,854.5 Z"/></g>
<g><path style="opacity:0.004" fill="#ebeceb" d="M 4552.5,875.5 C 4553.83,876.167 4553.83,876.167 4552.5,875.5 Z"/></g>
<g><path style="opacity:0.779" fill="#d2d2d2" d="M 4768.5,958.5 C 4780.17,957.167 4791.83,957.167 4803.5,958.5C 4791.89,959.798 4780.22,959.798 4768.5,958.5 Z"/></g>
<g><path style="opacity:0.998" fill="#c1c1c1" d="M 348.5,2023.5 C 349.871,2021.06 350.871,2018.4 351.5,2015.5C 356.072,2004.46 360.072,1993.12 363.5,1981.5C 365.02,1979.11 366.02,1976.44 366.5,1973.5C 368.458,1969.72 370.125,1965.72 371.5,1961.5C 371.376,1960.89 371.043,1960.56 370.5,1960.5C 369.22,1959.07 367.553,1958.4 365.5,1958.5C 351.873,1952.78 337.539,1949.61 322.5,1949C 306.783,1948.18 291.117,1948.68 275.5,1950.5C 274.903,1949.86 274.07,1949.53 273,1949.5C 269.324,1949.63 266.158,1950.63 263.5,1952.5C 186.218,1966.14 118.551,1998.98 60.5,2051C 43.5206,2067.23 29.1872,2084.9 17.5,2104C 12.8995,2112.59 8.89947,2121.93 5.5,2132C 5.83611,2133.03 6.50278,2133.53 7.5,2133.5C 27.8007,2141.66 48.4673,2149.16 69.5,2156C 74.7396,2157.96 79.7396,2160.29 84.5,2163C 82.0163,2165.74 79.0163,2167.74 75.5,2169C 51.4305,2180.35 27.4305,2191.68 3.5,2203C 2.20677,2203.49 0.873441,2203.66 -0.5,2203.5C -0.5,2151.17 -0.5,2098.83 -0.5,2046.5C 13.5342,2030.13 28.8675,2015.13 45.5,2001.5C 124.725,1937.43 214.891,1904.09 316,1901.5C 340.638,1902.12 364.305,1907.12 387,1916.5C 395.588,1893.57 404.088,1870.57 412.5,1847.5C 413.167,1847.17 413.833,1846.83 414.5,1846.5C 416.793,1848.39 418.626,1850.73 420,1853.5C 439.326,1894.65 458.493,1935.82 477.5,1977C 477.167,1977.83 476.833,1978.67 476.5,1979.5C 433.756,1999.58 391.089,2019.74 348.5,2040C 346.359,2040.88 344.693,2040.38 343.5,2038.5C 345.468,2033.57 347.134,2028.57 348.5,2023.5 Z"/></g>
<g><path style="opacity:0.413" fill="#d5d5d5" d="M 275.5,1950.5 C 271.5,1951.17 267.5,1951.83 263.5,1952.5C 266.158,1950.63 269.324,1949.63 273,1949.5C 274.07,1949.53 274.903,1949.86 275.5,1950.5 Z"/></g>
<g><path style="opacity:0.004" fill="#fefffe" d="M 365.5,1958.5 C 364.833,1959.17 364.833,1959.17 365.5,1958.5 Z"/></g>
<g><path style="opacity:0.004" fill="#fefffe" d="M 370.5,1960.5 C 369.833,1961.17 369.833,1961.17 370.5,1960.5 Z"/></g>
<g><path style="opacity:0.004" fill="#fefffe" d="M 366.5,1973.5 C 365.833,1972.17 365.833,1972.17 366.5,1973.5 Z"/></g>
<g><path style="opacity:0.004" fill="#fefffe" d="M 363.5,1981.5 C 362.833,1980.17 362.833,1980.17 363.5,1981.5 Z"/></g>
<g><path style="opacity:0.004" fill="#fefffe" d="M 45.5,2001.5 C 44.8333,2000.17 44.8333,2000.17 45.5,2001.5 Z"/></g>
<g><path style="opacity:0.004" fill="#fefffe" d="M 351.5,2015.5 C 350.833,2014.17 350.833,2014.17 351.5,2015.5 Z"/></g>
<g><path style="opacity:0.004" fill="#fefffe" d="M 348.5,2023.5 C 347.833,2022.17 347.833,2022.17 348.5,2023.5 Z"/></g>
<g><path style="opacity:1" fill="#c1c1c1" d="M 194.5,2048.5 C 211.013,2049.41 223.846,2056.08 233,2068.5C 258.41,2122.32 284.077,2175.99 310,2229.5C 319.216,2224.14 329.049,2220.31 339.5,2218C 348.731,2217.67 357.898,2217.51 367,2217.5C 398.384,2218.36 429.884,2219.36 461.5,2220.5C 462.689,2220.24 463.856,2219.91 465,2219.5C 478.174,2220.09 491.341,2220.93 504.5,2222C 522.606,2227.66 533.772,2239.82 538,2258.5C 552.468,2306.24 567.135,2353.9 582,2401.5C 586.541,2424.08 579.374,2441.25 560.5,2453C 501.186,2480.96 441.853,2508.96 382.5,2537C 368.294,2542.77 354.46,2542.94 341,2537.5C 278.761,2515.29 216.594,2492.96 154.5,2470.5C 154.069,2469.71 153.735,2468.87 153.5,2468C 157.834,2453.66 163.334,2439.82 170,2426.5C 173.042,2423.07 176.542,2420.23 180.5,2418C 214.769,2409.41 249.102,2401.08 283.5,2393C 283.957,2392.59 284.291,2392.09 284.5,2391.5C 240.317,2297.8 196.15,2204.14 152,2110.5C 145.192,2086.58 152.025,2067.75 172.5,2054C 179.654,2050.88 186.987,2049.04 194.5,2048.5 Z"/></g>
<g><path style="opacity:0.004" fill="#fefffe" d="M 7.5,2132.5 C 8.83333,2133.17 8.83333,2133.17 7.5,2132.5 Z"/></g>
<g><path style="opacity:0.999" fill="#c1c1c1" d="M 3845.5,2331.5 C 3847.65,2332.67 3849.98,2333.67 3852.5,2334.5C 3853.09,2334.29 3853.59,2333.96 3854,2333.5C 3855.49,2335.56 3857.49,2336.89 3860,2337.5C 3860.33,2337.17 3860.67,2336.83 3861,2336.5C 3863.9,2338.17 3867.07,2340.17 3870.5,2342.5C 3875.69,2346.55 3879.69,2351.55 3882.5,2357.5C 3882.85,2360.57 3884.18,2363.57 3886.5,2366.5C 3887.07,2369.91 3888.41,2372.91 3890.5,2375.5C 3892.26,2380.02 3894.26,2384.36 3896.5,2388.5C 3903.46,2405.36 3910.79,2421.03 3918.5,2435.5C 3917.17,2435.83 3917.17,2436.17 3918.5,2436.5C 3919.28,2439.89 3920.94,2442.72 3923.5,2445C 3923.04,2445.41 3922.71,2445.91 3922.5,2446.5C 3923.56,2449.47 3925.23,2451.97 3927.5,2454C 3926.8,2456.47 3927.47,2458.63 3929.5,2460.5C 3930.38,2463.31 3931.72,2466.31 3933.5,2469.5C 3933.66,2471.15 3934.33,2472.49 3935.5,2473.5C 3935.82,2476.4 3937.16,2478.23 3939.5,2479C 3983.79,2446.2 4028.46,2414.03 4073.5,2382.5C 4075.15,2382.34 4076.49,2381.67 4077.5,2380.5C 4087.88,2377.1 4098.55,2375.77 4109.5,2376.5C 4110.88,2377.8 4112.38,2377.8 4114,2376.5C 4115.4,2378.53 4117.06,2378.86 4119,2377.5C 4120.82,2379.29 4122.99,2380.62 4125.5,2381.5C 4126.77,2381.25 4127.94,2381.25 4129,2381.5C 4129.32,2383.3 4129.98,2383.63 4131,2382.5C 4131.28,2383.42 4131.78,2384.08 4132.5,2384.5C 4133.29,2385.4 4134.29,2386.07 4135.5,2386.5C 4140.1,2390.6 4144.6,2394.94 4149,2399.5C 4156.09,2410.01 4163.42,2420.34 4171,2430.5C 4175.93,2440.63 4179.1,2450.96 4180.5,2461.5C 4180.82,2462.65 4181.48,2463.48 4182.5,2464C 4181.21,2465.29 4181.21,2466.46 4182.5,2467.5C 4185.21,2483.08 4188.55,2498.42 4192.5,2513.5C 4195.03,2519.73 4196.36,2525.73 4196.5,2531.5C 4197.75,2540.78 4199.75,2549.78 4202.5,2558.5C 4202.75,2563.44 4203.75,2568.11 4205.5,2572.5C 4205.22,2574.41 4205.55,2576.08 4206.5,2577.5C 4207.96,2583.52 4209.29,2589.52 4210.5,2595.5C 4212.55,2607.76 4215.22,2619.76 4218.5,2631.5C 4218.22,2633.41 4218.55,2635.08 4219.5,2636.5C 4219.21,2642.56 4219.54,2648.56 4220.5,2654.5C 4218.28,2657.26 4217.62,2660.26 4218.5,2663.5C 4217.97,2664.19 4217.31,2664.69 4216.5,2665C 4216.83,2665.33 4217.17,2665.67 4217.5,2666C 4214.94,2669.67 4212.94,2673.17 4211.5,2676.5C 4205.36,2684.8 4198.03,2691.97 4189.5,2698C 4124.52,2745.16 4059.19,2791.82 3993.5,2838C 3990.28,2838.9 3987.28,2840.07 3984.5,2841.5C 3983.21,2841.26 3982.21,2841.6 3981.5,2842.5C 3979.59,2842.22 3977.92,2842.55 3976.5,2843.5C 3971.5,2843.26 3966.67,2843.92 3962,2845.5C 3958.35,2843.32 3954.52,2842.98 3950.5,2844.5C 3949.3,2844.15 3949.3,2843.65 3950.5,2843C 3947.83,2842.43 3945.17,2841.93 3942.5,2841.5C 3941.79,2840.6 3940.79,2840.26 3939.5,2840.5C 3930.64,2837.25 3922.47,2831.92 3915,2824.5C 3914.67,2824.83 3914.33,2825.17 3914,2825.5C 3864.95,2757.24 3815.79,2689.07 3766.5,2621C 3766.83,2620.67 3767.17,2620.33 3767.5,2620C 3766.58,2617.71 3765.58,2615.54 3764.5,2613.5C 3762.82,2604.26 3762.15,2594.92 3762.5,2585.5C 3763.81,2583.78 3763.81,2581.94 3762.5,2580C 3764.81,2578.21 3765.14,2576.04 3763.5,2573.5C 3763.85,2572.3 3764.35,2572.3 3765,2573.5C 3765.71,2571.1 3765.54,2568.77 3764.5,2566.5C 3764.85,2565.3 3765.35,2565.3 3766,2566.5C 3766.5,2564 3767,2561.5 3767.5,2559C 3768.22,2555.86 3768.22,2552.53 3767.5,2549C 3769.73,2546.98 3770.06,2544.64 3768.5,2542C 3771.1,2538.69 3771.76,2535.02 3770.5,2531C 3772.65,2528.93 3772.98,2526.59 3771.5,2524C 3773.81,2522.21 3774.14,2520.04 3772.5,2517.5C 3772.85,2516.3 3773.35,2516.3 3774,2517.5C 3774.5,2515.53 3774.66,2513.53 3774.5,2511.5C 3776.13,2507.68 3776.47,2503.68 3775.5,2499.5C 3777.72,2497.44 3778.06,2495.1 3776.5,2492.5C 3776.85,2491.3 3777.35,2491.3 3778,2492.5C 3778.5,2490.53 3778.66,2488.53 3778.5,2486.5C 3779.46,2478.35 3780.79,2470.01 3782.5,2461.5C 3783.8,2460.12 3783.8,2458.62 3782.5,2457C 3784.65,2454.93 3784.98,2452.59 3783.5,2450C 3785.67,2448.14 3786.01,2445.97 3784.5,2443.5C 3786.72,2441.44 3787.06,2439.1 3785.5,2436.5C 3785.85,2435.3 3786.35,2435.3 3787,2436.5C 3787.5,2434.53 3787.66,2432.53 3787.5,2430.5C 3788.81,2428.78 3788.81,2426.94 3787.5,2425C 3789.81,2423.21 3790.14,2421.04 3788.5,2418.5C 3790.72,2416.44 3791.06,2414.1 3789.5,2411.5C 3789.85,2410.3 3790.35,2410.3 3791,2411.5C 3791.5,2409.53 3791.66,2407.53 3791.5,2405.5C 3792.78,2397.53 3794.11,2389.19 3795.5,2380.5C 3796.8,2379.12 3796.8,2377.62 3795.5,2376C 3797.65,2373.93 3797.98,2371.59 3796.5,2369C 3798.81,2367.21 3799.14,2365.04 3797.5,2362.5C 3799.72,2360.44 3800.06,2358.1 3798.5,2355.5C 3798.85,2354.3 3799.35,2354.3 3800,2355.5C 3800.5,2353.53 3800.66,2351.53 3800.5,2349.5C 3801.73,2347.98 3801.73,2346.32 3800.5,2344.5C 3802.72,2342.44 3803.06,2340.1 3801.5,2337.5C 3801.85,2336.3 3802.35,2336.3 3803,2337.5C 3803.76,2335.23 3803.59,2333.06 3802.5,2331C 3804.04,2329.31 3805.04,2327.31 3805.5,2325C 3814.57,2325.29 3823.57,2326.46 3832.5,2328.5C 3833.44,2328.39 3834.28,2328.06 3835,2327.5C 3836.59,2329.81 3838.59,2330.47 3841,2329.5C 3842.11,2331.04 3843.61,2331.7 3845.5,2331.5 Z M 3850.5,2436.5 C 3849.83,2436.5 3849.5,2436.83 3849.5,2437.5C 3848.4,2436.4 3848.24,2435.07 3849,2433.5C 3850.04,2434.24 3850.54,2435.24 3850.5,2436.5 Z M 3850.5,2436.5 C 3852.28,2439.69 3853.62,2442.69 3854.5,2445.5C 3856.38,2450.25 3858.72,2455.25 3861.5,2460.5C 3866.74,2471.31 3871.74,2482.31 3876.5,2493.5C 3878.59,2496.09 3879.93,2499.09 3880.5,2502.5C 3882.01,2504.18 3883.01,2506.18 3883.5,2508.5C 3884.67,2509.51 3885.34,2510.85 3885.5,2512.5C 3886.4,2513.29 3887.07,2514.29 3887.5,2515.5C 3888.49,2516.8 3889.49,2518.13 3890.5,2519.5C 3892.83,2523.17 3895.83,2526.17 3899.5,2528.5C 3902.05,2529.93 3904.38,2531.6 3906.5,2533.5C 3908.11,2533.94 3909.28,2534.94 3910,2536.5C 3911.02,2535.37 3911.68,2535.7 3912,2537.5C 3912.98,2536.23 3913.81,2536.23 3914.5,2537.5C 3918.25,2538.31 3921.75,2539.64 3925,2541.5C 3925.89,2540.92 3926.89,2540.59 3928,2540.5C 3933.39,2541.07 3938.73,2541.73 3944,2542.5C 3947.52,2540.6 3951.35,2539.6 3955.5,2539.5C 3957.71,2538 3959.88,2537 3962,2536.5C 3962.33,2536.83 3962.67,2537.17 3963,2537.5C 4009.14,2504.42 4055.14,2471.09 4101,2437.5C 4106.67,2445.5 4112.33,2453.5 4118,2461.5C 4119.89,2467.03 4121.06,2472.37 4121.5,2477.5C 4124.62,2488.57 4126.95,2499.24 4128.5,2509.5C 4131.04,2518.53 4133.04,2527.53 4134.5,2536.5C 4135.45,2537.92 4135.78,2539.59 4135.5,2541.5C 4138.05,2550.61 4140.05,2559.61 4141.5,2568.5C 4142.45,2569.92 4142.78,2571.59 4142.5,2573.5C 4145.08,2584.25 4147.42,2594.92 4149.5,2605.5C 4151.97,2614.65 4153.97,2623.65 4155.5,2632.5C 4156.8,2635.79 4157.8,2639.29 4158.5,2643C 4158.36,2644.3 4157.69,2645.13 4156.5,2645.5C 4155.2,2646.49 4153.87,2647.49 4152.5,2648.5C 4150.38,2650.4 4148.05,2652.07 4145.5,2653.5C 4143.38,2655.4 4141.05,2657.07 4138.5,2658.5C 4137.31,2659.36 4136.15,2660.36 4135,2661.5C 4134.67,2661.17 4134.33,2660.83 4134,2660.5C 4132.55,2663.3 4130.38,2665.3 4127.5,2666.5C 4125.38,2668.4 4123.05,2670.07 4120.5,2671.5C 4119.31,2672.36 4118.15,2673.36 4117,2674.5C 4116.67,2674.17 4116.33,2673.83 4116,2673.5C 4114.55,2676.3 4112.38,2678.3 4109.5,2679.5C 4107.38,2681.4 4105.05,2683.07 4102.5,2684.5C 4100.02,2686.36 4097.69,2688.03 4095.5,2689.5C 4094.2,2690.49 4092.87,2691.49 4091.5,2692.5C 4089.38,2694.4 4087.05,2696.07 4084.5,2697.5C 4082.38,2699.4 4080.05,2701.07 4077.5,2702.5C 4076.2,2703.49 4074.87,2704.49 4073.5,2705.5C 4071.38,2707.4 4069.05,2709.07 4066.5,2710.5C 4064.38,2712.4 4062.05,2714.07 4059.5,2715.5C 4058.31,2716.36 4057.15,2717.36 4056,2718.5C 4055.67,2718.17 4055.33,2717.83 4055,2717.5C 4053.55,2720.3 4051.38,2722.3 4048.5,2723.5C 4046.38,2725.4 4044.05,2727.07 4041.5,2728.5C 4039.02,2730.36 4036.69,2732.03 4034.5,2733.5C 4033.2,2734.49 4031.87,2735.49 4030.5,2736.5C 4028.38,2738.4 4026.05,2740.07 4023.5,2741.5C 4021.38,2743.4 4019.05,2745.07 4016.5,2746.5C 4015.2,2747.49 4013.87,2748.49 4012.5,2749.5C 4010.38,2751.4 4008.05,2753.07 4005.5,2754.5C 4003.38,2756.4 4001.05,2758.07 3998.5,2759.5C 3997.31,2760.36 3996.15,2761.36 3995,2762.5C 3994.67,2762.17 3994.33,2761.83 3994,2761.5C 3992.55,2764.3 3990.38,2766.3 3987.5,2767.5C 3985.38,2769.4 3983.05,2771.07 3980.5,2772.5C 3978.02,2774.36 3975.69,2776.03 3973.5,2777.5C 3972.2,2778.49 3970.87,2779.49 3969.5,2780.5C 3965.59,2784.58 3961.26,2784.42 3956.5,2780C 3956.83,2779.67 3957.17,2779.33 3957.5,2779C 3956.17,2778 3954.83,2777 3953.5,2776C 3953.83,2775.67 3954.17,2775.33 3954.5,2775C 3952.5,2773 3950.5,2771 3948.5,2769C 3948.83,2768.67 3949.17,2768.33 3949.5,2768C 3947.5,2766 3945.5,2764 3943.5,2762C 3943.83,2761.67 3944.17,2761.33 3944.5,2761C 3943.17,2760 3941.83,2759 3940.5,2758C 3940.83,2757.67 3941.17,2757.33 3941.5,2757C 3939.32,2756.56 3938.65,2755.56 3939.5,2754C 3938.17,2753 3936.83,2752 3935.5,2751C 3935.83,2750.67 3936.17,2750.33 3936.5,2750C 3934.5,2748 3932.5,2746 3930.5,2744C 3930.83,2743.67 3931.17,2743.33 3931.5,2743C 3929.5,2741 3927.5,2739 3925.5,2737C 3925.83,2736.67 3926.17,2736.33 3926.5,2736C 3925.17,2735 3923.83,2734 3922.5,2733C 3922.83,2732.67 3923.17,2732.33 3923.5,2732C 3921.5,2730 3919.5,2728 3917.5,2726C 3917.83,2725.67 3918.17,2725.33 3918.5,2725C 3916.5,2723 3914.5,2721 3912.5,2719C 3912.83,2718.67 3913.17,2718.33 3913.5,2718C 3912.17,2717 3910.83,2716 3909.5,2715C 3909.83,2714.67 3910.17,2714.33 3910.5,2714C 3908.5,2712 3906.5,2710 3904.5,2708C 3904.83,2707.67 3905.17,2707.33 3905.5,2707C 3902.51,2702.02 3898.85,2697.69 3894.5,2694C 3894.83,2693.67 3895.17,2693.33 3895.5,2693C 3894.17,2692 3892.83,2691 3891.5,2690C 3891.83,2689.67 3892.17,2689.33 3892.5,2689C 3890.5,2687 3888.5,2685 3886.5,2683C 3886.83,2682.67 3887.17,2682.33 3887.5,2682C 3885.5,2680 3883.5,2678 3881.5,2676C 3881.83,2675.67 3882.17,2675.33 3882.5,2675C 3881.17,2674 3879.83,2673 3878.5,2672C 3878.83,2671.67 3879.17,2671.33 3879.5,2671C 3877.5,2669 3875.5,2667 3873.5,2665C 3873.83,2664.67 3874.17,2664.33 3874.5,2664C 3872.5,2662 3870.5,2660 3868.5,2658C 3868.83,2657.67 3869.17,2657.33 3869.5,2657C 3868.17,2656 3866.83,2655 3865.5,2654C 3865.83,2653.67 3866.17,2653.33 3866.5,2653C 3864.5,2651 3862.5,2649 3860.5,2647C 3860.83,2646.67 3861.17,2646.33 3861.5,2646C 3859.5,2644 3857.5,2642 3855.5,2640C 3855.83,2639.67 3856.17,2639.33 3856.5,2639C 3855.17,2638 3853.83,2637 3852.5,2636C 3852.83,2635.67 3853.17,2635.33 3853.5,2635C 3851.5,2633 3849.5,2631 3847.5,2629C 3847.83,2628.67 3848.17,2628.33 3848.5,2628C 3844.83,2623.67 3841.17,2619.33 3837.5,2615C 3837.83,2614.67 3838.17,2614.33 3838.5,2614C 3837.17,2613 3835.83,2612 3834.5,2611C 3834.83,2610.67 3835.17,2610.33 3835.5,2610C 3833.5,2608 3831.5,2606 3829.5,2604C 3829.83,2603.67 3830.17,2603.33 3830.5,2603C 3828.5,2601 3826.5,2599 3824.5,2597C 3825.35,2595.44 3824.68,2594.44 3822.5,2594C 3823.76,2588.93 3824.76,2583.76 3825.5,2578.5C 3825.71,2577.01 3826.38,2575.84 3827.5,2575C 3826.02,2572.41 3826.35,2570.07 3828.5,2568C 3827.2,2566.38 3827.2,2564.88 3828.5,2563.5C 3830.93,2544.25 3833.93,2525.59 3837.5,2507.5C 3839.21,2498.99 3840.54,2490.65 3841.5,2482.5C 3843.68,2474.13 3845.01,2465.8 3845.5,2457.5C 3845.34,2455.47 3845.5,2453.47 3846,2451.5C 3846.65,2452.7 3847.15,2452.7 3847.5,2451.5C 3845.94,2448.9 3846.28,2446.56 3848.5,2444.5C 3847.07,2441.88 3847.41,2439.55 3849.5,2437.5C 3850.17,2437.5 3850.5,2437.17 3850.5,2436.5 Z"/></g>
<g><path style="opacity:0.004" fill="#fefffe" d="M 3845.5,2330.5 C 3846.83,2331.17 3846.83,2331.17 3845.5,2330.5 Z"/></g>
<g><path style="opacity:0.004" fill="#fefffe" d="M 3870.5,2341.5 C 3871.83,2342.17 3871.83,2342.17 3870.5,2341.5 Z"/></g>
<g><path style="opacity:0.004" fill="#fefffe" d="M 3800.5,2349.5 C 3799.83,2348.17 3799.83,2348.17 3800.5,2349.5 Z"/></g>
<g><path style="opacity:0.004" fill="#fefffe" d="M 3882.5,2356.5 C 3883.83,2357.17 3883.83,2357.17 3882.5,2356.5 Z"/></g>
<g><path style="opacity:0.004" fill="#fefffe" d="M 3886.5,2365.5 C 3887.83,2366.17 3887.83,2366.17 3886.5,2365.5 Z"/></g>
<g><path style="opacity:0.004" fill="#fefffe" d="M 3795.5,2372.5 C 3796.83,2373.17 3796.83,2373.17 3795.5,2372.5 Z"/></g>
<g><path style="opacity:0.004" fill="#fefffe" d="M 3890.5,2374.5 C 3891.83,2375.17 3891.83,2375.17 3890.5,2374.5 Z"/></g>
<g><path style="opacity:0.004" fill="#fefffe" d="M 4109.5,2375.5 C 4110.83,2376.17 4110.83,2376.17 4109.5,2375.5 Z"/></g>
<g><path style="opacity:0.004" fill="#fefffe" d="M 3795.5,2380.5 C 3794.83,2379.17 3794.83,2379.17 3795.5,2380.5 Z"/></g>
<g><path style="opacity:0.004" fill="#fefffe" d="M 4077.5,2380.5 C 4076.83,2379.17 4076.83,2379.17 4077.5,2380.5 Z"/></g>
<g><path style="opacity:0.004" fill="#fefffe" d="M 4073.5,2382.5 C 4072.83,2381.17 4072.83,2381.17 4073.5,2382.5 Z"/></g>
<g><path style="opacity:0.004" fill="#fefffe" d="M 4132.5,2383.5 C 4133.83,2384.17 4133.83,2384.17 4132.5,2383.5 Z"/></g>
<g><path style="opacity:0.004" fill="#fefffe" d="M 4135.5,2385.5 C 4136.83,2386.17 4136.83,2386.17 4135.5,2385.5 Z"/></g>
<g><path style="opacity:0.004" fill="#fefffe" d="M 3896.5,2387.5 C 3897.83,2388.17 3897.83,2388.17 3896.5,2387.5 Z"/></g>
<g><path style="opacity:0.004" fill="#fefffe" d="M 3791.5,2397.5 C 3792.83,2398.17 3792.83,2398.17 3791.5,2397.5 Z"/></g>
<g><path style="opacity:0.004" fill="#fefffe" d="M 3791.5,2405.5 C 3790.83,2404.17 3790.83,2404.17 3791.5,2405.5 Z"/></g>
<g><path style="opacity:0.004" fill="#fefffe" d="M 3787.5,2430.5 C 3786.47,2430.1 3786.31,2429.44 3787,2428.5C 3787.46,2429.09 3787.63,2429.76 3787.5,2430.5 Z"/></g>
<g><path style="opacity:0.004" fill="#fefffe" d="M 3918.5,2435.5 C 3919.83,2436.17 3919.83,2436.17 3918.5,2435.5 Z"/></g>
<g><path style="opacity:0.004" fill="#fefffe" d="M 3783.5,2446.5 C 3784.83,2447.17 3784.83,2447.17 3783.5,2446.5 Z"/></g>
<g><path style="opacity:0.004" fill="#fefffe" d="M 3782.5,2453.5 C 3783.83,2454.17 3783.83,2454.17 3782.5,2453.5 Z"/></g>
<g><path style="opacity:0.004" fill="#fefffe" d="M 3929.5,2459.5 C 3930.83,2460.17 3930.83,2460.17 3929.5,2459.5 Z"/></g>
<g><path style="opacity:0.004" fill="#fefffe" d="M 3782.5,2461.5 C 3781.83,2460.17 3781.83,2460.17 3782.5,2461.5 Z"/></g>
<g><path style="opacity:0.004" fill="#fefffe" d="M 4181.5,2461.5 C 4182.83,2462.17 4182.83,2462.17 4181.5,2461.5 Z"/></g>
<g><path style="opacity:0.004" fill="#fefffe" d="M 4182.5,2466.5 C 4183.83,2467.17 4183.83,2467.17 4182.5,2466.5 Z"/></g>
<g><path style="opacity:0.004" fill="#fefffe" d="M 3933.5,2468.5 C 3934.83,2469.17 3934.83,2469.17 3933.5,2468.5 Z"/></g>
<g><path style="opacity:0.004" fill="#fefffe" d="M 3779.5,2471.5 C 3780.83,2472.17 3780.83,2472.17 3779.5,2471.5 Z"/></g>
<g><path style="opacity:0.004" fill="#fefffe" d="M 3935.5,2472.5 C 3936.83,2473.17 3936.83,2473.17 3935.5,2472.5 Z"/></g>
<g><path style="opacity:0.004" fill="#fefffe" d="M 3778.5,2478.5 C 3779.83,2479.17 3779.83,2479.17 3778.5,2478.5 Z"/></g>
<g><path style="opacity:0.004" fill="#fefffe" d="M 3778.5,2486.5 C 3777.47,2486.1 3777.31,2485.44 3778,2484.5C 3778.46,2485.09 3778.63,2485.76 3778.5,2486.5 Z"/></g>
<g><path style="opacity:0.004" fill="#fefffe" d="M 4188.5,2493.5 C 4189.83,2494.17 4189.83,2494.17 4188.5,2493.5 Z"/></g>
<g><path style="opacity:0.004" fill="#fefffe" d="M 3774.5,2502.5 C 3775.53,2502.9 3775.69,2503.56 3775,2504.5C 3774.54,2503.91 3774.37,2503.24 3774.5,2502.5 Z"/></g>
<g><path style="opacity:0.004" fill="#fefffe" d="M 3774.5,2511.5 C 3773.47,2511.1 3773.31,2510.44 3774,2509.5C 3774.46,2510.09 3774.63,2510.76 3774.5,2511.5 Z"/></g>
<g><path style="opacity:0.004" fill="#fefffe" d="M 4192.5,2512.5 C 4193.83,2513.17 4193.83,2513.17 4192.5,2512.5 Z"/></g>
<g><path style="opacity:0.004" fill="#fefffe" d="M 4194.5,2520.5 C 4195.83,2521.17 4195.83,2521.17 4194.5,2520.5 Z"/></g>
<g><path style="opacity:0.004" fill="#fefffe" d="M 4195.5,2525.5 C 4196.83,2526.17 4196.83,2526.17 4195.5,2525.5 Z"/></g>
<g><path style="opacity:0.004" fill="#fefffe" d="M 3770.5,2527.5 C 3771.83,2528.17 3771.83,2528.17 3770.5,2527.5 Z"/></g>
<g><path style="opacity:0.004" fill="#fefffe" d="M 4196.5,2530.5 C 4197.83,2531.17 4197.83,2531.17 4196.5,2530.5 Z"/></g>
<g><path style="opacity:0.004" fill="#fefffe" d="M 3769.5,2534.5 C 3770.83,2535.17 3770.83,2535.17 3769.5,2534.5 Z"/></g>
<g><path style="opacity:0.004" fill="#fefffe" d="M 3766.5,2552.5 C 3767.83,2553.17 3767.83,2553.17 3766.5,2552.5 Z"/></g>
<g><path style="opacity:0.004" fill="#fefffe" d="M 4202.5,2557.5 C 4203.83,2558.17 4203.83,2558.17 4202.5,2557.5 Z"/></g>
<g><path style="opacity:0.004" fill="#fefffe" d="M 3765.5,2559.5 C 3766.83,2560.17 3766.83,2560.17 3765.5,2559.5 Z"/></g>
<g><path style="opacity:0.004" fill="#fefffe" d="M 4205.5,2571.5 C 4206.83,2572.17 4206.83,2572.17 4205.5,2571.5 Z"/></g>
<g><path style="opacity:0.004" fill="#fefffe" d="M 4206.5,2576.5 C 4207.83,2577.17 4207.83,2577.17 4206.5,2576.5 Z"/></g>
<g><path style="opacity:0.004" fill="#fefffe" d="M 3762.5,2577.5 C 3763.83,2578.17 3763.83,2578.17 3762.5,2577.5 Z"/></g>
<g><path style="opacity:0.004" fill="#fefffe" d="M 4207.5,2579.5 C 4208.83,2580.17 4208.83,2580.17 4207.5,2579.5 Z"/></g>
<g><path style="opacity:0.004" fill="#fefffe" d="M 3762.5,2585.5 C 3761.47,2585.1 3761.31,2584.44 3762,2583.5C 3762.46,2584.09 3762.63,2584.76 3762.5,2585.5 Z"/></g>
<g><path style="opacity:0.004" fill="#fefffe" d="M 4208.5,2584.5 C 4209.83,2585.17 4209.83,2585.17 4208.5,2584.5 Z"/></g>
<g><path style="opacity:0.004" fill="#fefffe" d="M 4210.5,2594.5 C 4211.83,2595.17 4211.83,2595.17 4210.5,2594.5 Z"/></g>
<g><path style="opacity:0.004" fill="#fefffe" d="M 3760.5,2595.5 C 3761.83,2596.17 3761.83,2596.17 3760.5,2595.5 Z"/></g>
<g><path style="opacity:0.004" fill="#fefffe" d="M 3760.5,2597.5 C 3761.83,2598.17 3761.83,2598.17 3760.5,2597.5 Z"/></g>
<g><path style="opacity:0.004" fill="#fefffe" d="M 3761.5,2605.5 C 3762.83,2606.17 3762.83,2606.17 3761.5,2605.5 Z"/></g>
<g><path style="opacity:0.004" fill="#fefffe" d="M 3764.5,2613.5 C 3763.83,2614.17 3763.83,2614.17 3764.5,2613.5 Z"/></g>
<g><path style="opacity:0.004" fill="#fefffe" d="M 4218.5,2630.5 C 4219.83,2631.17 4219.83,2631.17 4218.5,2630.5 Z"/></g>
<g><path style="opacity:0.004" fill="#fefffe" d="M 4219.5,2635.5 C 4220.83,2636.17 4220.83,2636.17 4219.5,2635.5 Z"/></g>
<g><path style="opacity:0.004" fill="#fefffe" d="M 4220.5,2640.5 C 4221.83,2641.17 4221.83,2641.17 4220.5,2640.5 Z"/></g>
<g><path style="opacity:0.004" fill="#fefffe" d="M 4220.5,2645.5 C 4221.83,2646.17 4221.83,2646.17 4220.5,2645.5 Z"/></g>
<g><path style="opacity:0.004" fill="#fefffe" d="M 4220.5,2650.5 C 4221.83,2651.17 4221.83,2651.17 4220.5,2650.5 Z"/></g>
<g><path style="opacity:0.004" fill="#fefffe" d="M 3706.5,2652.5 C 3707.83,2653.17 3707.83,2653.17 3706.5,2652.5 Z"/></g>
<g><path style="opacity:0.004" fill="#fefffe" d="M 3699.5,2654.5 C 3698.83,2653.17 3698.83,2653.17 3699.5,2654.5 Z"/></g>
<g><path style="opacity:0.004" fill="#fefffe" d="M 3693.5,2656.5 C 3692.83,2655.17 3692.83,2655.17 3693.5,2656.5 Z"/></g>
<g><path style="opacity:1" fill="#c1c1c1" d="M 3699.5,2654.5 C 3705.46,2654.68 3711.29,2654.68 3717,2654.5C 3717.92,2656.38 3719.42,2657.38 3721.5,2657.5C 3724.64,2659.58 3727.64,2661.91 3730.5,2664.5C 3730.43,2666.03 3731.09,2667.03 3732.5,2667.5C 3733.81,2670.14 3735.48,2672.47 3737.5,2674.5C 3739.93,2678.38 3742.6,2682.05 3745.5,2685.5C 3746.81,2688.14 3748.48,2690.47 3750.5,2692.5C 3752.93,2696.38 3755.6,2700.05 3758.5,2703.5C 3759.81,2706.14 3761.48,2708.47 3763.5,2710.5C 3764.81,2713.14 3766.48,2715.47 3768.5,2717.5C 3769.03,2719.23 3770.03,2720.56 3771.5,2721.5C 3772.81,2724.14 3774.48,2726.47 3776.5,2728.5C 3777.81,2731.14 3779.48,2733.47 3781.5,2735.5C 3783.93,2739.38 3786.6,2743.05 3789.5,2746.5C 3790.81,2749.14 3792.48,2751.47 3794.5,2753.5C 3796.93,2757.38 3799.6,2761.05 3802.5,2764.5C 3803.81,2767.14 3805.48,2769.47 3807.5,2771.5C 3808.81,2774.14 3810.48,2776.47 3812.5,2778.5C 3813.03,2780.23 3814.03,2781.56 3815.5,2782.5C 3816.81,2785.14 3818.48,2787.47 3820.5,2789.5C 3821.81,2792.14 3823.48,2794.47 3825.5,2796.5C 3827.93,2800.38 3830.6,2804.05 3833.5,2807.5C 3834.81,2810.14 3836.48,2812.47 3838.5,2814.5C 3840.93,2818.38 3843.6,2822.05 3846.5,2825.5C 3847.81,2828.14 3849.48,2830.47 3851.5,2832.5C 3852.81,2835.14 3854.48,2837.47 3856.5,2839.5C 3857.03,2841.23 3858.03,2842.56 3859.5,2843.5C 3860.81,2846.14 3862.48,2848.47 3864.5,2850.5C 3865.81,2853.14 3867.48,2855.47 3869.5,2857.5C 3871.93,2861.38 3874.6,2865.05 3877.5,2868.5C 3878.81,2871.14 3880.48,2873.47 3882.5,2875.5C 3884.23,2879.12 3886.56,2882.29 3889.5,2885C 3889.04,2885.41 3888.71,2885.91 3888.5,2886.5C 3889.03,2888.34 3889.69,2890 3890.5,2891.5C 3890.28,2896.79 3890.28,2901.96 3890.5,2907C 3888.15,2911.22 3885.15,2915.56 3881.5,2920C 3864.81,2932.34 3847.81,2944.17 3830.5,2955.5C 3828.62,2955.12 3827.12,2954.12 3826,2952.5C 3764.67,2867.17 3703.33,2781.83 3642,2696.5C 3641.29,2694.63 3641.79,2693.13 3643.5,2692C 3660.07,2679.92 3676.74,2668.08 3693.5,2656.5C 3695.7,2656.12 3697.7,2655.46 3699.5,2654.5 Z"/></g>
<g><path style="opacity:0.004" fill="#fefffe" d="M 3721.5,2656.5 C 3722.83,2657.17 3722.83,2657.17 3721.5,2656.5 Z"/></g>
<g><path style="opacity:0.004" fill="#fefffe" d="M 3730.5,2663.5 C 3731.83,2664.17 3731.83,2664.17 3730.5,2663.5 Z"/></g>
<g><path style="opacity:0.004" fill="#fefffe" d="M 3732.5,2666.5 C 3733.83,2667.17 3733.83,2667.17 3732.5,2666.5 Z"/></g>
<g><path style="opacity:0.004" fill="#fefffe" d="M 3737.5,2673.5 C 3738.83,2674.17 3738.83,2674.17 3737.5,2673.5 Z"/></g>
<g><path style="opacity:0.004" fill="#fefffe" d="M 4211.5,2676.5 C 4212.83,2677.17 4212.83,2677.17 4211.5,2676.5 Z"/></g>
<g><path style="opacity:0.004" fill="#fefffe" d="M 3745.5,2684.5 C 3746.83,2685.17 3746.83,2685.17 3745.5,2684.5 Z"/></g>
<g><path style="opacity:0.004" fill="#fefffe" d="M 3750.5,2691.5 C 3751.83,2692.17 3751.83,2692.17 3750.5,2691.5 Z"/></g>
<g><path style="opacity:0.004" fill="#fefffe" d="M 3758.5,2702.5 C 3759.83,2703.17 3759.83,2703.17 3758.5,2702.5 Z"/></g>
<g><path style="opacity:0.004" fill="#fefffe" d="M 3763.5,2709.5 C 3764.83,2710.17 3764.83,2710.17 3763.5,2709.5 Z"/></g>
<g><path style="opacity:0.004" fill="#fefffe" d="M 3768.5,2716.5 C 3769.83,2717.17 3769.83,2717.17 3768.5,2716.5 Z"/></g>
<g><path style="opacity:0.004" fill="#fefffe" d="M 3771.5,2720.5 C 3772.83,2721.17 3772.83,2721.17 3771.5,2720.5 Z"/></g>
<g><path style="opacity:0.004" fill="#fefffe" d="M 3776.5,2727.5 C 3777.83,2728.17 3777.83,2728.17 3776.5,2727.5 Z"/></g>
<g><path style="opacity:0.004" fill="#fefffe" d="M 3781.5,2734.5 C 3782.83,2735.17 3782.83,2735.17 3781.5,2734.5 Z"/></g>
<g><path style="opacity:0.004" fill="#fefffe" d="M 3789.5,2745.5 C 3790.83,2746.17 3790.83,2746.17 3789.5,2745.5 Z"/></g>
<g><path style="opacity:0.004" fill="#fefffe" d="M 3794.5,2752.5 C 3795.83,2753.17 3795.83,2753.17 3794.5,2752.5 Z"/></g>
<g><path style="opacity:0.004" fill="#fefffe" d="M 3802.5,2763.5 C 3803.83,2764.17 3803.83,2764.17 3802.5,2763.5 Z"/></g>
<g><path style="opacity:0.004" fill="#fefffe" d="M 3807.5,2770.5 C 3808.83,2771.17 3808.83,2771.17 3807.5,2770.5 Z"/></g>
<g><path style="opacity:0.004" fill="#fefffe" d="M 3812.5,2777.5 C 3813.83,2778.17 3813.83,2778.17 3812.5,2777.5 Z"/></g>
<g><path style="opacity:0.004" fill="#fefffe" d="M 3815.5,2781.5 C 3816.83,2782.17 3816.83,2782.17 3815.5,2781.5 Z"/></g>
<g><path style="opacity:0.004" fill="#fefffe" d="M 3820.5,2788.5 C 3821.83,2789.17 3821.83,2789.17 3820.5,2788.5 Z"/></g>
<g><path style="opacity:0.004" fill="#fefffe" d="M 3825.5,2795.5 C 3826.83,2796.17 3826.83,2796.17 3825.5,2795.5 Z"/></g>
<g><path style="opacity:0.004" fill="#fefffe" d="M 3833.5,2806.5 C 3834.83,2807.17 3834.83,2807.17 3833.5,2806.5 Z"/></g>
<g><path style="opacity:0.004" fill="#fefffe" d="M 3838.5,2813.5 C 3839.83,2814.17 3839.83,2814.17 3838.5,2813.5 Z"/></g>
<g><path style="opacity:0.004" fill="#fefffe" d="M 3846.5,2824.5 C 3847.83,2825.17 3847.83,2825.17 3846.5,2824.5 Z"/></g>
<g><path style="opacity:0.004" fill="#fefffe" d="M 3851.5,2831.5 C 3852.83,2832.17 3852.83,2832.17 3851.5,2831.5 Z"/></g>
<g><path style="opacity:0.004" fill="#fefffe" d="M 3856.5,2838.5 C 3857.83,2839.17 3857.83,2839.17 3856.5,2838.5 Z"/></g>
<g><path style="opacity:0.004" fill="#fefffe" d="M 3939.5,2840.5 C 3938.83,2841.17 3938.83,2841.17 3939.5,2840.5 Z"/></g>
<g><path style="opacity:0.004" fill="#fefffe" d="M 3942.5,2841.5 C 3941.83,2842.17 3941.83,2842.17 3942.5,2841.5 Z"/></g>
<g><path style="opacity:0.004" fill="#fefffe" d="M 3984.5,2841.5 C 3985.83,2842.17 3985.83,2842.17 3984.5,2841.5 Z"/></g>
<g><path style="opacity:0.004" fill="#fefffe" d="M 3859.5,2842.5 C 3860.83,2843.17 3860.83,2843.17 3859.5,2842.5 Z"/></g>
<g><path style="opacity:0.004" fill="#fefffe" d="M 3981.5,2842.5 C 3982.83,2843.17 3982.83,2843.17 3981.5,2842.5 Z"/></g>
<g><path style="opacity:0.004" fill="#fefffe" d="M 3976.5,2843.5 C 3977.83,2844.17 3977.83,2844.17 3976.5,2843.5 Z"/></g>
<g><path style="opacity:0.004" fill="#fefffe" d="M 3956.5,2844.5 C 3957.83,2845.17 3957.83,2845.17 3956.5,2844.5 Z"/></g>
<g><path style="opacity:0.004" fill="#fefffe" d="M 3968.5,2844.5 C 3969.83,2845.17 3969.83,2845.17 3968.5,2844.5 Z"/></g>
<g><path style="opacity:0.004" fill="#fefffe" d="M 3864.5,2849.5 C 3865.83,2850.17 3865.83,2850.17 3864.5,2849.5 Z"/></g>
<g><path style="opacity:0.004" fill="#fefffe" d="M 3869.5,2856.5 C 3870.83,2857.17 3870.83,2857.17 3869.5,2856.5 Z"/></g>
<g><path style="opacity:0.004" fill="#fefffe" d="M 3877.5,2867.5 C 3878.83,2868.17 3878.83,2868.17 3877.5,2867.5 Z"/></g>
<g><path style="opacity:0.004" fill="#fefffe" d="M 3882.5,2874.5 C 3883.83,2875.17 3883.83,2875.17 3882.5,2874.5 Z"/></g>
<g><path style="opacity:0.004" fill="#fefffe" d="M 3890.5,2890.5 C 3891.83,2891.17 3891.83,2891.17 3890.5,2890.5 Z"/></g>
</svg>
