<?xml version="1.0" encoding="UTF-8"?>
<!DOCTYPE svg PUBLIC "-//W3C//DTD SVG 1.1//EN" "http://www.w3.org/Graphics/SVG/1.1/DTD/svg11.dtd">
<svg xmlns="http://www.w3.org/2000/svg" version="1.1" width="4822px" height="3613px" style="shape-rendering:geometricPrecision; text-rendering:geometricPrecision; image-rendering:optimizeQuality; fill-rule:evenodd; clip-rule:evenodd" xmlns:xlink="http://www.w3.org/1999/xlink">
<g><path style="opacity:0.277" fill="#f5f5f5" d="M 4119.5,1421.5 C 4118.13,1421.34 4116.79,1421.51 4115.5,1422C 4127.8,1432.96 4138.63,1445.12 4148,1458.5C 4148.67,1457.75 4149.5,1457.41 4150.5,1457.5C 4153.06,1462.59 4155.9,1467.59 4159,1472.5C 4159.67,1482.5 4159.67,1492.5 4159,1502.5C 4158.33,1503.17 4157.67,1503.83 4157,1504.5C 4155.67,1514.5 4154.33,1524.5 4153,1534.5C 4152.33,1535.17 4151.67,1535.83 4151,1536.5C 4150.72,1540.04 4150.22,1543.54 4149.5,1547C 4149.64,1547.77 4149.98,1548.44 4150.5,1549C 4149.33,1550.83 4148.17,1552.67 4147,1554.5C 4146.67,1559.17 4146.33,1563.83 4146,1568.5C 4145.33,1569.17 4144.67,1569.83 4144,1570.5C 4143.67,1574.83 4143.33,1579.17 4143,1583.5C 4142.58,1584.67 4141.91,1585.67 4141,1586.5C 4140.68,1591.02 4140.18,1595.52 4139.5,1600C 4137.52,1606.82 4135.69,1613.66 4134,1620.5C 4133.77,1624.55 4133.27,1628.55 4132.5,1632.5C 4132.62,1633.11 4132.96,1633.44 4133.5,1633.5C 4132.12,1634.19 4130.79,1634.52 4129.5,1634.5C 4131.25,1635.4 4133.08,1636.06 4135,1636.5C 4190.47,1635.34 4245.97,1635.17 4301.5,1636C 4313.76,1636.35 4324.92,1639.85 4335,1646.5C 4335.48,1645.55 4335.65,1644.55 4335.5,1643.5C 4338.79,1646.4 4342.29,1649.07 4346,1651.5C 4350.36,1657.23 4354.2,1663.23 4357.5,1669.5C 4360,1670.43 4360.67,1671.93 4359.5,1674C 4359.95,1675.73 4360.78,1677.23 4362,1678.5C 4362.83,1702.17 4362.67,1725.84 4361.5,1749.5C 4359.56,1751.12 4359.23,1752.96 4360.5,1755C 4358.18,1758.49 4356.01,1761.99 4354,1765.5C 4352.02,1773.72 4348.69,1781.38 4344,1788.5C 4343.67,1790.5 4343.33,1792.5 4343,1794.5C 4340.48,1798.88 4338.48,1803.55 4337,1808.5C 4334.27,1810.83 4332.77,1813.83 4332.5,1817.5C 4331.48,1817.86 4330.81,1818.52 4330.5,1819.5C 4328.81,1820.47 4327.31,1821.81 4326,1823.5C 4323.8,1829.26 4321.3,1834.92 4318.5,1840.5C 4318.96,1841.3 4319.62,1841.63 4320.5,1841.5C 4319.77,1845.79 4318.44,1849.79 4316.5,1853.5C 4315.15,1852.83 4313.99,1852.83 4313,1853.5C 4312.89,1855.97 4311.89,1857.97 4310,1859.5C 4309.22,1861.39 4309.39,1863.05 4310.5,1864.5C 4310.8,1866.6 4310.47,1868.6 4309.5,1870.5C 4301.83,1885.85 4294.66,1901.51 4288,1917.5C 4287.67,1919.17 4287.33,1920.83 4287,1922.5C 4286.33,1923.25 4285.5,1923.59 4284.5,1923.5C 4284.63,1922.76 4284.46,1922.09 4284,1921.5C 4283.16,1923.84 4281.83,1925.84 4280,1927.5C 4280.05,1930.63 4279.05,1933.3 4277,1935.5C 4276.83,1936.33 4276.67,1937.17 4276.5,1938C 4276.68,1939.38 4277.35,1940.21 4278.5,1940.5C 4275.43,1947.75 4271.09,1954.25 4265.5,1960C 4261.17,1963.33 4256.83,1966.67 4252.5,1970C 4248.46,1972.4 4244.13,1974.06 4239.5,1975C 4142.5,1975.67 4045.5,1975.67 3948.5,1975C 3947.94,1974.62 3947.61,1974.12 3947.5,1973.5C 3947.92,1972.78 3948.58,1972.28 3949.5,1972C 3920.99,1962.49 3903.83,1942.99 3898,1913.5C 3897.5,1826.83 3897.33,1740.17 3897.5,1653.5C 3896.5,1653.5 3895.5,1653.5 3894.5,1653.5C 3893.92,1650.02 3894.75,1647.02 3897,1644.5C 3897.33,1642.17 3897.67,1639.83 3898,1637.5C 3902.33,1630.83 3906.67,1624.17 3911,1617.5C 3928.47,1600.03 3945.97,1582.53 3963.5,1565C 3967.36,1561.15 3971.52,1557.65 3976,1554.5C 3976.48,1553.55 3976.65,1552.55 3976.5,1551.5C 3979.77,1549.85 3982.77,1547.68 3985.5,1545C 4026.74,1503.89 4067.74,1462.55 4108.5,1421C 4112.44,1417.55 4116.1,1417.72 4119.5,1421.5 Z M 4081.5,1542.5 C 4081.66,1545.52 4081.5,1548.52 4081,1551.5C 4080.33,1552.17 4079.67,1552.83 4079,1553.5C 4078.06,1564.06 4076.39,1574.39 4074,1584.5C 4073.58,1585.67 4072.91,1586.67 4072,1587.5C 4070.22,1597.35 4068.89,1607.35 4068,1617.5C 4066.26,1618.72 4065.26,1620.38 4065,1622.5C 4064.33,1631.17 4064.33,1639.83 4065,1648.5C 4067.54,1654.47 4069.87,1660.47 4072,1666.5C 4072.71,1667.38 4073.54,1668.05 4074.5,1668.5C 4075.45,1670.78 4076.78,1672.78 4078.5,1674.5C 4086.14,1685.55 4096.48,1692.71 4109.5,1696C 4110.17,1696.67 4110.83,1697.33 4111.5,1698C 4173.5,1698.33 4235.5,1698.67 4297.5,1699C 4297.55,1708.96 4297.55,1719.12 4297.5,1729.5C 4293.09,1741.11 4287.93,1752.44 4282,1763.5C 4281.67,1765.17 4281.33,1766.83 4281,1768.5C 4279.29,1772.03 4277.29,1775.36 4275,1778.5C 4272.67,1785.5 4270.33,1792.5 4268,1799.5C 4265,1804.83 4262,1810.17 4259,1815.5C 4258.67,1817.83 4258.33,1820.17 4258,1822.5C 4254.15,1830.3 4250.15,1837.96 4246,1845.5C 4244.42,1850.02 4243.08,1854.69 4242,1859.5C 4240,1862.76 4238,1866.09 4236,1869.5C 4233.44,1877.18 4230.11,1884.51 4226,1891.5C 4225.81,1893.9 4225.31,1896.23 4224.5,1898.5C 4223.08,1901.98 4221.41,1905.31 4219.5,1908.5C 4219.5,1909.5 4219.5,1910.5 4219.5,1911.5C 4135.5,1911.67 4051.5,1911.5 3967.5,1911C 3964.92,1909.92 3963.25,1908.09 3962.5,1905.5C 3961.17,1824.12 3961.17,1742.79 3962.5,1661.5C 4001.49,1621.23 4041.15,1581.56 4081.5,1542.5 Z"/></g>
<g><path style="opacity:0.276" fill="#f5f5f5" d="M 902.5,1440.5 C 901.261,1441.21 900.761,1442.21 901,1443.5C 904.112,1446.45 907.612,1448.78 911.5,1450.5C 914.162,1453 916.662,1455.66 919,1458.5C 919.333,1460.17 919.667,1461.83 920,1463.5C 921.989,1466.46 924.156,1469.29 926.5,1472C 926.167,1472.33 925.833,1472.67 925.5,1473C 926.274,1475.41 926.774,1477.91 927,1480.5C 927.667,1481.17 928.333,1481.83 929,1482.5C 929.667,1573.5 929.667,1664.5 929,1755.5C 927.381,1760.69 925.214,1765.69 922.5,1770.5C 852.702,1840.03 782.535,1910.03 712,1980.5C 711.517,1981.45 711.351,1982.45 711.5,1983.5C 710.5,1983.5 709.5,1983.5 708.5,1983.5C 704.38,1976.86 699.213,1970.86 693,1965.5C 688.311,1959.42 683.644,1953.42 679,1947.5C 678.617,1948.06 678.117,1948.39 677.5,1948.5C 675.468,1947.95 674.468,1946.62 674.5,1944.5C 672.894,1937.6 670.394,1930.93 667,1924.5C 666.436,1921.85 665.936,1919.18 665.5,1916.5C 667.612,1907.54 669.112,1898.54 670,1889.5C 669.329,1890.25 668.496,1890.59 667.5,1890.5C 667.338,1888.47 667.505,1886.47 668,1884.5C 669.094,1882.92 669.928,1881.26 670.5,1879.5C 671.268,1880.26 671.768,1881.26 672,1882.5C 672.26,1878.58 673.26,1874.91 675,1871.5C 681.694,1836.53 688.194,1801.53 694.5,1766.5C 636.166,1766.67 577.832,1766.5 519.5,1766C 500.75,1763.79 485.75,1755.13 474.5,1740C 473.255,1739.21 471.922,1738.71 470.5,1738.5C 469.791,1737.6 468.791,1737.26 467.5,1737.5C 467.66,1735.8 467.494,1734.13 467,1732.5C 465.088,1729.03 463.421,1725.36 462,1721.5C 461.333,1698.5 461.333,1675.5 462,1652.5C 464.206,1646.62 466.873,1640.96 470,1635.5C 469.816,1632.12 470.983,1629.46 473.5,1627.5C 474.87,1622.43 477.037,1617.76 480,1613.5C 481.083,1608.69 482.417,1604.02 484,1599.5C 486,1596.24 488,1592.91 490,1589.5C 499.804,1565.33 509.804,1541.33 520,1517.5C 522.358,1513.99 524.358,1510.32 526,1506.5C 528.086,1502.54 529.419,1498.21 530,1493.5C 531.767,1490.09 533.767,1486.76 536,1483.5C 536.495,1481.53 536.662,1479.53 536.5,1477.5C 537.5,1477.5 538.5,1477.5 539.5,1477.5C 539.338,1475.47 539.505,1473.47 540,1471.5C 541.76,1468.33 543.594,1465.16 545.5,1462C 549.008,1452.87 554.341,1444.87 561.5,1438C 566.855,1434.63 572.188,1431.3 577.5,1428C 582.279,1426.27 587.279,1425.27 592.5,1425C 683.833,1424.33 775.167,1424.33 866.5,1425C 872.456,1425.12 878.122,1426.28 883.5,1428.5C 890.279,1431.76 896.613,1435.76 902.5,1440.5 Z M 856.5,1489.5 C 857.833,1490.93 859.333,1492.27 861,1493.5C 861.333,1494.83 861.667,1496.17 862,1497.5C 862.667,1578.17 862.667,1658.83 862,1739.5C 822.299,1780.03 782.466,1820.37 742.5,1860.5C 744.303,1852.07 745.47,1843.4 746,1834.5C 747.544,1832.53 748.711,1830.37 749.5,1828C 749.167,1827.67 748.833,1827.33 748.5,1827C 749.293,1823.59 749.793,1820.09 750,1816.5C 750.915,1815.67 751.581,1814.67 752,1813.5C 752.333,1809.17 752.667,1804.83 753,1800.5C 753.667,1799.83 754.333,1799.17 755,1798.5C 755.333,1793.5 755.667,1788.5 756,1783.5C 758.395,1781.83 759.562,1779.5 759.5,1776.5C 758.703,1772.2 758.37,1767.87 758.5,1763.5C 760.562,1757.98 759.729,1752.98 756,1748.5C 755.667,1746.17 755.333,1743.83 755,1741.5C 747.893,1729.27 738.727,1718.77 727.5,1710C 724.175,1710.22 721.842,1708.89 720.5,1706C 718.866,1705.51 717.199,1705.34 715.5,1705.5C 713.938,1705.27 712.605,1704.6 711.5,1703.5C 649.568,1702.84 587.568,1702.17 525.5,1701.5C 526.31,1691.21 526.81,1680.88 527,1670.5C 528.808,1666.39 530.641,1662.39 532.5,1658.5C 534.506,1654.49 536.506,1650.49 538.5,1646.5C 540.714,1637.23 544.381,1628.57 549.5,1620.5C 549.291,1619.91 548.957,1619.41 548.5,1619C 551.263,1615.46 553.429,1611.62 555,1607.5C 555.494,1605.87 555.66,1604.2 555.5,1602.5C 556.458,1602.05 557.292,1601.38 558,1600.5C 558.999,1597.17 560.499,1594.17 562.5,1591.5C 564.262,1588.19 565.262,1584.52 565.5,1580.5C 568.651,1575.59 570.984,1570.26 572.5,1564.5C 575.093,1562.93 576.093,1560.6 575.5,1557.5C 576.458,1557.05 577.292,1556.38 578,1555.5C 577.696,1551.44 579.196,1548.27 582.5,1546C 581.174,1543.13 582.008,1540.97 585,1539.5C 586.69,1535.3 588.023,1530.97 589,1526.5C 592.086,1522.33 594.086,1517.66 595,1512.5C 597.755,1510.99 598.921,1508.66 598.5,1505.5C 600.333,1502.19 602.166,1498.85 604,1495.5C 604.495,1493.53 604.662,1491.53 604.5,1489.5C 688.5,1489.5 772.5,1489.5 856.5,1489.5 Z"/></g>
<g><path style="opacity:0.273" fill="#f5f5f5" d="M 1082.5,1766.5 C 1059.11,1766.96 1035.78,1766.46 1012.5,1765C 1000.17,1761.17 992.503,1753 989.5,1740.5C 988.311,1739.57 986.978,1739.24 985.5,1739.5C 985.5,1738.83 985.5,1738.17 985.5,1737.5C 987.59,1737.55 988.923,1736.55 989.5,1734.5C 988.167,1642.17 988.167,1549.83 989.5,1457.5C 988.68,1455.89 987.346,1455.22 985.5,1455.5C 986.904,1451.25 988.07,1446.92 989,1442.5C 991.318,1439.21 993.651,1435.88 996,1432.5C 999.41,1430.17 1002.91,1428 1006.5,1426C 1031.8,1424.57 1057.13,1424.07 1082.5,1424.5C 1082.5,1538.5 1082.5,1652.5 1082.5,1766.5 Z"/></g>
<g><path style="opacity:0.042" fill="#dcdcdc" d="M 4119.5,1421.5 C 4126.77,1429.78 4134.44,1437.78 4142.5,1445.5C 4144.68,1449.87 4147.35,1453.87 4150.5,1457.5C 4149.5,1457.41 4148.67,1457.75 4148,1458.5C 4138.63,1445.12 4127.8,1432.96 4115.5,1422C 4116.79,1421.51 4118.13,1421.34 4119.5,1421.5 Z"/></g>
<g><path style="opacity:0.016" fill="#cbcbcb" d="M 902.5,1440.5 C 906.713,1442.77 909.713,1446.1 911.5,1450.5C 907.612,1448.78 904.112,1446.45 901,1443.5C 900.761,1442.21 901.261,1441.21 902.5,1440.5 Z"/></g>
<g><path style="opacity:0.017" fill="#fefefe" d="M 985.5,1455.5 C 987.346,1455.22 988.68,1455.89 989.5,1457.5C 988.167,1549.83 988.167,1642.17 989.5,1734.5C 988.923,1736.55 987.59,1737.55 985.5,1737.5C 985.5,1643.5 985.5,1549.5 985.5,1455.5 Z"/></g>
<g><path style="opacity:0.022" fill="#e7e7e7" d="M 858.5,1488.5 C 858.158,1489.34 857.492,1489.67 856.5,1489.5C 772.5,1489.5 688.5,1489.5 604.5,1489.5C 604.662,1491.53 604.495,1493.53 604,1495.5C 602.166,1498.85 600.333,1502.19 598.5,1505.5C 597.503,1505.53 596.836,1505.03 596.5,1504C 598.693,1500.11 600.193,1495.94 601,1491.5C 602.022,1490.65 602.855,1489.65 603.5,1488.5C 688.666,1487.17 773.666,1487.17 858.5,1488.5 Z"/></g>
<g><path style="opacity:0.036" fill="#d5d5d5" d="M 575.5,1557.5 C 576.093,1560.6 575.093,1562.93 572.5,1564.5C 570.984,1570.26 568.651,1575.59 565.5,1580.5C 564.861,1579.9 564.528,1579.07 564.5,1578C 566.77,1574.96 567.937,1571.46 568,1567.5C 570.377,1563.71 572.377,1559.71 574,1555.5C 574.278,1556.42 574.778,1557.08 575.5,1557.5 Z"/></g>
<g><path style="opacity:0.022" fill="#cccccc" d="M 562.5,1591.5 C 560.499,1594.17 558.999,1597.17 558,1600.5C 557.292,1601.38 556.458,1602.05 555.5,1602.5C 555.586,1601.5 555.252,1600.67 554.5,1600C 556.526,1596.73 558.026,1593.23 559,1589.5C 559.71,1590.97 560.876,1591.64 562.5,1591.5 Z"/></g>
<g><path style="opacity:0.027" fill="#dedede" d="M 4133.5,1633.5 C 4194.17,1633.33 4254.83,1633.5 4315.5,1634C 4322.26,1636.92 4328.93,1640.08 4335.5,1643.5C 4335.65,1644.55 4335.48,1645.55 4335,1646.5C 4324.92,1639.85 4313.76,1636.35 4301.5,1636C 4245.97,1635.17 4190.47,1635.34 4135,1636.5C 4133.08,1636.06 4131.25,1635.4 4129.5,1634.5C 4130.79,1634.52 4132.12,1634.19 4133.5,1633.5 Z"/></g>
<g><path style="opacity:0.277" fill="#f5f5f5" d="M 3741.5,1635.5 C 3765.2,1635.07 3788.87,1635.57 3812.5,1637C 3822.06,1640.6 3828.73,1647.1 3832.5,1656.5C 3833.67,1755.5 3833.83,1854.5 3833,1953.5C 3830.32,1962.18 3824.82,1968.35 3816.5,1972C 3817.42,1972.28 3818.08,1972.78 3818.5,1973.5C 3793.06,1975.48 3767.39,1976.14 3741.5,1975.5C 3741.5,1862.17 3741.5,1748.83 3741.5,1635.5 Z"/></g>
<g><path style="opacity:0.03" fill="#e4e4e4" d="M 4074.5,1668.5 C 4073.54,1668.05 4072.71,1667.38 4072,1666.5C 4069.87,1660.47 4067.54,1654.47 4065,1648.5C 4064.33,1639.83 4064.33,1631.17 4065,1622.5C 4065.26,1620.38 4066.26,1618.72 4068,1617.5C 4068.89,1607.35 4070.22,1597.35 4072,1587.5C 4072.91,1586.67 4073.58,1585.67 4074,1584.5C 4076.39,1574.39 4078.06,1564.06 4079,1553.5C 4079.67,1552.83 4080.33,1552.17 4081,1551.5C 4081.5,1548.52 4081.66,1545.52 4081.5,1542.5C 4083.69,1541.46 4083.69,1539.96 4081.5,1538C 4082.67,1536.83 4083.83,1535.67 4085,1534.5C 4085.4,1535.87 4085.9,1537.21 4086.5,1538.5C 4081.45,1562.84 4076.28,1587.17 4071,1611.5C 4069.46,1621.14 4068.29,1630.8 4067.5,1640.5C 4069.14,1645.38 4070.3,1650.38 4071,1655.5C 4072.76,1659.36 4074.59,1663.2 4076.5,1667C 4076.16,1668.03 4075.5,1668.53 4074.5,1668.5 Z"/></g>
<g><path style="opacity:0.026" fill="#dbdbdb" d="M 3894.5,1653.5 C 3895.5,1653.5 3896.5,1653.5 3897.5,1653.5C 3897.33,1740.17 3897.5,1826.83 3898,1913.5C 3903.83,1942.99 3920.99,1962.49 3949.5,1972C 3948.58,1972.28 3947.92,1972.78 3947.5,1973.5C 3945.47,1973.66 3943.47,1973.5 3941.5,1973C 3937.6,1970.75 3933.6,1968.58 3929.5,1966.5C 3924.92,1962.56 3920.09,1958.89 3915,1955.5C 3908.64,1947.2 3902.97,1938.53 3898,1929.5C 3898.08,1925.15 3897.08,1921.15 3895,1917.5C 3894.5,1829.5 3894.33,1741.5 3894.5,1653.5 Z"/></g>
<g><path style="opacity:0.023" fill="#fdfdfd" d="M 3838.5,1664.5 C 3838.5,1759.17 3838.5,1853.83 3838.5,1948.5C 3837.17,1948.5 3835.83,1948.5 3834.5,1948.5C 3834.33,1854.17 3834.5,1759.83 3835,1665.5C 3836.01,1664.66 3837.18,1664.33 3838.5,1664.5 Z"/></g>
<g><path style="opacity:0.067" fill="#e6e6e6" d="M 3838.5,1664.5 C 3837.18,1664.33 3836.01,1664.66 3835,1665.5C 3834.5,1759.83 3834.33,1854.17 3834.5,1948.5C 3835.83,1948.5 3837.17,1948.5 3838.5,1948.5C 3838.31,1950.2 3837.48,1951.53 3836,1952.5C 3835.67,1954.5 3835.33,1956.5 3835,1958.5C 3831.05,1963.93 3826.55,1968.77 3821.5,1973C 3820.55,1973.48 3819.55,1973.65 3818.5,1973.5C 3818.08,1972.78 3817.42,1972.28 3816.5,1972C 3824.82,1968.35 3830.32,1962.18 3833,1953.5C 3833.83,1854.5 3833.67,1755.5 3832.5,1656.5C 3828.73,1647.1 3822.06,1640.6 3812.5,1637C 3788.87,1635.57 3765.2,1635.07 3741.5,1635.5C 3753.31,1634.17 3765.48,1633.5 3778,1633.5C 3790.17,1633.67 3802.33,1633.83 3814.5,1634C 3817.91,1635.77 3821.24,1637.77 3824.5,1640C 3827.72,1644.17 3831.22,1648 3835,1651.5C 3835.11,1656.21 3836.28,1660.55 3838.5,1664.5 Z"/></g>
<g><path style="opacity:0.016" fill="#8c8c8c" d="M 3962.5,1661.5 C 3961.17,1742.79 3961.17,1824.12 3962.5,1905.5C 3961.4,1904.4 3960.06,1903.73 3958.5,1903.5C 3958.33,1822.5 3958.5,1741.5 3959,1660.5C 3960.01,1661.34 3961.18,1661.67 3962.5,1661.5 Z"/></g>
<g><path style="opacity:0.045" fill="#e3e3e3" d="M 4078.5,1674.5 C 4083.14,1676.62 4087.14,1679.79 4090.5,1684C 4099.04,1689.59 4108.37,1693.59 4118.5,1696C 4178.5,1696.33 4238.5,1696.67 4298.5,1697C 4299.65,1708.42 4299.82,1719.92 4299,1731.5C 4298.72,1730.58 4298.22,1729.92 4297.5,1729.5C 4297.55,1719.12 4297.55,1708.96 4297.5,1699C 4235.5,1698.67 4173.5,1698.33 4111.5,1698C 4110.83,1697.33 4110.17,1696.67 4109.5,1696C 4096.48,1692.71 4086.14,1685.55 4078.5,1674.5 Z"/></g>
<g><path style="opacity:0.039" fill="#e1e1e1" d="M 532.5,1658.5 C 530.641,1662.39 528.808,1666.39 527,1670.5C 526.81,1680.88 526.31,1691.21 525.5,1701.5C 587.568,1702.17 649.568,1702.84 711.5,1703.5C 711.5,1704.5 711.5,1705.5 711.5,1706.5C 708.784,1706.32 706.117,1705.82 703.5,1705C 644.167,1704.67 584.833,1704.33 525.5,1704C 524.346,1691.91 524.179,1679.74 525,1667.5C 526.667,1664.17 528.333,1660.83 530,1657.5C 530.671,1658.25 531.504,1658.59 532.5,1658.5 Z"/></g>
<g><path style="opacity:0.025" fill="#e1e1e1" d="M 715.5,1705.5 C 717.199,1705.34 718.866,1705.51 720.5,1706C 721.842,1708.89 724.175,1710.22 727.5,1710C 738.727,1718.77 747.893,1729.27 755,1741.5C 755.333,1743.83 755.667,1746.17 756,1748.5C 759.729,1752.98 760.562,1757.98 758.5,1763.5C 757.503,1763.53 756.836,1763.03 756.5,1762C 754.468,1748.44 749.301,1736.28 741,1725.5C 739.989,1724.66 738.822,1724.33 737.5,1724.5C 737.649,1723.45 737.483,1722.45 737,1721.5C 732.653,1718.69 728.486,1715.53 724.5,1712C 719.987,1711.76 716.987,1709.59 715.5,1705.5 Z"/></g>
<g><path style="opacity:0.039" fill="#aeaeae" d="M 858.5,1488.5 C 861.385,1489.54 863.552,1491.54 865,1494.5C 865.667,1576.5 865.667,1658.5 865,1740.5C 824.361,1782.14 783.361,1823.47 742,1864.5C 741.235,1862.93 741.402,1861.6 742.5,1860.5C 782.466,1820.37 822.299,1780.03 862,1739.5C 862.667,1658.83 862.667,1578.17 862,1497.5C 861.667,1496.17 861.333,1494.83 861,1493.5C 859.333,1492.27 857.833,1490.93 856.5,1489.5C 857.492,1489.67 858.158,1489.34 858.5,1488.5 Z"/></g>
<g><path style="opacity:0.02" fill="#e4e4e4" d="M 470.5,1738.5 C 471.922,1738.71 473.255,1739.21 474.5,1740C 485.75,1755.13 500.75,1763.79 519.5,1766C 577.832,1766.5 636.166,1766.67 694.5,1766.5C 688.194,1801.53 681.694,1836.53 675,1871.5C 673.26,1874.91 672.26,1878.58 672,1882.5C 671.768,1881.26 671.268,1880.26 670.5,1879.5C 670.335,1876.15 670.502,1872.82 671,1869.5C 673.061,1863.93 674.227,1858.1 674.5,1852C 674.955,1850.28 675.788,1848.78 677,1847.5C 678.596,1837.24 680.096,1826.9 681.5,1816.5C 682.086,1816.29 682.586,1815.96 683,1815.5C 683.197,1810.91 683.697,1806.41 684.5,1802C 683.742,1800.64 684.242,1799.47 686,1798.5C 686.27,1795.78 686.77,1793.11 687.5,1790.5C 686.848,1786.96 687.681,1783.63 690,1780.5C 690.238,1776.78 690.738,1773.11 691.5,1769.5C 690.758,1768.71 689.925,1768.05 689,1767.5C 630.237,1768.66 571.404,1768.83 512.5,1768C 508.685,1766.87 504.851,1765.7 501,1764.5C 498.416,1761.97 495.25,1760.97 491.5,1761.5C 491.5,1760.5 491.5,1759.5 491.5,1758.5C 481.954,1754.62 474.954,1747.96 470.5,1738.5 Z"/></g>
<g><path style="opacity:0.02" fill="#dfdfdf" d="M 985.5,1739.5 C 986.978,1739.24 988.311,1739.57 989.5,1740.5C 992.503,1753 1000.17,1761.17 1012.5,1765C 1035.78,1766.46 1059.11,1766.96 1082.5,1766.5C 1071.02,1767.83 1059.19,1768.5 1047,1768.5C 1035.17,1768.33 1023.33,1768.17 1011.5,1768C 1003.91,1765.07 997.408,1760.57 992,1754.5C 989.538,1749.64 987.372,1744.64 985.5,1739.5 Z"/></g>
<g><path style="opacity:0.021" fill="#d7d7d7" d="M 4330.5,1819.5 C 4329.28,1823.08 4328.11,1826.75 4327,1830.5C 4325.29,1834.52 4323.12,1838.19 4320.5,1841.5C 4319.62,1841.63 4318.96,1841.3 4318.5,1840.5C 4321.3,1834.92 4323.8,1829.26 4326,1823.5C 4327.31,1821.81 4328.81,1820.47 4330.5,1819.5 Z"/></g>
<g><path style="opacity:0.032" fill="#cccccc" d="M 4316.5,1853.5 C 4315.25,1857.62 4313.25,1861.29 4310.5,1864.5C 4309.39,1863.05 4309.22,1861.39 4310,1859.5C 4311.89,1857.97 4312.89,1855.97 4313,1853.5C 4313.99,1852.83 4315.15,1852.83 4316.5,1853.5 Z"/></g>
<g><path style="opacity:0.036" fill="#c6c6c6" d="M 922.5,1770.5 C 918.868,1776.37 914.702,1782.04 910,1787.5C 884.954,1811.71 860.12,1836.05 835.5,1860.5C 834.614,1861.32 834.281,1862.32 834.5,1863.5C 833.5,1863.5 832.5,1863.5 831.5,1863.5C 831.5,1864.5 831.5,1865.5 831.5,1866.5C 829.24,1867.14 827.24,1868.31 825.5,1870C 821.349,1874.65 817.015,1879.15 812.5,1883.5C 811.614,1884.32 811.281,1885.32 811.5,1886.5C 810.5,1886.5 809.5,1886.5 808.5,1886.5C 808.5,1887.5 808.5,1888.5 808.5,1889.5C 806.24,1890.14 804.24,1891.31 802.5,1893C 797.684,1898.98 792.351,1904.48 786.5,1909.5C 785.614,1910.32 785.281,1911.32 785.5,1912.5C 784.5,1912.5 783.5,1912.5 782.5,1912.5C 782.5,1913.5 782.5,1914.5 782.5,1915.5C 781.448,1915.35 780.448,1915.52 779.5,1916C 774.684,1921.98 769.351,1927.48 763.5,1932.5C 762.614,1933.32 762.281,1934.32 762.5,1935.5C 761.5,1935.5 760.5,1935.5 759.5,1935.5C 759.5,1936.5 759.5,1937.5 759.5,1938.5C 758.325,1938.28 757.325,1938.61 756.5,1939.5C 751.5,1945.17 746.167,1950.5 740.5,1955.5C 739.614,1956.32 739.281,1957.32 739.5,1958.5C 738.5,1958.5 737.5,1958.5 736.5,1958.5C 736.5,1959.5 736.5,1960.5 736.5,1961.5C 735.325,1961.28 734.325,1961.61 733.5,1962.5C 726.768,1970.23 719.435,1977.23 711.5,1983.5C 711.351,1982.45 711.517,1981.45 712,1980.5C 782.535,1910.03 852.702,1840.03 922.5,1770.5 Z"/></g>
<g><path style="opacity:0.016" fill="#e0e0e0" d="M 674.5,1944.5 C 669.135,1938.23 665.469,1931.07 663.5,1923C 663.5,1918.67 663.5,1914.33 663.5,1910C 664.076,1903.17 665.41,1896.67 667.5,1890.5C 668.496,1890.59 669.329,1890.25 670,1889.5C 669.112,1898.54 667.612,1907.54 665.5,1916.5C 665.936,1919.18 666.436,1921.85 667,1924.5C 670.394,1930.93 672.894,1937.6 674.5,1944.5 Z"/></g>
<g><path style="opacity:0.029" fill="#dedede" d="M 3958.5,1903.5 C 3960.06,1903.73 3961.4,1904.4 3962.5,1905.5C 3963.25,1908.09 3964.92,1909.92 3967.5,1911C 4051.5,1911.5 4135.5,1911.67 4219.5,1911.5C 4219.5,1910.5 4219.5,1909.5 4219.5,1908.5C 4220.68,1908.28 4221.68,1908.61 4222.5,1909.5C 4221.45,1912.05 4219.62,1913.71 4217,1914.5C 4135.15,1913.17 4053.32,1913.17 3971.5,1914.5C 3966.01,1914.51 3961.85,1912.18 3959,1907.5C 3958.51,1906.21 3958.34,1904.87 3958.5,1903.5 Z"/></g>
<g><path style="opacity:0.031" fill="#d2d2d2" d="M 4284.5,1923.5 C 4284.66,1925.86 4284.5,1928.19 4284,1930.5C 4282.11,1933.86 4280.28,1937.19 4278.5,1940.5C 4277.35,1940.21 4276.68,1939.38 4276.5,1938C 4276.67,1937.17 4276.83,1936.33 4277,1935.5C 4279.05,1933.3 4280.05,1930.63 4280,1927.5C 4281.83,1925.84 4283.16,1923.84 4284,1921.5C 4284.46,1922.09 4284.63,1922.76 4284.5,1923.5 Z"/></g>
<g><path style="opacity:0.031" fill="#d8d8d8" d="M 708.5,1983.5 C 697.574,1973.74 687.407,1963.07 678,1951.5C 677.517,1950.55 677.351,1949.55 677.5,1948.5C 678.117,1948.39 678.617,1948.06 679,1947.5C 683.644,1953.42 688.311,1959.42 693,1965.5C 699.213,1970.86 704.38,1976.86 708.5,1983.5 Z"/></g>
</svg>
