<?xml version="1.0" encoding="UTF-8"?>
<!DOCTYPE svg PUBLIC "-//W3C//DTD SVG 1.1//EN" "http://www.w3.org/Graphics/SVG/1.1/DTD/svg11.dtd">
<svg xmlns="http://www.w3.org/2000/svg" version="1.1" width="4822px" height="3613px" style="shape-rendering:geometricPrecision; text-rendering:geometricPrecision; image-rendering:optimizeQuality; fill-rule:evenodd; clip-rule:evenodd" xmlns:xlink="http://www.w3.org/1999/xlink">
<g><path style="opacity:0.996" fill="#fefefe" d="M -0.5,-0.5 C 181.5,-0.5 363.5,-0.5 545.5,-0.5C 626.588,65.9943 671.088,151.994 679,257.5C 681.841,309.45 674.175,359.784 656,408.5C 652.492,417.682 648.325,426.515 643.5,435C 460.833,400.113 307.333,314.279 183,177.5C 202.358,214.525 225.025,249.525 251,282.5C 337.997,392.18 445.33,475.513 573,532.5C 573.667,533.5 573.667,534.5 573,535.5C 488.561,614.979 388.395,648.146 272.5,635C 163.128,618.163 78.6281,563.663 19,471.5C 12.2202,460.267 5.72016,448.934 -0.5,437.5C -0.5,291.5 -0.5,145.5 -0.5,-0.5 Z"/></g>
<g><path style="opacity:0.99" fill="#fefefe" d="M 2713.5,-0.5 C 2755.83,-0.5 2798.17,-0.5 2840.5,-0.5C 2840.99,18.9301 2842.16,38.2634 2844,57.5C 2882.7,97.1968 2921.03,137.197 2959,177.5C 2959.67,178.5 2959.67,179.5 2959,180.5C 2902.24,184.242 2845.4,187.742 2788.5,191C 2748.8,230.363 2708.8,269.363 2668.5,308C 2667.21,308.49 2665.87,308.657 2664.5,308.5C 2661.8,251.175 2658.96,193.841 2656,136.5C 2616.8,96.3626 2578.3,55.6959 2540.5,14.5C 2540.61,13.5581 2540.94,12.7247 2541.5,12C 2597.84,9.06998 2654.17,6.06998 2710.5,3C 2711.71,1.9609 2712.71,0.794229 2713.5,-0.5 Z"/></g>
<g><path style="opacity:0.98" fill="#fefefe" d="M 3001.5,-0.5 C 3046.17,-0.5 3090.83,-0.5 3135.5,-0.5C 3151.13,16.2975 3166.96,32.9642 3183,49.5C 3184.29,51.792 3185.96,53.792 3188,55.5C 3188.67,56.5 3188.67,57.5 3188,58.5C 3159.93,60.8205 3131.76,62.6538 3103.5,64C 3083.29,83.8777 3062.79,103.378 3042,122.5C 3041.23,122.355 3040.56,122.022 3040,121.5C 3038.39,93.1591 3036.72,64.8258 3035,36.5C 3027.36,27.8633 3019.36,19.53 3011,11.5C 3007.6,7.60609 3004.43,3.60609 3001.5,-0.5 Z"/></g>
<g><path style="opacity:0.992" fill="#fefefe" d="M 4821.5,235.5 C 4821.5,273.833 4821.5,312.167 4821.5,350.5C 4768.44,355.408 4734.6,383.408 4720,434.5C 4715.23,457.829 4717.73,479.829 4727.5,500.5C 4746.53,539.382 4777.87,560.382 4821.5,563.5C 4821.5,590.833 4821.5,618.167 4821.5,645.5C 4779.14,627.163 4734.8,618.496 4688.5,619.5C 4653.78,618.768 4620.11,624.268 4587.5,636C 4571.78,642.341 4558.62,652.507 4548,666.5C 4545.78,670.501 4543.94,674.667 4542.5,679C 4543.23,681.72 4544.23,684.22 4545.5,686.5C 4564.17,738.144 4598.84,780.977 4649.5,815C 4702.51,847.083 4759.84,859.583 4821.5,852.5C 4821.5,887.5 4821.5,922.5 4821.5,957.5C 4720.57,966.066 4631.24,938.733 4553.5,875.5C 4530.08,855.724 4509.08,833.058 4490.5,807.5C 4488.15,804.129 4485.82,800.796 4483.5,797.5C 4470.97,777.788 4459.97,757.122 4450.5,735.5C 4410.26,630.725 4415.09,527.725 4465,426.5C 4477.15,404.224 4491.31,383.224 4507.5,363.5C 4527.28,340.083 4549.94,319.083 4575.5,300.5C 4578.87,298.154 4582.2,295.821 4585.5,293.5C 4604.82,281.158 4625.49,270.158 4647.5,260.5C 4703.07,238.037 4761.07,229.704 4821.5,235.5 Z"/></g>
<g><path style="opacity:0.004" fill="#ebeceb" d="M 4647.5,260.5 C 4646.83,259.167 4646.83,259.167 4647.5,260.5 Z"/></g>
<g><path style="opacity:0.978" fill="#fefefe" d="M 2976.5,277.5 C 2977.82,277.33 2978.99,277.663 2980,278.5C 2981.49,307.188 2983.15,335.854 2985,364.5C 3004.03,383.864 3022.7,403.531 3041,423.5C 3041.49,424.793 3041.66,426.127 3041.5,427.5C 3013.14,429.035 2984.8,430.868 2956.5,433C 2936.5,452.333 2916.5,471.667 2896.5,491C 2895.22,491.684 2894.05,491.517 2893,490.5C 2891.64,462.168 2890.3,433.835 2889,405.5C 2869.62,384.956 2850.45,364.289 2831.5,343.5C 2831.82,342.353 2832.48,341.519 2833.5,341C 2861.2,339.765 2888.87,338.098 2916.5,336C 2936.7,316.633 2956.7,297.133 2976.5,277.5 Z"/></g>
<g><path style="opacity:0.004" fill="#ecedec" d="M 4585.5,293.5 C 4584.83,292.167 4584.83,292.167 4585.5,293.5 Z"/></g>
<g><path style="opacity:0.004" fill="#ecedec" d="M 4575.5,300.5 C 4574.83,299.167 4574.83,299.167 4575.5,300.5 Z"/></g>
<g><path style="opacity:0.004" fill="#e9eae9" d="M 4507.5,363.5 C 4506.83,362.167 4506.83,362.167 4507.5,363.5 Z"/></g>
<g><path style="opacity:0.004" fill="#eaebea" d="M 4727.5,499.5 C 4728.83,500.167 4728.83,500.167 4727.5,499.5 Z"/></g>
<g><path style="opacity:0.004" fill="#eaebea" d="M 4545.5,685.5 C 4546.83,686.167 4546.83,686.167 4545.5,685.5 Z"/></g>
<g><path style="opacity:0.004" fill="#ebeceb" d="M 4450.5,735.5 C 4449.83,736.167 4449.83,736.167 4450.5,735.5 Z"/></g>
<g><path style="opacity:0.004" fill="#eaebea" d="M 4483.5,797.5 C 4482.83,798.167 4482.83,798.167 4483.5,797.5 Z"/></g>
<g><path style="opacity:0.004" fill="#eaebea" d="M 4490.5,807.5 C 4489.83,808.167 4489.83,808.167 4490.5,807.5 Z"/></g>
<g><path style="opacity:0.004" fill="#ebeceb" d="M 4553.5,875.5 C 4552.83,876.167 4552.83,876.167 4553.5,875.5 Z"/></g>
<g><path style="opacity:0.978" fill="#fefefe" d="M -0.5,2204.5 C -0.5,2151.5 -0.5,2098.5 -0.5,2045.5C 70.8711,1967.57 159.204,1920.41 264.5,1904C 301.06,1899.14 337.06,1901.14 372.5,1910C 377.206,1911.74 381.873,1913.57 386.5,1915.5C 395.451,1892.72 403.951,1869.72 412,1846.5C 414.54,1845.12 416.54,1845.79 418,1848.5C 438.102,1891.04 457.935,1933.7 477.5,1976.5C 477.43,1977.77 477.097,1978.94 476.5,1980C 433.455,2000.56 390.288,2020.73 347,2040.5C 344.741,2040.74 343.574,2039.74 343.5,2037.5C 352.301,2012.43 361.301,1987.43 370.5,1962.5C 369.194,1959.93 367.361,1958.93 365,1959.5C 360.839,1956.99 356.339,1955.16 351.5,1954C 316.228,1946.83 280.895,1947.5 245.5,1956C 168.194,1973.73 101.694,2010.56 46,2066.5C 29.7974,2084.23 17.1308,2104.23 8,2126.5C 6.8495,2128.75 6.51617,2131.09 7,2133.5C 31.446,2142.25 56.2793,2151.09 81.5,2160C 84.9931,2161.48 85.3264,2163.48 82.5,2166C 55.0715,2179.38 27.4048,2192.21 -0.5,2204.5 Z"/></g>
<g><path style="opacity:0.992" fill="#fefefe" d="M 186.5,2048.5 C 213.212,2046.27 231.379,2057.6 241,2082.5C 263.451,2131.19 286.284,2179.69 309.5,2228C 317.789,2224.9 326.122,2221.56 334.5,2218C 338.459,2217.17 342.459,2216.67 346.5,2216.5C 381.963,2217.63 417.296,2218.63 452.5,2219.5C 453.689,2219.24 454.856,2218.91 456,2218.5C 471.84,2219.08 487.674,2219.91 503.5,2221C 517.983,2225.15 528.483,2233.99 535,2247.5C 550.806,2299.25 566.806,2350.92 583,2402.5C 586.877,2427.25 577.71,2445.08 555.5,2456C 496.499,2483.17 437.833,2510.84 379.5,2539C 366.032,2543.94 352.698,2543.6 339.5,2538C 279.909,2516.47 220.243,2495.14 160.5,2474C 154.705,2473.22 152.538,2470.05 154,2464.5C 157.983,2450.87 163.317,2437.87 170,2425.5C 176.939,2418.29 185.439,2414.12 195.5,2413C 225.123,2405.84 254.79,2398.84 284.5,2392C 241.237,2301.3 198.071,2210.47 155,2119.5C 143.263,2094.72 147.763,2073.56 168.5,2056C 174.149,2052.4 180.149,2049.9 186.5,2048.5 Z"/></g>
<g><path style="opacity:0.98" fill="#fefefe" d="M 3805.5,2323.5 C 3826.59,2324.9 3846.59,2330.07 3865.5,2339C 3874.3,2343.1 3879.97,2349.43 3882.5,2358C 3901.28,2398.21 3919.95,2438.38 3938.5,2478.5C 3984.55,2445.28 4030.72,2412.28 4077,2379.5C 4077.33,2379.83 4077.67,2380.17 4078,2380.5C 4105.52,2370.35 4129.19,2376.35 4149,2398.5C 4155.76,2408.34 4162.76,2418.01 4170,2427.5C 4176.09,2437.76 4179.59,2448.59 4180.5,2460C 4181.17,2460.67 4181.83,2461.33 4182.5,2462C 4182.5,2464 4182.5,2466 4182.5,2468C 4186.48,2483.69 4189.81,2499.02 4192.5,2514C 4193.01,2516.57 4194.01,2518.9 4195.5,2521C 4194.9,2522.63 4195.24,2524.29 4196.5,2526C 4196.5,2528 4196.5,2530 4196.5,2532C 4199.44,2545.75 4202.77,2559.09 4206.5,2572C 4206.5,2574 4206.5,2576 4206.5,2578C 4208.15,2579.55 4208.48,2581.22 4207.5,2583C 4209.12,2583.85 4209.46,2584.85 4208.5,2586C 4212.6,2604.71 4216.93,2623.05 4221.5,2641C 4221.54,2661.61 4213.54,2678.94 4197.5,2693C 4133.89,2738.28 4070.55,2783.95 4007.5,2830C 3983.38,2847.33 3957.88,2849.83 3931,2837.5C 3924.74,2833.74 3918.91,2829.41 3913.5,2824.5C 3866.18,2760.52 3819.34,2696.19 3773,2631.5C 3767.74,2623.27 3763.9,2614.77 3761.5,2606C 3762.33,2603.29 3762,2600.62 3760.5,2598C 3761,2594.26 3761.67,2590.26 3762.5,2586C 3762.04,2585.59 3761.71,2585.09 3761.5,2584.5C 3762.47,2579.19 3763.81,2573.69 3765.5,2568C 3764.8,2565.84 3765.14,2563.67 3766.5,2561.5C 3766.57,2558.7 3766.57,2555.87 3766.5,2553C 3767.63,2549.7 3768.63,2546.37 3769.5,2543C 3769.63,2540.4 3769.63,2537.73 3769.5,2535C 3770.84,2532.68 3771.18,2530.34 3770.5,2528C 3771.83,2522.67 3773.17,2517.33 3774.5,2512C 3774.04,2511.59 3773.71,2511.09 3773.5,2510.5C 3775.04,2502.81 3776.71,2494.97 3778.5,2487C 3777.8,2484.84 3778.14,2482.67 3779.5,2480.5C 3779.57,2477.7 3779.57,2474.87 3779.5,2472C 3780.17,2471 3780.83,2470 3781.5,2469C 3781.5,2466.33 3781.5,2463.67 3781.5,2461C 3782.84,2458.68 3783.18,2456.34 3782.5,2454C 3783.84,2451.68 3784.18,2449.34 3783.5,2447C 3784.5,2444 3785.5,2441 3786.5,2438C 3786.43,2435.13 3786.43,2432.3 3786.5,2429.5C 3787.79,2423.96 3789.12,2418.46 3790.5,2413C 3790.04,2412.59 3789.71,2412.09 3789.5,2411.5C 3791.59,2403.8 3793.26,2395.97 3794.5,2388C 3794.63,2385.4 3794.63,2382.73 3794.5,2380C 3795.84,2377.68 3796.18,2375.34 3795.5,2373C 3798.18,2359.28 3800.85,2345.62 3803.5,2332C 3803.09,2329.12 3803.76,2326.29 3805.5,2323.5 Z M 3849.5,2437.5 C 3851.43,2439.76 3853.1,2442.26 3854.5,2445C 3862.6,2464.2 3871.26,2483.2 3880.5,2502C 3885.96,2517.75 3897.13,2529.91 3914,2538.5C 3914.33,2538.17 3914.67,2537.83 3915,2537.5C 3924.32,2542.11 3934.16,2543.61 3944.5,2542C 3954.76,2540.79 3964.43,2537.12 3973.5,2531C 4015.91,2500.04 4058.41,2469.21 4101,2438.5C 4106.67,2446.5 4112.33,2454.5 4118,2462.5C 4127.36,2505.62 4136.86,2548.79 4146.5,2592C 4146.17,2592.33 4145.83,2592.67 4145.5,2593C 4147.33,2596.79 4148.66,2600.79 4149.5,2605C 4149.17,2605.33 4148.83,2605.67 4148.5,2606C 4150.54,2611.88 4152.21,2617.88 4153.5,2624C 4152.54,2625.15 4152.88,2626.15 4154.5,2627C 4154.17,2627.33 4153.83,2627.67 4153.5,2628C 4154.93,2632.79 4156.26,2637.62 4157.5,2642.5C 4157.17,2643.17 4156.83,2643.83 4156.5,2644.5C 4092.92,2690.87 4029.09,2736.87 3965,2782.5C 3962.87,2782.93 3960.71,2782.43 3958.5,2781C 3913.31,2718.64 3868.31,2656.14 3823.5,2593.5C 3832.33,2540.96 3840.99,2488.96 3849.5,2437.5 Z"/></g>
<g><path style="opacity:0.981" fill="#fefefe" d="M 3706.5,2652.5 C 3711.4,2653.51 3716.23,2654.85 3721,2656.5C 3724.42,2659.13 3727.92,2661.63 3731.5,2664C 3731.17,2664.33 3730.83,2664.67 3730.5,2665C 3783.72,2737.89 3836.55,2811.05 3889,2884.5C 3894.29,2899.51 3890.79,2912.34 3878.5,2923C 3863.17,2934 3847.83,2945 3832.5,2956C 3829.69,2956.92 3827.53,2956.09 3826,2953.5C 3764.33,2867.83 3702.67,2782.17 3641,2696.5C 3640.29,2694.63 3640.79,2693.13 3642.5,2692C 3659.17,2680 3675.83,2668 3692.5,2656C 3697.2,2654.62 3701.86,2653.46 3706.5,2652.5 Z"/></g>
</svg>
